{
.appVersion = "3108";
.formatVersion = 3;
axes = (
{
name = Weight;
tag = wght;
}
);
customParameters = (
{
name = "Variable Font Origin";
value = m01;
}
);
date = "2022-02-21 08:08:28 +0000";
familyName = "QLD Beginners";
featurePrefixes = (
{
automatic = 1;
code = "languagesystem DFLT dflt;
";
name = Languagesystems;
}
);
features = (
{
automatic = 1;
code = "feature c2sc;
feature smcp;
feature smcp;
";
tag = aalt;
},
{
automatic = 1;
code = "sub A by a.sc;
sub B by b.sc;
sub C by c.sc;
sub D by d.sc;
sub E by e.sc;
sub F by f.sc;
sub G by g.sc;
sub H by h.sc;
sub I by i.sc;
sub J by j.sc;
sub K by k.sc;
sub L by l.sc;
sub M by m.sc;
sub N by n.sc;
sub O by o.sc;
sub P by p.sc;
sub Q by q.sc;
sub R by r.sc;
sub S by s.sc;
sub T by t.sc;
sub U by u.sc;
sub V by v.sc;
sub W by w.sc;
sub X by x.sc;
sub Y by y.sc;
sub Z by z.sc;
";
tag = c2sc;
},
{
automatic = 1;
code = "sub a by a.sc;
sub b by b.sc;
sub c by c.sc;
sub d by d.sc;
sub e by e.sc;
sub f by f.sc;
sub g by g.sc;
sub h by h.sc;
sub i by i.sc;
sub j by j.sc;
sub k by k.sc;
sub l by l.sc;
sub m by m.sc;
sub n by n.sc;
sub o by o.sc;
sub p by p.sc;
sub q by q.sc;
sub r by r.sc;
sub s by s.sc;
sub t by t.sc;
sub u by u.sc;
sub v by v.sc;
sub w by w.sc;
sub x by x.sc;
sub y by y.sc;
sub z by z.sc;
";
tag = smcp;
}
);
fontMaster = (
{
axesValues = (
300
);
guides = (
{
pos = (632,650);
},
{
pos = (416,175);
},
{
pos = (170,350);
},
{
pos = (127,568);
}
);
id = m01;
metricValues = (
{
over = 4;
pos = 700;
},
{
over = 4;
pos = 650;
},
{
over = 4;
pos = 350;
},
{
over = -4;
},
{
over = -4;
pos = -300;
},
{
over = -16;
pos = 10;
},
{
over = -4;
pos = 396;
}
);
name = "QLD Beginners Regular";
stemValues = (
45,
50
);
userData = {
GSCornerRadius = 15;
GSOffsetHorizontal = 5;
GSOffsetKeepCompatible = 1;
GSOffsetVertical = 5;
};
visible = 1;
},
{
axesValues = (
800
);
guides = (
{
pos = (632,650);
},
{
pos = (416,175);
},
{
pos = (170,350);
},
{
pos = (127,568);
}
);
iconName = Bold_SemiExtended;
id = m002;

glyphs = (
{
glyphname = A;
lastChange = "2022-02-26 19:36:14 +0000";
layers = (
{
layerId = m01;
name = "QBeginners Light";
shapes = (
{
closed = 1;
nodes = (
(393,625,l),
(397,638,o),
(389,650,o),
(370,650,cs),
(348,650,o),
(347,639,o),
(340,625,cs),
(31,32,ls),
(21,12,o),
(33,0,o),
(48,0,cs),
(68,0,o),
(73,7,o),
(82,25,cs),
(391,619,l)
);
},
{
closed = 1;
nodes = (
(398,305,l),
(393,350,l),
(224,350,l),
(202,305,l)
);
},
{
closed = 1;
nodes = (
(347,613,l),
(397,24,ls),
(398,14,o),
(401,0,o),
(423,0,c),
(441,0,o),
(447,11,o),
(446,26,cs),
(394,635,l)
);
}
);
visible = 1;
width = 528;
},
{
layerId = m002;
name = "QBeginners Light";
shapes = (
{
closed = 1;
nodes = (
(431,604,l),
(436,630,o),
(415,650,o),
(384,650,cs),
(350,650,o),
(342,636,o),
(333,616,c),
(43,60,ls),
(24,24,o),
(50,0,o),
(80,0,cs),
(107,0,o),
(122,8,o),
(135,33,cs),
(426,591,l)
);
},
{
closed = 1;
nodes = (
(433,270,l),
(425,350,l),
(227,350,l),
(184,270,l)
);
},
{
closed = 1;
nodes = (
(340,584,l),
(386,40,ls),
(388,16,o),
(404,0,o),
(435,0,cs),
(463,0,o),
(483,15,o),
(480,46,cs),
(431,619,l)
);
}
);
width = 564;
},
{
associatedMasterId = m002;
attr = {
axisRules = (
{
max = 800;
min = 600;
}
);
};
layerId = "1CEABEFF-FBAF-40E8-9AF7-7F734CF48D60";
name = "26 Feb 22, 19:34";
shapes = (
{
closed = 1;
nodes = (
(107,0,o),
(122,8,o),
(135,33,cs),
(416,591,l),
(430,602,l),
(437,629,o),
(417,650,o),
(384,650,cs),
(350,650,o),
(342,636,o),
(333,616,c),
(43,60,ls),
(24,24,o),
(50,0,o),
(80,0,cs)
);
},
{
closed = 1;
nodes = (
(433,270,l),
(425,350,l),
(227,350,l),
(184,270,l)
);
},
{
closed = 1;
nodes = (
(463,0,o),
(483,15,o),
(480,46,cs),
(431,620,l),
(350,584,l),
(386,40,ls),
(388,16,o),
(404,0,o),
(435,0,cs)
);
}
);
visible = 1;
width = 564;
},
{
associatedMasterId = m01;
attr = {
axisRules = (
{
max = 800;
min = 600;
}
);
};
layerId = "497F4732-A267-4EB1-B5D8-081D17C67FF2";
name = "26 Feb 22, 19:34";
shapes = (
{
closed = 1;
nodes = (
(68,0,o),
(73,7,o),
(82,25,cs),
(391,619,l),
(393,624,l),
(397,638,o),
(389,650,o),
(370,650,cs),
(348,650,o),
(347,639,o),
(340,625,cs),
(31,32,ls),
(21,12,o),
(33,0,o),
(48,0,cs)
);
},
{
closed = 1;
nodes = (
(398,305,l),
(393,350,l),
(224,350,l),
(202,305,l)
);
},
{
closed = 1;
nodes = (
(441,0,o),
(447,11,o),
(446,26,cs),
(394,631,l),
(347,613,l),
(397,24,ls),
(398,14,o),
(401,0,o),
(423,0,c)
);
}
);
visible = 1;
width = 528;
}
);
metricLeft = N;
metricRight = N;
unicode = 65;
},
{
glyphname = B;
lastChange = "2022-02-26 19:36:14 +0000";
layers = (
{
layerId = m01;
shapes = (
{
closed = 1;
nodes = (
(387,300,o),
(439,367,o),
(458,475,cs),
(479,593,o),
(375,650,o),
(168,650,c),
(159,605,l),
(342,605,o),
(424,565,o),
(408,477,cs),
(395,405,o),
(356,350,o),
(121,350,c),
(113,300,l)
);
},
{
closed = 1;
nodes = (
(321,0,o),
(380,31,o),
(400,144,cs),
(422,270,o),
(284,350,o),
(105,350,c),
(98,300,l),
(266,300,o),
(366,239,o),
(351,151,cs),
(336,66,o),
(262,45,o),
(62,45,c),
(55,0,l)
);
},
{
closed = 1;
nodes = (
(188,641,o),
(182,650,o),
(163,650,cs),
(146,650,o),
(138,643,o),
(134,623,cs),
(30,31,ls),
(27,14,o),
(37,0,o),
(54,0,cs),
(68,0,o),
(76,9,o),
(80,29,cs),
(184,619,ls)
);
}
);
width = 445;
},
{
layerId = m002;
shapes = (
{
closed = 1;
nodes = (
(410,282,o),
(471,344,o),
(492,462,cs),
(516,597,o),
(387,650,o),
(180,650,c),
(163,559,l),
(344,562,o),
(405,529,o),
(394,467,cs),
(385,413,o),
(367,355,o),
(133,358,c),
(120,282,l)
);
},
{
closed = 1;
nodes = (
(358,0,o),
(415,26,o),
(437,151,cs),
(462,292,o),
(305,361,o),
(118,358,c),
(104,282,l),
(281,282,o),
(354,241,o),
(341,168,cs),
(331,110,o),
(298,95,o),
(92,96,c),
(77,0,l)
);
},
{
closed = 1;
nodes = (
(245,643,o),
(212,650,o),
(188,650,cs),
(164,650,o),
(143,642,o),
(137,609,cs),
(39,53,ls),
(34,23,o),
(56,0,o),
(86,0,cs),
(109,0,o),
(133,11,o),
(139,44,cs),
(237,599,ls)
);
}
);
width = 491;
}
);
metricLeft = N;
metricRight = O;
unicode = 66;
},
{
glyphname = C;
lastChange = "2022-02-26 17:31:17 +0000";
layers = (
{
layerId = m01;
shapes = (
{
closed = 1;
nodes = (
(258,-4,o),
(325,46,o),
(407,169,cs),
(428,200,o),
(429,206,o),
(429,212,cs),
(429,224,o),
(419,232,o),
(407,232,cs),
(391,232,o),
(383,223,o),
(366,198,cs),
(288,87,o),
(239,46,o),
(177,46,cs),
(114,46,o),
(108,99,o),
(108,137,cs),
(108,210,o),
(128,310,o),
(135,349,cs),
(158,468,o),
(186,600,o),
(423,600,cs),
(477,600,o),
(483,601,o),
(493,607,cs),
(504,613,o),
(506,635,o),
(495,642,cs),
(486,648,o),
(477,650,o),
(424,650,cs),
(151,650,o),
(110,498,o),
(82,338,cs),
(78,318,o),
(58,203,o),
(58,138,cs),
(58,70,o),
(80,-4,o),
(178,-4,cs)
);
}
);
width = 463;
},
{
layerId = m002;
shapes = (
{
closed = 1;
nodes = (
(289,-4,o),
(367,47,o),
(447,166,cs),
(471,201,o),
(472,210,o),
(472,219,cs),
(472,243,o),
(450,259,o),
(426,259,cs),
(403,259,o),
(390,248,o),
(368,218,cs),
(297,115,o),
(259,85,o),
(209,85,cs),
(173,85,o),
(167,113,o),
(167,148,cs),
(167,214,o),
(185,308,o),
(191,343,cs),
(212,454,o),
(237,561,o),
(441,561,cs),
(496,561,o),
(506,563,o),
(520,571,cs),
(546,587,o),
(548,623,o),
(523,641,cs),
(510,650,o),
(498,650,o),
(442,650,cs),
(166,650,o),
(116,494,o),
(89,341,cs),
(85,321,o),
(67,212,o),
(67,149,cs),
(67,80,o),
(90,-4,o),
(203,-4,cs)
);
}
);
width = 515;
}
);
metricLeft = O;
metricRight = O;
unicode = 67;
},
{
glyphname = D;
lastChange = "2022-02-26 19:36:14 +0000";
layers = (
{
layerId = m01;
shapes = (
{
closed = 1;
nodes = (
(116,0,ls),
(308,0,o),
(440,128,o),
(479,351,cs),
(509,521,o),
(388,650,o),
(199,650,cs),
(163,650,l),
(158,600,l),
(203,600,ls),
(362,600,o),
(453,489,o),
(429,350,cs),
(395,155,o),
(278,50,o),
(116,50,cs),
(63,50,l),
(53,0,l)
);
},
{
closed = 1;
nodes = (
(187,637,o),
(185,650,o),
(164,650,cs),
(142,650,o),
(137,639,o),
(134,623,cs),
(29,27,ls),
(26,12,o),
(34,0,o),
(52,0,cs),
(74,0,o),
(78,15,o),
(80,25,cs),
(184,619,ls)
);
}
);
width = 488;
},
{
layerId = m002;
shapes = (
{
closed = 1;
nodes = (
(161,0,ls),
(354,0,o),
(483,129,o),
(522,351,cs),
(552,523,o),
(430,650,o),
(238,650,cs),
(188,650,l),
(180,562,l),
(243,562,ls),
(381,562,o),
(447,473,o),
(425,350,cs),
(394,177,o),
(304,89,o),
(161,89,cs),
(101,89,l),
(83,0,l)
);
},
{
closed = 1;
nodes = (
(244,641,o),
(217,650,o),
(189,650,cs),
(157,650,o),
(142,636,o),
(137,609,cs),
(38,49,ls),
(33,21,o),
(53,0,o),
(85,0,cs),
(112,0,o),
(133,15,o),
(138,41,cs),
(237,600,ls)
);
}
);
width = 541;
}
);
metricLeft = N;
metricRight = O;
unicode = 68;
},
{
glyphname = E;
lastChange = "2022-02-26 19:36:14 +0000";
layers = (
{
layerId = m01;
shapes = (
{
closed = 1;
nodes = (
(187,637,o),
(185,650,o),
(164,650,cs),
(142,650,o),
(137,639,o),
(134,623,c),
(29,27,l),
(26,12,o),
(34,0,o),
(52,0,cs),
(74,0,o),
(78,15,o),
(80,25,c),
(184,619,l)
);
},
{
closed = 1;
nodes = (
(380,0,ls),
(400,0,o),
(406,14,o),
(406,26,cs),
(406,38,o),
(400,50,o),
(380,50,cs),
(61,50,l),
(53,0,l)
);
},
{
closed = 1;
nodes = (
(406,305,ls),
(426,305,o),
(432,315,o),
(432,327,cs),
(432,339,o),
(426,350,o),
(406,350,cs),
(109,350,l),
(101,305,l)
);
},
{
closed = 1;
nodes = (
(488,600,ls),
(508,600,o),
(514,613,o),
(514,625,cs),
(514,637,o),
(508,650,o),
(488,650,cs),
(168,650,l),
(159,600,l)
);
}
);
width = 490;
},
{
layerId = m002;
shapes = (
{
closed = 1;
nodes = (
(244,638,o),
(218,650,o),
(190,650,cs),
(159,650,o),
(142,639,o),
(137,611,cs),
(38,50,ls),
(33,22,o),
(45,0,o),
(75,0,cs),
(107,0,o),
(135,18,o),
(139,40,cs),
(237,597,ls)
);
},
{
closed = 1;
nodes = (
(399,0,ls),
(429,0,o),
(449,16,o),
(449,42,cs),
(449,66,o),
(433,80,o),
(401,80,cs),
(96,80,l),
(82,0,l)
);
},
{
closed = 1;
nodes = (
(417,265,ls),
(449,265,o),
(471,284,o),
(471,308,cs),
(471,334,o),
(452,350,o),
(422,350,cs),
(144,350,l),
(128,265,l)
);
},
{
closed = 1;
nodes = (
(498,555,ls),
(528,555,o),
(549,580,o),
(549,606,cs),
(549,631,o),
(531,650,o),
(500,650,cs),
(197,650,l),
(181,555,l)
);
}
);
width = 533;
}
);
metricLeft = N;
metricRight = N;
unicode = 69;
},
{
glyphname = F;
lastChange = "2022-02-26 19:36:14 +0000";
layers = (
{
layerId = m01;
shapes = (
{
closed = 1;
nodes = (
(187,637,o),
(185,650,o),
(164,650,cs),
(142,650,o),
(137,639,o),
(134,623,cs),
(29,27,ls),
(26,12,o),
(34,0,o),
(52,0,cs),
(74,0,o),
(78,15,o),
(80,25,cs),
(184,619,ls)
);
},
{
closed = 1;
nodes = (
(405,305,ls),
(425,305,o),
(431,315,o),
(431,327,cs),
(431,339,o),
(425,350,o),
(405,350,cs),
(116,350,l),
(109,305,l)
);
},
{
closed = 1;
nodes = (
(488,600,ls),
(508,600,o),
(514,613,o),
(514,625,cs),
(514,637,o),
(508,650,o),
(488,650,cs),
(165,650,l),
(158,600,l)
);
}
);
width = 490;
},
{
layerId = m002;
shapes = (
{
closed = 1;
nodes = (
(242,638,o),
(216,650,o),
(188,650,cs),
(157,650,o),
(142,638,o),
(137,610,cs),
(39,54,ls),
(34,27,o),
(42,0,o),
(74,0,cs),
(112,0,o),
(134,21,o),
(139,51,cs),
(235,597,ls)
);
},
{
closed = 1;
nodes = (
(417,265,ls),
(449,265,o),
(466,284,o),
(466,308,cs),
(466,334,o),
(448,350,o),
(418,350,cs),
(140,350,l),
(125,265,l)
);
},
{
closed = 1;
nodes = (
(490,555,ls),
(520,555,o),
(544,575,o),
(544,604,cs),
(544,632,o),
(526,650,o),
(495,650,cs),
(191,650,l),
(172,555,l)
);
}
);
width = 528;
}
);
metricLeft = N;
metricRight = N;
unicode = 70;
},
{
glyphname = G;
lastChange = "2022-02-26 19:36:14 +0000";
layers = (
{
layerId = m01;
shapes = (
{
closed = 1;
nodes = (
(423,350,o),
(420,343,o),
(362,255,cs),
(325,199,o),
(222,46,o),
(153,46,cs),
(117,46,o),
(108,89,o),
(108,135,cs),
(108,200,o),
(126,310,o),
(137,364,cs),
(158,468,o),
(201,600,o),
(438,600,cs),
(494,600,ls),
(509,600,o),
(519,613,o),
(519,626,cs),
(519,638,o),
(510,650,o),
(498,650,cs),
(439,650,ls),
(166,650,o),
(110,498,o),
(82,338,cs),
(78,318,o),
(58,203,o),
(58,140,cs),
(58,70,o),
(83,-4,o),
(150,-4,cs),
(244,-4,o),
(343,134,o),
(435,275,c),
(447,350,l)
);
},
{
closed = 1;
nodes = (
(468,340,o),
(465,350,o),
(448,350,c),
(428,350,o),
(419,342,o),
(415,323,cs),
(363,27,ls),
(361,15,o),
(364,1,o),
(384,0,cs),
(407,-1,o),
(412,16,o),
(414,27,cs),
(466,323,ls)
);
}
);
width = 495;
},
{
layerId = m002;
shapes = (
{
closed = 1;
nodes = (
(424,370,o),
(418,361,o),
(360,271,cs),
(325,217,o),
(238,85,o),
(187,85,cs),
(171,85,o),
(165,114,o),
(165,155,cs),
(165,214,o),
(183,304,o),
(192,354,cs),
(209,450,o),
(248,561,o),
(452,561,cs),
(505,561,ls),
(532,561,o),
(553,582,o),
(553,607,cs),
(553,631,o),
(533,650,o),
(508,650,cs),
(453,650,ls),
(177,650,o),
(116,494,o),
(89,341,cs),
(85,321,o),
(67,212,o),
(67,151,cs),
(67,79,o),
(91,-4,o),
(175,-4,cs),
(282,-4,o),
(381,153,o),
(452,265,c),
(462,370,l)
);
},
{
closed = 1;
nodes = (
(508,351,o),
(492,370,o),
(461,370,cs),
(422,370,o),
(409,343,o),
(406,327,cs),
(357,49,ls),
(352,18,o),
(372,0,o),
(406,0,cs),
(441,0,o),
(450,18,o),
(454,42,cs),
(503,320,ls)
);
}
);
width = 537;
}
);
metricLeft = O;
metricRight = N;
unicode = 71;
},
{
glyphname = H;
lastChange = "2022-02-26 19:36:14 +0000";
layers = (
{
layerId = m01;
shapes = (
{
closed = 1;
nodes = (
(187,637,o),
(181,650,o),
(164,650,cs),
(145,650,o),
(137,639,o),
(134,623,cs),
(29,27,ls),
(26,12,o),
(34,0,o),
(52,0,cs),
(74,0,o),
(78,15,o),
(80,25,cs),
(184,619,ls)
);
},
{
closed = 1;
nodes = (
(497,305,l),
(505,350,l),
(121,350,l),
(113,305,l)
);
},
{
closed = 1;
nodes = (
(590,638,o),
(584,650,o),
(564,650,cs),
(546,650,o),
(539,638,o),
(537,628,cs),
(432,27,ls),
(430,15,o),
(432,0,o),
(455,0,cs),
(474,0,o),
(480,13,o),
(482,22,cs),
(587,621,ls)
);
}
);
width = 564;
},
{
layerId = m002;
shapes = (
{
closed = 1;
nodes = (
(242,632,o),
(224,650,o),
(195,650,cs),
(168,650,o),
(142,637,o),
(137,609,cs),
(39,49,ls),
(34,21,o),
(54,0,o),
(86,0,cs),
(120,0,o),
(136,20,o),
(139,40,cs),
(236,597,ls)
);
},
{
closed = 1;
nodes = (
(528,270,l),
(542,350,l),
(130,350,l),
(116,270,l)
);
},
{
closed = 1;
nodes = (
(623,631,o),
(602,650,o),
(571,650,cs),
(543,650,o),
(522,635,o),
(518,613,cs),
(420,49,ls),
(415,20,o),
(432,0,o),
(465,0,cs),
(494,0,o),
(515,17,o),
(519,37,cs),
(617,599,ls)
);
}
);
width = 602;
}
);
metricLeft = N;
metricRight = N;
unicode = 72;
},
{
glyphname = I;
lastChange = "2022-02-26 19:36:14 +0000";
layers = (
{
layerId = m01;
shapes = (
{
closed = 1;
nodes = (
(127,25,l),
(231,619,l),
(180,620,l),
(76,25,l)
);
},
{
closed = 1;
nodes = (
(164,0,o),
(170,11,o),
(170,23,cs),
(170,35,o),
(164,45,o),
(144,45,cs),
(55,45,ls),
(35,45,o),
(29,35,o),
(29,23,cs),
(29,11,o),
(35,0,o),
(55,0,cs),
(144,0,ls)
);
},
{
closed = 1;
nodes = (
(272,605,o),
(278,616,o),
(278,628,cs),
(278,640,o),
(272,650,o),
(252,650,cs),
(163,650,ls),
(143,650,o),
(137,640,o),
(137,628,cs),
(137,616,o),
(143,605,o),
(163,605,cs),
(252,605,ls)
);
}
);
width = 254;
},
{
layerId = m002;
shapes = (
{
closed = 1;
nodes = (
(175,21,l),
(280,622,l),
(182,624,l),
(77,21,l)
);
},
{
closed = 1;
nodes = (
(204,0,o),
(215,15,o),
(219,39,cs),
(223,63,o),
(210,78,o),
(185,78,cs),
(87,78,ls),
(55,78,o),
(40,63,o),
(36,39,cs),
(32,15,o),
(48,0,o),
(73,0,cs),
(171,0,ls)
);
},
{
closed = 1;
nodes = (
(303,570,o),
(317,588,o),
(321,612,cs),
(325,636,o),
(308,650,o),
(285,650,cs),
(187,650,ls),
(156,650,o),
(142,636,o),
(138,612,cs),
(134,588,o),
(150,570,o),
(173,570,cs),
(271,570,ls)
);
}
);
width = 303;
}
);
metricLeft = N;
metricRight = N;
unicode = 73;
},
{
glyphname = J;
lastChange = "2022-02-26 19:36:14 +0000";
layers = (
{
layerId = m01;
shapes = (
{
closed = 1;
nodes = (
(365,621,l),
(308,301,l),
(296,232,o),
(287,161,o),
(258,113,cs),
(240,82,o),
(214,63,o),
(173,58,cs),
(146,55,o),
(53,51,o),
(29,51,cs),
(17,51,o),
(4,39,o),
(4,25,cs),
(4,10,o),
(17,0,o),
(29,0,cs),
(60,0,o),
(150,5,o),
(169,7,cs),
(239,16,o),
(276,46,o),
(301,86,cs),
(335,140,o),
(343,211,o),
(358,296,c),
(416,621,l)
);
},
{
closed = 1;
nodes = (
(543,600,o),
(549,613,o),
(549,625,cs),
(549,637,o),
(543,650,o),
(523,650,cs),
(259,650,ls),
(239,650,o),
(233,637,o),
(233,625,cs),
(233,613,o),
(239,600,o),
(259,600,cs),
(523,600,ls)
);
}
);
width = 525;
},
{
layerId = m002;
shapes = (
{
closed = 1;
nodes = (
(380,625,l),
(322,306,ls),
(310,241,o),
(303,178,o),
(278,137,cs),
(263,111,o),
(248,100,o),
(217,96,cs),
(193,93,o),
(106,91,o),
(85,91,cs),
(61,91,o),
(36,71,o),
(36,45,cs),
(36,18,o),
(61,0,o),
(85,0,cs),
(115,0,o),
(201,2,o),
(219,4,cs),
(295,14,o),
(336,48,o),
(362,88,cs),
(396,145,o),
(405,215,o),
(419,294,cs),
(478,625,l)
);
},
{
closed = 1;
nodes = (
(581,555,o),
(599,576,o),
(599,602,cs),
(599,630,o),
(580,650,o),
(550,650,cs),
(302,650,ls),
(271,650,o),
(252,629,o),
(252,602,cs),
(252,574,o),
(271,555,o),
(301,555,cs),
(549,555,ls)
);
}
);
width = 584;
}
);
metricLeft = T;
metricRight = T;
unicode = 74;
},
{
glyphname = K;
lastChange = "2022-02-26 19:36:14 +0000";
layers = (
{
layerId = m01;
shapes = (
{
closed = 1;
nodes = (
(477,599,ls),
(489,609,o),
(494,619,o),
(496,628,cs),
(497,640,o),
(489,650,o),
(476,650,cs),
(468,651,o),
(457,647,o),
(445,637,cs),
(108,360,l),
(108,348,l),
(166,343,l)
);
},
{
closed = 1;
nodes = (
(108,356,l),
(108,345,l),
(335,19,ls),
(342,9,o),
(352,0,o),
(365,0,cs),
(375,0,o),
(385,6,o),
(388,17,cs),
(390,24,o),
(389,32,o),
(382,42,cs),
(166,354,l)
);
},
{
closed = 1;
nodes = (
(188,637,o),
(184,650,o),
(165,650,cs),
(145,650,o),
(138,639,o),
(135,623,cs),
(30,32,ls),
(27,17,o),
(35,0,o),
(53,0,cs),
(74,0,o),
(79,18,o),
(81,31,cs),
(185,619,ls)
);
}
);
width = 471;
},
{
layerId = m002;
shapes = (
{
closed = 1;
nodes = (
(505,560,ls),
(519,572,o),
(529,587,o),
(531,602,cs),
(534,625,o),
(516,650,o),
(487,650,cs),
(471,650,o),
(451,644,o),
(435,631,cs),
(114,368,l),
(114,326,l),
(209,318,l)
);
},
{
closed = 1;
nodes = (
(114,382,l),
(114,338,l),
(332,25,ls),
(343,9,o),
(361,0,o),
(380,0,cs),
(400,0,o),
(423,10,o),
(427,31,cs),
(430,44,o),
(429,60,o),
(419,74,cs),
(214,368,l)
);
},
{
closed = 1;
nodes = (
(244,636,o),
(217,650,o),
(193,650,cs),
(167,650,o),
(143,637,o),
(138,609,cs),
(39,54,ls),
(34,24,o),
(55,0,o),
(87,0,cs),
(118,0,o),
(134,19,o),
(139,45,cs),
(237,597,ls)
);
}
);
width = 515;
}
);
metricLeft = N;
metricRight = N;
unicode = 75;
},
{
glyphname = L;
lastChange = "2022-02-26 19:36:14 +0000";
layers = (
{
layerId = m01;
shapes = (
{
closed = 1;
nodes = (
(187,637,o),
(184,650,o),
(164,650,cs),
(144,650,o),
(137,639,o),
(134,623,cs),
(29,27,ls),
(26,12,o),
(34,0,o),
(52,0,cs),
(74,0,o),
(77,15,o),
(79,25,cs),
(184,619,ls)
);
},
{
closed = 1;
nodes = (
(380,0,ls),
(398,0,o),
(406,14,o),
(406,26,cs),
(406,38,o),
(398,50,o),
(380,50,cs),
(57,50,l),
(57,0,l)
);
}
);
width = 488;
},
{
layerId = m002;
shapes = (
{
closed = 1;
nodes = (
(241,639,o),
(217,650,o),
(192,650,cs),
(163,650,o),
(142,637,o),
(137,609,cs),
(38,49,ls),
(33,21,o),
(48,0,o),
(78,0,cs),
(112,0,o),
(131,18,o),
(135,39,cs),
(234,597,ls)
);
},
{
closed = 1;
nodes = (
(393,0,ls),
(423,0,o),
(443,22,o),
(443,46,cs),
(443,70,o),
(423,91,o),
(393,91,cs),
(95,91,l),
(79,0,l)
);
}
);
width = 525;
}
);
metricLeft = N;
metricRight = N;
unicode = 76;
},
{
glyphname = M;
lastChange = "2022-02-26 19:36:14 +0000";
layers = (
{
layerId = m01;
shapes = (
{
closed = 1;
nodes = (
(370,650,l),
(352,650,o),
(346,639,o),
(339,625,cs),
(33,38,ls),
(27,26,o),
(27,16,o),
(31,10,cs),
(35,4,o),
(42,0,o),
(50,0,cs),
(61,0,o),
(73,7,o),
(83,25,cs),
(379,593,l)
);
},
{
closed = 1;
nodes = (
(395,631,ls),
(394,639,o),
(387,650,o),
(369,650,c),
(349,584,l),
(394,24,ls),
(395,14,o),
(399,0,o),
(423,0,c),
(444,26,l)
);
},
{
closed = 1;
nodes = (
(441,0,o),
(449,17,o),
(453,24,cs),
(746,586,l),
(736,650,l),
(721,650,o),
(715,635,o),
(709,624,cs),
(416,61,l),
(421,0,l)
);
},
{
closed = 1;
nodes = (
(767,638,o),
(764,650,o),
(735,650,c),
(719,608,l),
(767,24,ls),
(768,14,o),
(773,0,o),
(794,0,c),
(810,0,o),
(818,11,o),
(817,26,cs),
(768,622,ls)
);
}
);
width = 899;
},
{
layerId = m002;
shapes = (
{
closed = 1;
nodes = (
(380,650,l),
(352,650,o),
(343,638,o),
(332,617,cs),
(43,64,ls),
(34,47,o),
(35,34,o),
(42,21,cs),
(49,8,o),
(67,0,o),
(82,0,cs),
(100,0,o),
(127,9,o),
(140,33,cs),
(412,555,l)
);
},
{
closed = 1;
nodes = (
(432,606,ls),
(430,635,o),
(420,650,o),
(379,650,c),
(337,559,l),
(381,40,ls),
(383,18,o),
(400,0,o),
(431,0,c),
(478,46,l)
);
},
{
closed = 1;
nodes = (
(470,0,o),
(478,19,o),
(484,31,cs),
(764,568,l),
(740,650,l),
(709,650,o),
(692,638,o),
(680,616,cs),
(401,86,l),
(430,0,l)
);
},
{
closed = 1;
nodes = (
(780,635,o),
(774,650,o),
(738,650,c),
(685,562,l),
(728,40,ls),
(730,19,o),
(751,0,o),
(782,0,cs),
(811,0,o),
(830,20,o),
(828,46,cs),
(782,606,ls)
);
}
);
width = 911;
}
);
metricLeft = N;
metricRight = N;
unicode = 77;
},
{
glyphname = N;
lastChange = "2022-02-26 19:36:14 +0000";
layers = (
{
layerId = m01;
shapes = (
{
closed = 1;
nodes = (
(194,630,ls),
(190,639,o),
(181,650,o),
(163,650,c),
(156,589,l),
(431,18,ls),
(436,8,o),
(444,0,o),
(458,0,c),
(464,67,l)
);
},
{
closed = 1;
nodes = (
(164,650,l),
(142,650,o),
(137,639,o),
(134,623,cs),
(29,27,ls),
(26,12,o),
(34,0,o),
(52,0,cs),
(74,0,o),
(78,16,o),
(80,28,cs),
(183,612,l)
);
},
{
closed = 1;
nodes = (
(479,0,o),
(481,15,o),
(483,25,cs),
(587,619,ls),
(590,637,o),
(587,650,o),
(568,650,cs),
(548,650,o),
(541,639,o),
(538,623,cs),
(436,48,l),
(457,0,l)
);
}
);
width = 564;
},
{
layerId = m002;
shapes = (
{
closed = 1;
nodes = (
(241,620,ls),
(231,641,o),
(214,650,o),
(188,650,c),
(158,569,l),
(420,28,ls),
(429,10,o),
(443,0,o),
(469,0,c),
(480,126,l)
);
},
{
closed = 1;
nodes = (
(191,650,l),
(159,650,o),
(142,636,o),
(137,609,cs),
(39,49,ls),
(34,21,o),
(53,0,o),
(82,0,cs),
(115,0,o),
(135,19,o),
(139,42,cs),
(236,592,l)
);
},
{
closed = 1;
nodes = (
(502,0,o),
(512,19,o),
(516,40,cs),
(613,597,ls),
(619,629,o),
(603,653,o),
(570,653,cs),
(542,653,o),
(519,637,o),
(514,609,cs),
(426,105,l),
(468,0,l)
);
}
);
width = 599;
}
);
unicode = 78;
},
{
glyphname = O;
lastChange = "2022-02-26 16:51:20 +0000";
layers = (
{
layerId = m01;
shapes = (
{
closed = 1;
nodes = (
(358,-4,o),
(547,256,o),
(562,438,cs),
(572,551,o),
(516,650,o),
(368,650,cs),
(225,650,o),
(140,557,o),
(98,409,cs),
(87,369,o),
(78,322,o),
(74,278,cs),
(62,143,o),
(94,-4,o),
(207,-4,cs)
);
},
{
closed = 1;
nodes = (
(133,47,o),
(116,178,o),
(123,268,cs),
(127,310,o),
(137,355,o),
(146,388,cs),
(184,526,o),
(246,600,o),
(363,600,cs),
(502,600,o),
(518,495,o),
(512,432,cs),
(497,269,o),
(301,47,o),
(206,47,cs)
);
}
);
width = 557;
},
{
layerId = m002;
shapes = (
{
closed = 1;
nodes = (
(385,-4,o),
(559,251,o),
(590,429,cs),
(611,548,o),
(536,652,o),
(383,652,cs),
(235,652,o),
(147,555,o),
(105,410,cs),
(94,370,o),
(85,325,o),
(82,283,cs),
(70,150,o),
(95,-4,o),
(225,-4,cs)
);
},
{
closed = 1;
nodes = (
(184,86,o),
(174,187,o),
(181,269,cs),
(184,308,o),
(192,348,o),
(200,378,cs),
(235,505,o),
(281,562,o),
(378,562,cs),
(487,562,o),
(499,484,o),
(489,427,cs),
(463,281,o),
(308,86,o),
(231,86,cs)
);
}
);
width = 595;
}
);
unicode = 79;
},
{
glyphname = P;
lastChange = "2022-02-26 19:36:14 +0000";
layers = (
{
layerId = m01;
shapes = (
{
closed = 1;
nodes = (
(298,324,o),
(477,321,o),
(477,476,cs),
(477,597,o),
(367,650,o),
(168,650,c),
(168,600,l),
(350,600,o),
(427,558,o),
(427,481,cs),
(427,367,o),
(259,374,o),
(133,374,c),
(126,324,l)
);
},
{
closed = 1;
nodes = (
(187,637,o),
(185,650,o),
(164,650,cs),
(142,650,o),
(137,639,o),
(134,623,cs),
(29,27,ls),
(26,12,o),
(34,-4,o),
(52,-4,cs),
(74,-4,o),
(78,15,o),
(80,25,cs),
(184,619,ls)
);
}
);
width = 467;
},
{
layerId = m002;
shapes = (
{
closed = 1;
nodes = (
(292,303,o),
(510,289,o),
(510,467,cs),
(510,602,o),
(397,656,o),
(186,652,c),
(186,561,l),
(370,564,o),
(413,535,o),
(413,472,cs),
(413,382,o),
(263,394,o),
(139,393,c),
(127,302,l)
);
},
{
closed = 1;
nodes = (
(241,639,o),
(215,652,o),
(190,652,cs),
(160,652,o),
(142,637,o),
(137,609,cs),
(38,48,ls),
(33,21,o),
(52,-6,o),
(85,-6,cs),
(119,-6,o),
(132,17,o),
(136,39,cs),
(234,597,ls)
);
}
);
width = 512;
}
);
metricLeft = N;
metricRight = O;
unicode = 80;
},
{
glyphname = Q;
lastChange = "2022-02-26 19:36:14 +0000";
layers = (
{
layerId = m01;
shapes = (
{
closed = 1;
nodes = (
(359,-4,o),
(544,230,o),
(560,416,cs),
(571,540,o),
(507,650,o),
(367,650,cs),
(225,650,o),
(142,563,o),
(99,411,cs),
(87,369,o),
(78,322,o),
(74,278,cs),
(62,142,o),
(94,-4,o),
(211,-4,cs)
);
},
{
closed = 1;
nodes = (
(298,165,o),
(280,172,o),
(266,160,cs),
(254,151,o),
(256,139,o),
(267,123,cs),
(371,-29,ls),
(381,-44,o),
(397,-52,o),
(410,-45,cs),
(424,-37,o),
(424,-18,o),
(416,-6,cs),
(308,151,ls)
);
},
{
closed = 1;
nodes = (
(127,47,o),
(115,173,o),
(123,264,cs),
(127,310,o),
(137,355,o),
(147,392,cs),
(185,526,o),
(241,600,o),
(359,600,cs),
(484,600,o),
(518,500,o),
(510,415,cs),
(495,255,o),
(319,47,o),
(211,47,cs)
);
}
);
width = 559;
},
{
layerId = m002;
shapes = (
{
closed = 1;
nodes = (
(390,-4,o),
(555,224,o),
(587,407,cs),
(610,536,o),
(529,651,o),
(381,651,cs),
(233,651,o),
(147,559,o),
(105,410,cs),
(94,370,o),
(84,324,o),
(81,281,cs),
(69,148,o),
(101,-4,o),
(234,-4,cs)
);
},
{
closed = 1;
nodes = (
(326,199,o),
(291,204,o),
(273,189,cs),
(254,174,o),
(248,149,o),
(266,122,cs),
(364,-21,ls),
(382,-47,o),
(414,-55,o),
(435,-42,cs),
(461,-28,o),
(463,1,o),
(447,25,cs),
(347,172,l)
);
},
{
closed = 1;
nodes = (
(178,84,o),
(172,181,o),
(180,264,cs),
(183,306,o),
(192,347,o),
(201,381,cs),
(236,504,o),
(276,561,o),
(373,561,cs),
(472,561,o),
(500,486,o),
(486,410,cs),
(460,266,o),
(323,84,o),
(234,84,cs)
);
}
);
width = 596;
}
);
metricLeft = O;
metricRight = O;
unicode = 81;
},
{
glyphname = R;
lastChange = "2022-02-26 19:36:14 +0000";
layers = (
{
layerId = m01;
shapes = (
{
closed = 1;
nodes = (
(286,303,o),
(449,321,o),
(476,476,cs),
(497,597,o),
(366,650,o),
(168,650,c),
(168,600,l),
(342,600,o),
(440,560,o),
(426,481,cs),
(406,368,o),
(262,354,o),
(122,354,c),
(115,303,l)
);
},
{
closed = 1;
nodes = (
(100,341,l),
(348,18,ls),
(358,5,o),
(366,0,o),
(374,0,cs),
(384,0,o),
(394,7,o),
(397,15,cs),
(400,23,o),
(400,34,o),
(394,42,cs),
(168,334,l)
);
},
{
closed = 1;
nodes = (
(187,637,o),
(185,650,o),
(164,650,cs),
(142,650,o),
(137,639,o),
(134,623,cs),
(30,33,ls),
(27,16,o),
(34,0,o),
(52,0,cs),
(74,0,o),
(78,16,o),
(81,31,cs),
(184,619,ls)
);
}
);
width = 481;
},
{
layerId = m002;
shapes = (
{
closed = 1;
nodes = (
(290,273,o),
(479,289,o),
(511,467,cs),
(535,602,o),
(398,650,o),
(188,650,c),
(188,559,l),
(367,562,o),
(425,533,o),
(414,470,cs),
(399,382,o),
(266,358,o),
(141,358,c),
(137,273,l)
);
},
{
closed = 1;
nodes = (
(133,318,l),
(345,23,ls),
(359,3,o),
(377,0,o),
(390,0,cs),
(409,0,o),
(430,11,o),
(435,29,cs),
(439,42,o),
(440,57,o),
(431,69,cs),
(252,318,l)
);
},
{
closed = 1;
nodes = (
(243,638,o),
(220,650,o),
(192,650,cs),
(161,650,o),
(142,637,o),
(137,609,cs),
(39,54,ls),
(34,24,o),
(46,0,o),
(78,0,cs),
(109,0,o),
(135,23,o),
(140,53,cs),
(236,597,ls)
);
}
);
width = 520;
}
);
metricLeft = N;
metricRight = N;
unicode = 82;
},
{
glyphname = S;
lastChange = "2022-02-26 19:36:14 +0000";
layers = (
{
layerId = m01;
shapes = (
{
closed = 1;
nodes = (
(269,0,o),
(443,50,o),
(443,184,cs),
(443,269,o),
(373,318,o),
(355,330,cs),
(228,419,o),
(163,452,o),
(163,497,cs),
(163,555,o),
(271,600,o),
(348,600,cs),
(503,600,ls),
(516,600,o),
(526,613,o),
(526,626,cs),
(526,650,o),
(506,650,o),
(502,650,cs),
(349,650,ls),
(220,650,o),
(112,576,o),
(112,493,cs),
(112,422,o),
(190,385,o),
(314,296,cs),
(340,278,o),
(393,241,o),
(393,183,cs),
(393,83,o),
(236,50,o),
(171,50,cs),
(51,50,ls),
(38,50,o),
(27,37,o),
(27,24,cs),
(27,0,o),
(49,0,o),
(51,0,cs),
(171,0,ls)
);
}
);
width = 487;
},
{
layerId = m002;
shapes = (
{
closed = 1;
nodes = (
(297,0,o),
(479,50,o),
(479,192,cs),
(479,283,o),
(404,335,o),
(385,348,cs),
(266,431,o),
(218,457,o),
(218,487,cs),
(218,527,o),
(298,559,o),
(365,559,cs),
(508,559,ls),
(534,559,o),
(555,580,o),
(555,605,cs),
(555,641,o),
(525,650,o),
(507,650,cs),
(366,650,ls),
(232,650,o),
(118,575,o),
(118,483,cs),
(118,403,o),
(202,363,o),
(319,280,cs),
(341,264,o),
(379,235,o),
(379,192,cs),
(379,115,o),
(256,91,o),
(198,91,cs),
(86,91,ls),
(60,91,o),
(38,69,o),
(38,44,cs),
(38,8,o),
(72,0,o),
(86,0,cs),
(198,0,ls)
);
}
);
width = 530;
}
);
metricLeft = O;
metricRight = O;
unicode = 83;
},
{
glyphname = T;
lastChange = "2022-02-26 19:36:14 +0000";
layers = (
{
layerId = m01;
shapes = (
{
closed = 1;
nodes = (
(272,623,l),
(167,27,l),
(164,12,o),
(172,0,o),
(190,0,cs),
(212,0,o),
(215,15,o),
(217,25,c),
(321,619,l)
);
},
{
closed = 1;
nodes = (
(480,600,o),
(486,613,o),
(486,625,cs),
(486,637,o),
(480,650,o),
(460,650,cs),
(136,650,ls),
(116,650,o),
(110,637,o),
(110,625,cs),
(110,613,o),
(116,600,o),
(136,600,cs),
(460,600,ls)
);
}
);
width = 462;
},
{
layerId = m002;
shapes = (
{
closed = 1;
nodes = (
(288,608,l),
(189,49,ls),
(184,21,o),
(204,-2,o),
(235,-2,cs),
(268,-2,o),
(282,18,o),
(286,39,cs),
(384,598,l)
);
},
{
closed = 1;
nodes = (
(521,563,o),
(539,583,o),
(539,607,cs),
(539,633,o),
(519,653,o),
(489,653,cs),
(185,653,ls),
(155,653,o),
(135,633,o),
(135,607,cs),
(135,583,o),
(153,563,o),
(185,563,cs),
(489,563,ls)
);
}
);
width = 523;
}
);
metricRight = N;
unicode = 84;
},
{
glyphname = U;
lastChange = "2022-02-26 19:36:14 +0000";
layers = (
{
layerId = m01;
shapes = (
{
closed = 1;
nodes = (
(529,520,l),
(501,520,l),
(498,509,l),
(476,415,o),
(433,350,o),
(415,320,cs),
(352,217,o),
(208,45,o),
(131,45,cs),
(84,45,o),
(94,116,o),
(106,180,cs),
(186,622,ls),
(189,636,o),
(180,649,o),
(165,650,cs),
(149,650,o),
(138,636,o),
(135,620,cs),
(56,183,ls),
(32,52,o),
(64,-4,o),
(123,-4,cs),
(200,-4,o),
(332,104,o),
(442,269,c),
(502,381,l)
);
},
{
closed = 1;
nodes = (
(571,639,o),
(564,650,o),
(544,650,cs),
(526,650,o),
(519,638,o),
(517,626,cs),
(412,27,ls),
(409,8,o),
(421,-1,o),
(435,-1,cs),
(447,-1,o),
(459,7,o),
(462,22,cs),
(568,624,ls)
);
}
);
width = 544;
},
{
layerId = m002;
shapes = (
{
closed = 1;
nodes = (
(569,543,l),
(491,543,l),
(483,510,ls),
(462,423,o),
(429,376,o),
(409,349,cs),
(356,277,o),
(217,86,o),
(170,86,cs),
(151,86,o),
(153,125,o),
(164,185,cs),
(238,600,ls),
(243,629,o),
(222,650,o),
(193,650,cs),
(161,651,o),
(141,624,o),
(138,606,cs),
(64,195,ls),
(39,57,o),
(81,-4,o),
(154,-4,cs),
(239,-4,o),
(357,108,o),
(451,247,c),
(535,385,l)
);
},
{
closed = 1;
nodes = (
(604,630,o),
(586,650,o),
(552,650,cs),
(524,650,o),
(503,635,o),
(499,612,cs),
(401,49,ls),
(395,16,o),
(419,0,o),
(447,0,cs),
(470,0,o),
(496,12,o),
(500,37,cs),
(599,602,ls)
);
}
);
width = 583;
}
);
metricLeft = N;
metricRight = N;
unicode = 85;
},
{
glyphname = V;
lastChange = "2022-02-26 19:36:14 +0000";
layers = (
{
layerId = m01;
shapes = (
{
closed = 1;
nodes = (
(230,0,o),
(234,11,o),
(241,25,cs),
(550,618,ls),
(560,638,o),
(548,650,o),
(533,650,cs),
(514,650,o),
(506,642,o),
(497,625,cs),
(192,39,l),
(211,0,l)
);
},
{
closed = 1;
nodes = (
(185,626,ls),
(184,636,o),
(180,650,o),
(158,650,c),
(140,650,o),
(134,639,o),
(135,624,cs),
(184,28,ls),
(185,15,o),
(193,0,o),
(212,0,c),
(233,37,l)
);
}
);
width = 529;
},
{
layerId = m002;
shapes = (
{
closed = 1;
nodes = (
(262,-2,o),
(274,15,o),
(284,34,cs),
(575,591,ls),
(593,625,o),
(570,650,o),
(538,650,cs),
(509,650,o),
(490,638,o),
(480,618,cs),
(189,59,l),
(233,-2,l)
);
},
{
closed = 1;
nodes = (
(234,610,ls),
(232,633,o),
(215,650,o),
(183,650,cs),
(154,650,o),
(135,634,o),
(137,604,cs),
(183,44,ls),
(185,19,o),
(204,-1,o),
(234,-2,c),
(278,64,l)
);
}
);
width = 564;
}
);
metricLeft = N;
metricRight = N;
unicode = 86;
},
{
glyphname = W;
lastChange = "2022-02-26 19:36:14 +0000";
layers = (
{
layerId = m01;
shapes = (
{
closed = 1;
nodes = (
(601,0,o),
(606,11,o),
(613,25,cs),
(922,618,ls),
(927,627,o),
(927,635,o),
(924,640,cs),
(920,647,o),
(912,650,o),
(905,650,cs),
(897,650,o),
(891,649,o),
(887,646,cs),
(877,640,o),
(873,632,o),
(869,625,cs),
(560,31,l),
(583,0,l)
);
},
{
closed = 1;
nodes = (
(185,626,ls),
(184,636,o),
(180,650,o),
(158,650,c),
(140,650,o),
(134,639,o),
(135,624,cs),
(184,28,ls),
(185,12,o),
(196,0,o),
(217,0,c),
(233,37,l)
);
},
{
closed = 1;
nodes = (
(230,0,o),
(237,15,o),
(243,26,cs),
(552,619,l),
(529,650,l),
(513,650,o),
(503,633,o),
(499,626,cs),
(194,40,l),
(216,0,l)
);
},
{
closed = 1;
nodes = (
(558,626,ls),
(557,636,o),
(553,650,o),
(528,650,c),
(509,617,l),
(557,19,ls),
(558,6,o),
(566,0,o),
(584,0,c),
(607,30,l)
);
}
);
width = 901;
},
{
layerId = m002;
shapes = (
{
closed = 1;
nodes = (
(611,0,o),
(622,12,o),
(633,33,cs),
(925,591,ls),
(932,604,o),
(931,616,o),
(925,628,cs),
(919,644,o),
(901,650,o),
(886,650,cs),
(872,650,o),
(859,646,o),
(851,640,cs),
(841,633,o),
(834,625,o),
(829,615,cs),
(546,74,l),
(583,0,l)
);
},
{
closed = 1;
nodes = (
(234,610,ls),
(232,633,o),
(216,650,o),
(184,650,cs),
(155,650,o),
(135,634,o),
(137,604,cs),
(183,44,ls),
(185,15,o),
(204,0,o),
(238,0,c),
(277,75,l)
);
},
{
closed = 1;
nodes = (
(268,0,o),
(275,14,o),
(285,34,cs),
(570,578,l),
(531,650,l),
(497,650,o),
(488,631,o),
(482,619,cs),
(199,75,l),
(237,0,l)
);
},
{
closed = 1;
nodes = (
(584,610,ls),
(582,635,o),
(565,650,o),
(530,650,c),
(489,582,l),
(534,32,ls),
(535,15,o),
(563,0,o),
(582,0,c),
(628,74,l)
);
}
);
width = 913;
}
);
metricLeft = N;
metricRight = N;
unicode = 87;
},
{
glyphname = X;
lastChange = "2022-02-26 19:36:14 +0000";
layers = (
{
layerId = m01;
shapes = (
{
closed = 1;
nodes = (
(585,624,o),
(582,638,o),
(573,645,cs),
(563,653,o),
(546,652,o),
(533,637,cs),
(35,38,ls),
(25,26,o),
(28,13,o),
(37,6,cs),
(48,-3,o),
(66,-4,o),
(78,11,cs),
(573,609,ls)
);
},
{
closed = 1;
nodes = (
(180,650,o),
(163,654,o),
(151,649,cs),
(139,645,o),
(132,631,o),
(141,613,cs),
(424,19,ls),
(433,0,o),
(451,-3,o),
(464,3,cs),
(474,8,o),
(481,20,o),
(474,35,cs),
(189,631,ls)
);
}
);
width = 559;
},
{
layerId = m002;
shapes = (
{
closed = 1;
nodes = (
(613,602,o),
(606,623,o),
(588,639,cs),
(570,655,o),
(537,656,o),
(516,631,cs),
(49,69,ls),
(31,48,o),
(34,29,o),
(52,13,cs),
(71,-3,o),
(108,-8,o),
(128,16,cs),
(593,578,ls)
);
},
{
closed = 1;
nodes = (
(221,651,o),
(192,654,o),
(169,647,cs),
(143,637,o),
(131,617,o),
(146,586,cs),
(411,28,ls),
(425,-1,o),
(460,-6,o),
(483,6,cs),
(504,17,o),
(516,36,o),
(504,61,cs),
(235,623,ls)
);
}
);
width = 592;
}
);
metricLeft = N;
metricRight = N;
unicode = 88;
},
{
glyphname = Y;
lastChange = "2022-02-26 19:36:14 +0000";
layers = (
{
layerId = m01;
shapes = (
{
closed = 1;
nodes = (
(549,609,l),
(555,616,o),
(557,623,o),
(557,629,cs),
(557,635,o),
(554,641,o),
(548,645,cs),
(541,650,o),
(534,651,o),
(528,650,cs),
(521,648,o),
(514,643,o),
(509,637,c),
(255,333,l),
(285,291,l)
);
},
{
closed = 1;
nodes = (
(262,350,l),
(205,27,l),
(202,12,o),
(210,0,o),
(228,0,cs),
(250,0,o),
(253,15,o),
(255,25,c),
(312,350,l)
);
},
{
closed = 1;
nodes = (
(297,345,l),
(161,630,l),
(157,638,o),
(152,645,o),
(145,648,cs),
(140,651,o),
(133,651,o),
(125,648,cs),
(117,645,o),
(112,640,o),
(111,634,cs),
(110,628,o),
(111,621,o),
(115,613,c),
(261,307,l)
);
}
);
width = 532;
},
{
layerId = m002;
shapes = (
{
closed = 1;
nodes = (
(594,578,ls),
(603,589,o),
(606,599,o),
(606,611,cs),
(606,623,o),
(600,634,o),
(589,642,cs),
(577,653,o),
(559,653,o),
(549,653,c),
(538,650,o),
(524,642,o),
(516,632,cs),
(280,350,l),
(324,254,l)
);
},
{
closed = 1;
nodes = (
(279,371,l),
(223,49,ls),
(218,21,o),
(239,-2,o),
(271,-2,cs),
(305,-2,o),
(319,19,o),
(323,40,cs),
(380,371,l)
);
},
{
closed = 1;
nodes = (
(365,340,l),
(231,621,ls),
(226,632,o),
(218,642,o),
(205,648,cs),
(196,653,o),
(178,654,o),
(165,649,cs),
(150,643,o),
(139,632,o),
(136,619,cs),
(134,609,o),
(137,599,o),
(142,588,cs),
(295,266,l)
);
}
);
width = 589;
}
);
metricLeft = T;
metricRight = T;
unicode = 89;
},
{
glyphname = Z;
lastChange = "2022-02-26 19:36:14 +0000";
layers = (
{
layerId = m01;
shapes = (
{
closed = 1;
nodes = (
(583,619,o),
(583,630,o),
(579,638,cs),
(574,645,o),
(563,650,o),
(552,650,cs),
(545,650,o),
(537,644,o),
(532,638,c),
(34,39,ls),
(28,32,o),
(26,22,o),
(31,13,cs),
(35,6,o),
(45,0,o),
(62,0,cs),
(68,0,o),
(75,7,o),
(79,11,cs),
(574,608,ls)
);
},
{
closed = 1;
nodes = (
(448,0,ls),
(468,0,o),
(474,13,o),
(474,25,cs),
(474,37,o),
(468,50,o),
(448,50,cs),
(55,50,l),
(55,0,l)
);
},
{
closed = 1;
nodes = (
(556,650,l),
(162,650,ls),
(142,650,o),
(136,637,o),
(136,625,cs),
(136,613,o),
(142,600,o),
(162,600,cs),
(556,600,l)
);
}
);
width = 557;
},
{
layerId = m002;
shapes = (
{
closed = 1;
nodes = (
(609,595,o),
(611,614,o),
(603,629,cs),
(595,644,o),
(578,653,o),
(554,653,cs),
(540,653,o),
(525,644,o),
(516,633,cs),
(48,70,ls),
(37,57,o),
(33,39,o),
(41,23,cs),
(47,11,o),
(65,0,o),
(94,0,cs),
(110,0,o),
(124,10,o),
(130,17,cs),
(594,577,ls)
);
},
{
closed = 1;
nodes = (
(456,0,ls),
(488,0,o),
(506,19,o),
(506,43,cs),
(506,69,o),
(486,90,o),
(456,90,cs),
(91,90,l),
(91,0,l)
);
},
{
closed = 1;
nodes = (
(556,653,l),
(188,653,ls),
(158,653,o),
(138,633,o),
(138,607,cs),
(138,583,o),
(156,563,o),
(188,563,cs),
(556,563,l)
);
}
);
width = 590;
}
);
metricLeft = N;
metricRight = N;
unicode = 90;
},
{
glyphname = a;
lastChange = "2022-02-26 19:36:14 +0000";
layers = (
{
layerId = m01;
shapes = (
{
closed = 1;
nodes = (
(324,301,l),
(296,254,o),
(263,205,o),
(222,153,cs),
(161,77,o),
(124,47,o),
(105,47,cs),
(91,47,o),
(91,62,o),
(91,78,cs),
(91,116,o),
(109,206,o),
(135,245,cs),
(165,290,o),
(216,300,o),
(250,300,cs),
(257,300,o),
(325,300,o),
(344,300,c),
(344,350,l),
(332,350,o),
(270,350,o),
(250,350,cs),
(193,350,o),
(134,333,o),
(96,276,cs),
(64,228,o),
(41,131,o),
(41,73,cs),
(41,22,o),
(61,-4,o),
(94,-4,cs),
(152,-4,o),
(204,50,o),
(264,126,cs),
(294,163,o),
(350,236,o),
(366,291,cs),
(369,301,l)
);
},
{
closed = 1;
nodes = (
(387,329,o),
(387,337,o),
(384,342,cs),
(381,347,o),
(377,350,o),
(370,350,cs),
(324,350,l),
(324,261,l),
(282,23,ls),
(281,15,o),
(282,0,o),
(304,0,cs),
(330,0,o),
(332,18,o),
(333,23,cs),
(385,316,ls)
);
}
);
width = 414;
},
{
layerId = m002;
shapes = (
{
closed = 1;
nodes = (
(303,308,l),
(277,262,o),
(250,215,o),
(212,167,cs),
(159,101,o),
(133,84,o),
(128,84,cs),
(123,84,o),
(122,97,o),
(122,102,cs),
(122,134,o),
(137,194,o),
(156,224,cs),
(178,257,o),
(211,263,o),
(237,263,cs),
(247,263,o),
(284,263,o),
(323,263,c),
(323,350,l),
(292,350,o),
(254,350,o),
(237,350,cs),
(181,350,o),
(119,333,o),
(80,276,cs),
(49,228,o),
(28,139,o),
(28,85,cs),
(28,22,o),
(46,-4,o),
(85,-4,cs),
(149,-4,o),
(215,51,o),
(269,118,cs),
(296,152,o),
(357,257,o),
(363,272,c),
(371,308,l)
);
},
{
closed = 1;
nodes = (
(383,310,o),
(382,320,o),
(379,329,cs),
(373,342,o),
(358,350,o),
(342,350,cs),
(277,350,l),
(277,252,l),
(240,44,ls),
(236,21,o),
(252,0,o),
(284,0,cs),
(320,0,o),
(332,22,o),
(335,37,cs),
(380,295,ls)
);
}
);
width = 398;
}
);
metricLeft = o;
metricRight = n;
unicode = 97;
},
{
glyphname = b;
lastChange = "2022-02-26 19:34:48 +0000";
layers = (
{
layerId = m01;
shapes = (
{
closed = 1;
nodes = (
(82,0,o),
(144,0,o),
(164,0,cs),
(221,0,o),
(280,17,o),
(318,74,cs),
(350,122,o),
(373,219,o),
(373,277,cs),
(373,328,o),
(353,354,o),
(320,354,cs),
(262,354,o),
(208,300,o),
(171,253,cs),
(132,204,o),
(95,152,o),
(70,106,c),
(70,49,l),
(90,49,l),
(118,96,o),
(151,145,o),
(206,214,cs),
(253,273,o),
(290,303,o),
(305,303,cs),
(323,303,o),
(324,289,o),
(324,273,cs),
(324,243,o),
(305,144,o),
(279,105,cs),
(249,60,o),
(203,50,o),
(164,50,cs),
(157,50,o),
(89,50,o),
(81,50,c),
(70,50,l),
(70,0,l)
);
},
{
closed = 1;
nodes = (
(90,89,l),
(184,621,ls),
(187,640,o),
(177,650,o),
(165,650,cs),
(152,650,o),
(138,641,o),
(134,621,cs),
(28,22,ls),
(26,10,o),
(32,0,o),
(44,0,c),
(90,0,l)
);
}
);
width = 409;
},
{
layerId = m002;
shapes = (
{
closed = 1;
nodes = (
(108,0,o),
(162,0,o),
(180,0,cs),
(235,0,o),
(299,16,o),
(336,74,cs),
(367,122,o),
(389,211,o),
(389,265,cs),
(389,331,o),
(361,354,o),
(320,354,cs),
(259,354,o),
(197,291,o),
(166,254,cs),
(128,208,o),
(94,153,o),
(72,112,c),
(72,42,l),
(113,42,l),
(139,88,o),
(175,148,o),
(222,203,cs),
(262,250,o),
(282,266,o),
(289,266,cs),
(294,266,o),
(295,255,o),
(295,246,cs),
(295,222,o),
(282,155,o),
(260,125,cs),
(237,94,o),
(211,87,o),
(180,87,cs),
(174,87,o),
(114,87,o),
(107,87,cs),
(72,87,l),
(72,0,l)
);
},
{
closed = 1;
nodes = (
(128,101,l),
(216,599,ls),
(222,632,o),
(197,650,o),
(170,650,cs),
(150,650,o),
(122,640,o),
(116,607,cs),
(17,44,ls),
(12,18,o),
(30,0,o),
(57,0,cs),
(125,0,l)
);
}
);
width = 412;
}
);
metricLeft = n;
metricRight = o;
unicode = 98;
},
{
glyphname = c;
lastChange = "2022-02-26 15:51:32 +0000";
layers = (
{
layerId = m01;
shapes = (
{
closed = 1;
nodes = (
(134,-4,o),
(187,32,o),
(230,84,cs),
(242,99,o),
(256,117,o),
(267,132,cs),
(273,141,o),
(275,149,o),
(275,155,cs),
(275,168,o),
(263,175,o),
(254,175,cs),
(245,175,o),
(235,171,o),
(227,161,cs),
(218,150,o),
(206,134,o),
(196,121,cs),
(161,77,o),
(128,47,o),
(108,47,cs),
(97,47,o),
(91,59,o),
(91,78,cs),
(91,116,o),
(109,206,o),
(135,245,cs),
(165,290,o),
(216,300,o),
(285,300,cs),
(298,300,o),
(307,314,o),
(307,326,cs),
(307,337,o),
(298,350,o),
(285,350,cs),
(193,350,o),
(134,333,o),
(96,276,cs),
(64,228,o),
(41,131,o),
(41,73,cs),
(41,22,o),
(64,-4,o),
(96,-4,cs)
);
}
);
width = 330;
},
{
layerId = m002;
shapes = (
{
closed = 1;
nodes = (
(145,-4,o),
(198,32,o),
(238,81,cs),
(251,96,o),
(264,114,o),
(273,126,cs),
(280,137,o),
(284,148,o),
(284,157,cs),
(284,182,o),
(261,197,o),
(240,197,cs),
(227,197,o),
(211,189,o),
(199,173,cs),
(190,162,o),
(181,150,o),
(173,139,cs),
(144,102,o),
(132,85,o),
(122,85,cs),
(114,85,o),
(114,99,o),
(114,104,cs),
(114,136,o),
(131,197,o),
(151,227,cs),
(172,260,o),
(210,265,o),
(268,265,cs),
(293,265,o),
(312,285,o),
(312,308,cs),
(312,329,o),
(293,350,o),
(268,350,cs),
(182,350,o),
(119,334,o),
(80,276,cs),
(49,228,o),
(28,139,o),
(28,85,cs),
(28,23,o),
(63,-4,o),
(101,-4,cs)
);
}
);
width = 324;
}
);
metricLeft = o;
metricRight = o;
unicode = 99;
},
{
glyphname = d;
lastChange = "2022-02-26 19:35:11 +0000";
layers = (
{
layerId = m01;
shapes = (
{
closed = 1;
nodes = (
(379,59,o),
(371,48,o),
(364,48,cs),
(344,48,o),
(352,124,o),
(353,132,cs),
(440,623,ls),
(443,642,o),
(433,650,o),
(420,650,cs),
(407,650,o),
(392,640,o),
(389,623,cs),
(304,146,ls),
(291,78,o),
(295,0,o),
(365,0,cs),
(398,0,o),
(411,17,o),
(432,50,cs),
(451,79,o),
(454,86,o),
(454,94,cs),
(454,109,o),
(442,116,o),
(431,116,cs),
(419,116,o),
(411,108,o),
(408,104,cs),
(393,81,ls)
);
},
{
closed = 1;
nodes = (
(324,300,l),
(295,253,o),
(262,204,o),
(224,156,cs),
(162,76,o),
(124,46,o),
(105,46,cs),
(91,46,o),
(91,61,o),
(91,77,cs),
(91,115,o),
(109,205,o),
(135,244,cs),
(165,289,o),
(216,299,o),
(250,299,cs),
(257,299,o),
(325,299,o),
(333,299,c),
(344,299,l),
(344,349,l),
(332,349,o),
(270,349,o),
(250,349,cs),
(193,349,o),
(134,332,o),
(96,275,cs),
(64,227,o),
(41,130,o),
(41,72,cs),
(41,21,o),
(61,-4,o),
(94,-4,cs),
(152,-4,o),
(204,49,o),
(252,109,cs),
(294,162,o),
(345,235,o),
(365,289,cs),
(369,300,l)
);
}
);
width = 484;
},
{
layerId = m002;
shapes = (
{
closed = 1;
nodes = (
(390,104,o),
(383,99,o),
(375,99,cs),
(367,99,o),
(365,113,o),
(371,146,cs),
(452,602,ls),
(458,635,o),
(436,650,o),
(408,650,cs),
(385,650,o),
(356,637,o),
(351,606,cs),
(286,238,ls),
(282,217,o),
(247,0,o),
(366,0,cs),
(406,0,o),
(432,21,o),
(462,57,cs),
(482,81,o),
(483,100,o),
(483,113,cs),
(483,140,o),
(463,153,o),
(441,153,cs),
(429,153,o),
(417,142,o),
(408,129,cs),
(393,108,ls)
);
},
{
closed = 1;
nodes = (
(303,307,l),
(275,261,o),
(243,205,o),
(208,162,cs),
(165,109,o),
(136,84,o),
(128,84,cs),
(122,84,o),
(122,101,o),
(122,106,cs),
(122,132,o),
(137,197,o),
(157,226,cs),
(179,258,o),
(213,263,o),
(245,263,cs),
(251,263,o),
(311,263,o),
(318,263,cs),
(352,263,l),
(353,350,l),
(330,350,o),
(265,350,o),
(246,350,cs),
(181,350,o),
(120,334,o),
(81,277,cs),
(50,229,o),
(27,138,o),
(27,84,cs),
(27,21,o),
(52,-4,o),
(91,-4,cs),
(154,-4,o),
(213,49,o),
(263,110,cs),
(301,156,o),
(362,239,o),
(371,269,cs),
(382,307,l)
);
}
);
width = 496;
}
);
metricLeft = o;
unicode = 100;
},
{
glyphname = e;
lastChange = "2022-02-26 19:36:14 +0000";
layers = (
{
layerId = m01;
shapes = (
{
closed = 1;
nodes = (
(87,115,o),
(149,147,o),
(187,168,cs),
(227,191,o),
(302,230,o),
(302,291,cs),
(302,332,o),
(267,354,o),
(216,354,cs),
(197,354,o),
(148,350,o),
(104,284,cs),
(75,240,o),
(48,167,o),
(44,107,cs),
(37,19,o),
(83,-4,o),
(131,-4,cs),
(204,-4,o),
(242,50,o),
(253,64,cs),
(275,93,o),
(270,106,o),
(260,113,cs),
(249,121,o),
(234,122,o),
(215,97,cs),
(204,84,o),
(178,45,o),
(132,45,cs),
(100,45,o),
(93,64,o),
(95,98,cs),
(98,142,o),
(116,216,o),
(145,259,cs),
(169,294,o),
(197,303,o),
(222,303,cs),
(240,303,o),
(251,296,o),
(251,288,cs),
(251,267,o),
(208,239,o),
(159,210,cs),
(134,196,o),
(106,181,o),
(84,169,c),
(72,108,l)
);
}
);
width = 332;
},
{
layerId = m002;
shapes = (
{
closed = 1;
nodes = (
(133,104,o),
(189,132,o),
(221,151,cs),
(257,171,o),
(316,216,o),
(326,271,cs),
(335,321,o),
(285,354,o),
(223,354,cs),
(198,354,o),
(129,354,o),
(83,286,cs),
(56,243,o),
(34,173,o),
(30,117,cs),
(23,23,o),
(93,-5,o),
(145,-5,cs),
(223,-5,o),
(272,47,o),
(280,58,cs),
(305,90,o),
(293,117,o),
(279,128,cs),
(259,142,o),
(233,135,o),
(212,110,cs),
(200,96,o),
(177,80,o),
(152,80,cs),
(131,80,o),
(129,102,o),
(129,118,cs),
(129,155,o),
(137,205,o),
(159,239,cs),
(176,265,o),
(187,274,o),
(198,280,cs),
(208,285,o),
(230,291,o),
(236,276,cs),
(242,261,o),
(219,240,o),
(178,216,cs),
(151,200,o),
(105,175,o),
(87,166,c),
(74,77,l)
);
}
);
width = 344;
}
);
metricLeft = o;
metricRight = o;
unicode = 101;
},
{
glyphname = f;
lastChange = "2022-02-26 19:36:14 +0000";
layers = (
{
layerId = m01;
shapes = (
{
closed = 1;
nodes = (
(270,558,o),
(299,600,o),
(332,600,cs),
(426,600,ls),
(443,600,o),
(451,614,o),
(451,625,cs),
(451,635,o),
(443,650,o),
(426,650,cs),
(332,650,ls),
(282,650,o),
(230,616,o),
(214,527,cs),
(126,28,ls),
(124,16,o),
(133,0,o),
(151,0,cs),
(168,0,o),
(175,15,o),
(177,27,cs),
(263,518,ls)
);
},
{
closed = 1;
nodes = (
(323,305,o),
(329,316,o),
(329,328,cs),
(329,340,o),
(323,350,o),
(303,350,cs),
(109,350,ls),
(89,350,o),
(83,340,o),
(83,328,cs),
(83,316,o),
(89,305,o),
(109,305,cs),
(303,305,ls)
);
}
);
width = 358;
},
{
layerId = m002;
shapes = (
{
closed = 1;
nodes = (
(279,534,o),
(295,560,o),
(312,560,cs),
(400,560,ls),
(429,560,o),
(449,584,o),
(449,607,cs),
(449,629,o),
(429,650,o),
(400,650,cs),
(312,650,ls),
(254,650,o),
(192,614,o),
(175,519,cs),
(92,49,ls),
(88,26,o),
(108,-2,o),
(142,-2,cs),
(169,-2,o),
(188,18,o),
(192,42,cs),
(273,502,ls)
);
},
{
closed = 1;
nodes = (
(312,265,o),
(331,281,o),
(331,307,cs),
(331,331,o),
(314,350,o),
(282,350,cs),
(99,350,ls),
(68,350,o),
(50,331,o),
(50,307,cs),
(50,283,o),
(68,265,o),
(99,265,cs),
(282,265,ls)
);
}
);
width = 348;
}
);
metricLeft = "=t+1";
unicode = 102;
},
{
glyphname = g;
lastChange = "2022-02-26 19:36:14 +0000";
layers = (
{
layerId = m01;
shapes = (
{
closed = 1;
nodes = (
(390,343,o),
(379,350,o),
(362,350,c),
(337,350,l),
(313,198,l),
(278,1,ls),
(266,-67,o),
(259,-138,o),
(230,-185,cs),
(212,-215,o),
(185,-236,o),
(139,-241,cs),
(116,-244,o),
(24,-250,o),
(9,-250,cs),
(-12,-250,o),
(-25,-262,o),
(-25,-276,cs),
(-25,-291,o),
(-12,-300,o),
(13,-300,cs),
(31,-300,o),
(120,-295,o),
(153,-290,cs),
(207,-282,o),
(247,-254,o),
(272,-212,cs),
(305,-159,o),
(314,-83,o),
(329,1,cs),
(387,326,ls)
);
},
{
closed = 1;
nodes = (
(324,301,l),
(295,254,o),
(262,205,o),
(224,157,cs),
(162,77,o),
(124,47,o),
(105,47,cs),
(91,47,o),
(91,62,o),
(91,78,cs),
(91,116,o),
(109,206,o),
(135,245,cs),
(165,290,o),
(216,300,o),
(250,300,cs),
(257,300,o),
(325,300,o),
(333,300,c),
(344,300,l),
(344,302,o),
(344,347,o),
(344,350,c),
(332,350,o),
(270,350,o),
(250,350,cs),
(193,350,o),
(134,333,o),
(96,276,cs),
(64,228,o),
(41,131,o),
(41,73,cs),
(41,22,o),
(61,-4,o),
(94,-4,cs),
(156,-4,o),
(204,50,o),
(238,93,cs),
(294,163,o),
(342,240,o),
(365,292,cs),
(369,301,l)
);
}
);
width = 414;
},
{
layerId = m002;
shapes = (
{
closed = 1;
nodes = (
(410,335,o),
(384,350,o),
(357,350,cs),
(312,350,l),
(286,192,l),
(253,6,ls),
(242,-58,o),
(236,-122,o),
(212,-161,cs),
(196,-187,o),
(180,-199,o),
(145,-203,cs),
(123,-206,o),
(34,-209,o),
(21,-209,cs),
(-11,-209,o),
(-36,-229,o),
(-36,-255,cs),
(-36,-279,o),
(-15,-300,o),
(25,-300,cs),
(43,-300,o),
(133,-294,o),
(165,-289,cs),
(223,-281,o),
(268,-253,o),
(294,-210,cs),
(328,-154,o),
(337,-80,o),
(351,-2,cs),
(406,305,l)
);
},
{
closed = 1;
nodes = (
(306,308,l),
(278,262,o),
(252,217,o),
(218,173,cs),
(182,127,o),
(139,84,o),
(129,84,cs),
(124,84,o),
(123,99,o),
(123,108,cs),
(123,123,o),
(138,197,o),
(160,228,cs),
(182,260,o),
(214,263,o),
(251,263,cs),
(257,263,o),
(317,263,o),
(324,263,cs),
(358,263,l),
(358,288,o),
(358,328,o),
(358,350,c),
(335,350,o),
(270,350,o),
(251,350,cs),
(195,350,o),
(123,336,o),
(84,279,cs),
(53,231,o),
(29,151,o),
(29,85,cs),
(29,22,o),
(62,-4,o),
(101,-4,cs),
(169,-4,o),
(221,54,o),
(251,92,cs),
(302,156,o),
(340,228,o),
(367,271,cs),
(390,308,l)
);
}
);
width = 422;
}
);
metricLeft = o;
metricRight = n;
unicode = 103;
},
{
glyphname = h;
lastChange = "2022-02-26 19:35:26 +0000";
layers = (
{
layerId = m01;
shapes = (
{
closed = 1;
nodes = (
(188,641,o),
(177,650,o),
(164,650,cs),
(151,650,o),
(137,641,o),
(134,623,cs),
(28,23,ls),
(25,8,o),
(36,0,o),
(49,0,cs),
(62,0,o),
(76,7,o),
(79,23,cs),
(185,623,ls)
);
},
{
closed = 1;
nodes = (
(384,291,o),
(373,354,o),
(316,354,cs),
(222,354,o),
(126,185,o),
(68,98,c),
(76,14,l),
(145,129,o),
(257,305,o),
(308,305,cs),
(333,305,o),
(327,261,o),
(322,234,cs),
(283,23,ls),
(282,15,o),
(283,0,o),
(305,0,c),
(331,0,o),
(333,18,o),
(334,23,cs),
(373,234,ls)
);
}
);
width = 417;
},
{
layerId = m002;
shapes = (
{
closed = 1;
nodes = (
(223,633,o),
(198,653,o),
(171,653,cs),
(147,653,o),
(122,637,o),
(117,609,cs),
(18,45,ls),
(13,17,o),
(35,-2,o),
(62,-2,cs),
(86,-2,o),
(113,11,o),
(118,37,cs),
(217,601,ls)
);
},
{
closed = 1;
nodes = (
(407,287,o),
(383,355,o),
(315,355,cs),
(211,355,o),
(141,243,o),
(92,171,c),
(117,33,l),
(173,141,o),
(270,271,o),
(292,271,cs),
(304,271,o),
(300,256,o),
(295,231,cs),
(261,45,ls),
(257,21,o),
(273,-1,o),
(305,-1,cs),
(341,-1,o),
(358,22,o),
(361,37,cs),
(395,223,ls)
);
}
);
width = 426;
}
);
metricLeft = n;
metricRight = n;
unicode = 104;
},
{
glyphname = i;
lastChange = "2022-02-26 19:36:14 +0000";
layers = (
{
layerId = m01;
shapes = (
{
closed = 1;
nodes = (
(138,340,o),
(126,350,o),
(114,350,cs),
(101,350,o),
(86,341,o),
(83,323,cs),
(31,28,ls),
(28,9,o),
(39,0,o),
(52,0,cs),
(64,0,o),
(79,10,o),
(82,28,cs),
(134,320,ls)
);
},
{
closed = 1;
nodes = (
(149,441,o),
(162,454,o),
(162,468,cs),
(162,483,o),
(148,494,o),
(134,494,cs),
(118,494,o),
(107,481,o),
(107,468,cs),
(107,454,o),
(119,441,o),
(134,441,cs)
);
}
);
width = 165;
},
{
layerId = m002;
shapes = (
{
closed = 1;
nodes = (
(169,327,o),
(142,350,o),
(117,350,cs),
(93,350,o),
(68,332,o),
(63,305,cs),
(18,49,ls),
(13,19,o),
(36,0,o),
(62,0,cs),
(84,0,o),
(113,10,o),
(118,37,cs),
(163,294,ls)
);
},
{
closed = 1;
nodes = (
(172,417,o),
(195,439,o),
(195,466,cs),
(195,495,o),
(171,515,o),
(145,515,cs),
(118,515,o),
(97,493,o),
(97,466,cs),
(97,439,o),
(119,417,o),
(145,417,cs)
);
}
);
width = 183;
}
);
metricLeft = n;
metricRight = n;
unicode = 105;
},
{
glyphname = j;
lastChange = "2022-02-26 19:36:14 +0000";
layers = (
{
layerId = m01;
shapes = (
{
closed = 1;
nodes = (
(137,338,o),
(124,350,o),
(110,350,cs),
(98,350,o),
(84,341,o),
(80,320,cs),
(25,-3,ls),
(13,-71,o),
(5,-142,o),
(-23,-189,cs),
(-41,-219,o),
(-68,-240,o),
(-116,-246,cs),
(-137,-248,o),
(-220,-250,o),
(-239,-250,cs),
(-265,-250,o),
(-278,-263,o),
(-278,-277,cs),
(-278,-292,o),
(-264,-300,o),
(-240,-300,cs),
(-221,-300,o),
(-133,-299,o),
(-100,-294,cs),
(-46,-286,o),
(-7,-257,o),
(18,-217,cs),
(52,-163,o),
(61,-87,o),
(76,-3,cs),
(133,317,ls)
);
},
{
closed = 1;
nodes = (
(148,440,o),
(161,453,o),
(161,468,cs),
(161,484,o),
(148,495,o),
(133,495,cs),
(118,495,o),
(106,484,o),
(106,468,cs),
(106,453,o),
(118,440,o),
(133,440,cs)
);
}
);
width = 164;
},
{
layerId = m002;
shapes = (
{
closed = 1;
nodes = (
(169,330,o),
(143,350,o),
(116,350,cs),
(94,350,o),
(68,337,o),
(63,306,cs),
(11,3,ls),
(0,-62,o),
(-7,-126,o),
(-30,-165,cs),
(-46,-190,o),
(-62,-203,o),
(-99,-208,cs),
(-118,-210,o),
(-195,-209,o),
(-212,-209,cs),
(-249,-209,o),
(-274,-231,o),
(-274,-257,cs),
(-274,-282,o),
(-252,-300,o),
(-213,-300,cs),
(-194,-300,o),
(-109,-300,o),
(-77,-295,cs),
(-19,-285,o),
(25,-256,o),
(51,-215,cs),
(86,-158,o),
(95,-83,o),
(109,-5,cs),
(163,295,ls)
);
},
{
closed = 1;
nodes = (
(162,417,o),
(186,439,o),
(186,467,cs),
(186,496,o),
(162,516,o),
(136,516,cs),
(110,516,o),
(87,496,o),
(87,467,cs),
(87,439,o),
(110,417,o),
(136,417,cs)
);
}
);
width = 181;
}
);
metricRight = n;
unicode = 106;
},
{
glyphname = k;
lastChange = "2022-02-26 19:36:14 +0000";
layers = (
{
layerId = m01;
shapes = (
{
closed = 1;
nodes = (
(189,642,o),
(177,650,o),
(161,650,cs),
(146,650,o),
(137,639,o),
(134,622,cs),
(29,26,ls),
(26,10,o),
(36,0,o),
(49,0,cs),
(65,0,o),
(77,7,o),
(80,26,cs),
(185,621,ls)
);
},
{
closed = 1;
nodes = (
(162,174,l),
(271,18,ls),
(278,8,o),
(288,-1,o),
(301,-1,cs),
(311,-1,o),
(321,5,o),
(324,16,cs),
(326,23,o),
(325,31,o),
(318,41,cs),
(226,174,l)
);
},
{
closed = 1;
nodes = (
(92,122,o),
(130,170,o),
(159,210,cs),
(176,234,o),
(200,258,o),
(218,273,cs),
(238,289,o),
(265,304,o),
(278,304,cs),
(294,304,o),
(291,279,o),
(289,271,cs),
(284,245,o),
(266,236,o),
(240,219,cs),
(220,205,o),
(191,189,o),
(162,174,c),
(219,146,l),
(238,158,o),
(256,169,o),
(273,181,cs),
(306,205,o),
(331,228,o),
(339,272,cs),
(345,310,o),
(337,354,o),
(288,354,cs),
(257,354,o),
(220,337,o),
(188,312,cs),
(161,291,o),
(106,225,o),
(89,201,c),
(61,39,l)
);
}
);
width = 391;
},
{
layerId = m002;
shapes = (
{
closed = 1;
nodes = (
(220,633,o),
(197,653,o),
(167,653,cs),
(144,653,o),
(121,638,o),
(116,608,cs),
(18,48,ls),
(13,19,o),
(34,-2,o),
(61,-2,cs),
(88,-2,o),
(111,11,o),
(116,40,cs),
(214,599,ls)
);
},
{
closed = 1;
nodes = (
(168,181,l),
(275,25,ls),
(286,9,o),
(304,-2,o),
(322,-2,cs),
(342,-2,o),
(362,11,o),
(366,31,c),
(370,43,o),
(368,55,o),
(358,69,cs),
(282,181,l)
);
},
{
closed = 1;
nodes = (
(126,120,o),
(151,185,o),
(178,218,cs),
(195,238,o),
(213,257,o),
(227,268,cs),
(244,283,o),
(263,288,o),
(276,284,cs),
(283,282,o),
(286,272,o),
(285,266,cs),
(283,256,o),
(268,240,o),
(243,224,cs),
(226,213,o),
(203,198,o),
(168,181,c),
(296,152,l),
(299,154,o),
(285,160,o),
(289,163,cs),
(318,185,o),
(365,221,o),
(374,267,cs),
(382,316,o),
(345,354,o),
(283,354,cs),
(240,354,o),
(199,347,o),
(169,324,cs),
(138,300,o),
(96,249,o),
(85,238,c),
(116,98,l)
);
}
);
width = 402;
}
);
metricLeft = n;
unicode = 107;
},
{
glyphname = l;
lastChange = "2022-02-26 19:36:14 +0000";
layers = (
{
layerId = m01;
shapes = (
{
closed = 1;
nodes = (
(187,640,o),
(174,650,o),
(160,650,cs),
(149,650,o),
(138,644,o),
(135,629,cs),
(29,27,ls),
(26,9,o),
(39,0,o),
(53,0,cs),
(64,0,o),
(75,7,o),
(78,22,cs),
(184,624,ls)
);
}
);
width = 159;
},
{
layerId = m002;
shapes = (
{
closed = 1;
nodes = (
(221,631,o),
(194,650,o),
(166,650,cs),
(144,650,o),
(122,640,o),
(117,612,cs),
(18,50,ls),
(12,15,o),
(41,0,o),
(64,0,cs),
(86,0,o),
(112,15,o),
(117,44,cs),
(215,599,ls)
);
}
);
width = 179;
}
);
metricLeft = n;
metricRight = n;
unicode = 108;
},
{
glyphname = m;
lastChange = "2022-02-26 19:36:14 +0000";
layers = (
{
layerId = m01;
shapes = (
{
closed = 1;
nodes = (
(610,291,o),
(602,354,o),
(541,354,cs),
(450,354,o),
(380,211,o),
(322,124,c),
(315,11,l),
(384,126,o),
(483,305,o),
(534,305,cs),
(559,305,o),
(553,261,o),
(548,234,cs),
(509,23,ls),
(508,15,o),
(509,0,o),
(531,0,c),
(557,0,o),
(559,18,o),
(560,23,cs),
(599,234,ls)
);
},
{
closed = 1;
nodes = (
(135,340,o),
(131,350,o),
(114,350,c),
(95,350,o),
(84,342,o),
(81,323,cs),
(28,23,ls),
(27,15,o),
(28,0,o),
(50,0,cs),
(76,0,o),
(78,18,o),
(79,23,cs),
(132,323,ls)
);
},
{
closed = 1;
nodes = (
(369,290,o),
(361,353,o),
(300,353,cs),
(208,353,o),
(139,208,o),
(81,121,c),
(74,10,l),
(143,125,o),
(242,304,o),
(293,304,cs),
(318,304,o),
(312,260,o),
(307,233,cs),
(268,22,ls),
(267,14,o),
(268,0,o),
(290,0,c),
(316,0,o),
(318,17,o),
(319,22,cs),
(358,233,ls)
);
}
);
width = 643;
},
{
layerId = m002;
shapes = (
{
closed = 1;
nodes = (
(635,289,o),
(623,354,o),
(551,354,cs),
(450,354,o),
(397,270,o),
(347,197,c),
(343,30,l),
(377,77,o),
(494,276,o),
(519,276,cs),
(530,276,o),
(527,256,o),
(523,231,cs),
(490,45,ls),
(486,21,o),
(503,0,o),
(535,0,cs),
(571,0,o),
(587,22,o),
(590,37,cs),
(623,223,ls)
);
},
{
closed = 1;
nodes = (
(169,331,o),
(152,350,o),
(123,350,cs),
(94,350,o),
(72,337,o),
(64,309,c),
(17,43,ls),
(12,15,o),
(30,0,o),
(59,0,cs),
(96,0,o),
(114,23,o),
(117,37,cs),
(164,302,ls)
);
},
{
closed = 1;
nodes = (
(393,288,o),
(371,354,o),
(299,354,cs),
(197,354,o),
(152,256,o),
(102,196,c),
(109,30,l),
(134,74,o),
(246,276,o),
(285,276,cs),
(293,276,o),
(291,255,o),
(286,230,cs),
(252,45,ls),
(247,20,o),
(264,0,o),
(296,0,cs),
(332,0,o),
(344,21,o),
(347,37,cs),
(381,222,ls)
);
}
);
width = 654;
}
);
metricLeft = n;
metricRight = n;
unicode = 109;
},
{
glyphname = n;
lastChange = "2022-02-26 19:36:14 +0000";
layers = (
{
layerId = m01;
shapes = (
{
closed = 1;
nodes = (
(384,291,o),
(376,354,o),
(316,354,cs),
(224,354,o),
(139,206,o),
(81,119,c),
(74,11,l),
(143,126,o),
(257,305,o),
(308,305,cs),
(333,305,o),
(327,261,o),
(322,234,cs),
(283,23,ls),
(282,15,o),
(283,0,o),
(305,0,c),
(331,0,o),
(333,18,o),
(334,23,cs),
(373,234,ls)
);
},
{
closed = 1;
nodes = (
(134,340,o),
(131,350,o),
(114,350,c),
(94,350,o),
(85,341,o),
(81,323,cs),
(28,23,ls),
(27,15,o),
(28,0,o),
(50,0,cs),
(76,0,o),
(78,18,o),
(79,23,cs),
(132,323,ls)
);
}
);
width = 417;
},
{
layerId = m002;
shapes = (
{
closed = 1;
nodes = (
(393,288,o),
(371,354,o),
(300,354,cs),
(199,354,o),
(160,268,o),
(102,196,c),
(109,30,l),
(144,91,o),
(247,276,o),
(285,276,cs),
(293,276,o),
(291,256,o),
(286,231,cs),
(252,44,ls),
(248,20,o),
(263,0,o),
(296,0,cs),
(333,0,o),
(344,20,o),
(348,42,cs),
(381,222,ls)
);
},
{
closed = 1;
nodes = (
(169,332,o),
(153,350,o),
(121,350,cs),
(79,350,o),
(66,320,o),
(64,308,cs),
(17,44,ls),
(13,20,o),
(24,0,o),
(58,0,cs),
(95,0,o),
(114,22,o),
(117,37,cs),
(164,302,ls)
);
}
);
width = 412;
}
);
unicode = 110;
},
{
glyphname = o;
lastChange = "2022-02-26 15:51:32 +0000";
layers = (
{
layerId = m01;
shapes = (
{
closed = 1;
nodes = (
(213,-4,o),
(319,158,o),
(319,260,cs),
(319,319,o),
(284,351,o),
(214,351,cs),
(155,351,o),
(116,314,o),
(92,271,cs),
(74,237,o),
(45,170,o),
(45,95,cs),
(45,20,o),
(70,-4,o),
(110,-4,cs)
);
},
{
closed = 1;
nodes = (
(95,46,o),
(95,77,o),
(95,105,cs),
(95,152,o),
(114,203,o),
(138,251,cs),
(159,287,o),
(181,301,o),
(211,301,cs),
(251,301,o),
(269,287,o),
(269,247,cs),
(269,182,o),
(179,46,o),
(122,46,cs)
);
}
);
width = 356;
},
{
layerId = m002;
shapes = (
{
closed = 1;
nodes = (
(236,-4,o),
(346,152,o),
(346,250,cs),
(346,314,o),
(295,352,o),
(219,352,cs),
(154,352,o),
(103,312,o),
(80,270,cs),
(63,238,o),
(30,174,o),
(30,104,cs),
(30,24,o),
(78,-4,o),
(128,-4,cs)
);
},
{
closed = 1;
nodes = (
(132,83,o),
(129,94,o),
(129,113,cs),
(129,151,o),
(150,189,o),
(171,230,cs),
(187,257,o),
(201,264,o),
(217,264,cs),
(237,264,o),
(246,255,o),
(246,236,cs),
(246,185,o),
(174,83,o),
(138,83,cs)
);
}
);
width = 370;
}
);
unicode = 111;
},
{
glyphname = p;
lastChange = "2022-02-26 19:35:39 +0000";
layers = (
{
layerId = m01;
shapes = (
{
closed = 1;
nodes = (
(136,342,o),
(124,350,o),
(111,350,cs),
(99,350,o),
(85,342,o),
(82,327,cs),
(-25,-276,ls),
(-28,-292,o),
(-16,-300,o),
(-3,-300,cs),
(9,-300,o),
(23,-292,o),
(26,-277,cs),
(133,327,ls)
);
},
{
closed = 1;
nodes = (
(91,49,l),
(119,96,o),
(152,145,o),
(207,214,cs),
(254,273,o),
(291,303,o),
(306,303,cs),
(324,303,o),
(324,288,o),
(324,272,cs),
(324,235,o),
(306,144,o),
(280,105,cs),
(250,60,o),
(199,50,o),
(165,50,cs),
(158,50,o),
(90,50,o),
(82,50,c),
(71,50,l),
(71,48,o),
(71,3,o),
(71,0,c),
(83,0,o),
(145,0,o),
(165,0,cs),
(222,0,o),
(281,17,o),
(319,74,cs),
(351,122,o),
(374,219,o),
(374,277,cs),
(374,328,o),
(354,354,o),
(321,354,cs),
(263,354,o),
(211,300,o),
(174,253,cs),
(121,187,o),
(70,114,o),
(50,60,cs),
(46,49,l)
);
}
);
width = 410;
},
{
layerId = m002;
shapes = (
{
closed = 1;
nodes = (
(169,327,o),
(146,350,o),
(119,350,cs),
(96,350,o),
(68,335,o),
(64,310,cs),
(-35,-254,ls),
(-40,-283,o),
(-15,-303,o),
(12,-303,cs),
(35,-303,o),
(61,-288,o),
(65,-263,cs),
(164,299,ls)
);
},
{
closed = 1;
nodes = (
(110,42,l),
(142,96,o),
(171,147,o),
(215,201,cs),
(254,249,o),
(281,266,o),
(285,266,cs),
(290,266,o),
(291,256,o),
(291,251,cs),
(291,220,o),
(278,158,o),
(259,129,cs),
(236,95,o),
(206,87,o),
(182,87,cs),
(176,87,o),
(116,87,o),
(109,87,cs),
(75,87,l),
(75,62,o),
(75,22,o),
(75,0,c),
(98,0,o),
(163,0,o),
(182,0,cs),
(229,0,o),
(294,16,o),
(333,73,cs),
(364,121,o),
(386,211,o),
(386,265,cs),
(386,332,o),
(365,354,o),
(322,354,cs),
(263,354,o),
(189,290,o),
(154,243,cs),
(104,176,o),
(59,114,o),
(50,80,cs),
(40,42,l)
);
}
);
width = 409;
}
);
metricLeft = n;
metricRight = o;
unicode = 112;
},
{
glyphname = q;
lastChange = "2022-02-26 19:32:45 +0000";
layers = (
{
layerId = m01;
shapes = (
{
closed = 1;
nodes = (
(324,301,l),
(296,254,o),
(263,205,o),
(222,153,cs),
(161,77,o),
(124,47,o),
(105,47,cs),
(91,47,o),
(91,62,o),
(91,78,cs),
(91,116,o),
(109,206,o),
(135,245,cs),
(165,290,o),
(216,300,o),
(250,300,cs),
(257,300,o),
(325,300,o),
(333,300,c),
(344,300,l),
(344,302,o),
(344,347,o),
(344,350,c),
(332,350,o),
(270,350,o),
(250,350,cs),
(193,350,o),
(134,333,o),
(96,276,cs),
(64,228,o),
(41,131,o),
(41,73,cs),
(41,22,o),
(61,-4,o),
(94,-4,cs),
(152,-4,o),
(204,50,o),
(245,101,cs),
(294,163,o),
(342,240,o),
(365,292,cs),
(369,301,l)
);
},
{
closed = 1;
nodes = (
(266,-294,l),
(374,-205,ls),
(386,-195,o),
(391,-185,o),
(393,-176,cs),
(394,-164,o),
(386,-154,o),
(373,-154,cs),
(365,-153,o),
(354,-157,o),
(342,-167,cs),
(260,-235,l)
);
},
{
closed = 1;
nodes = (
(388,335,o),
(387,350,o),
(365,350,cs),
(340,350,l),
(229,-273,ls),
(226,-291,o),
(236,-300,o),
(248,-300,cs),
(261,-300,o),
(276,-291,o),
(279,-273,cs),
(387,327,ls)
);
}
);
width = 415;
},
{
layerId = m002;
shapes = (
{
closed = 1;
nodes = (
(302,306,l),
(276,261,o),
(250,215,o),
(212,167,cs),
(159,101,o),
(133,84,o),
(128,84,cs),
(123,84,o),
(122,97,o),
(122,102,cs),
(122,134,o),
(136,194,o),
(156,224,cs),
(177,256,o),
(208,263,o),
(236,263,cs),
(242,263,o),
(302,263,o),
(309,263,cs),
(344,263,l),
(344,288,o),
(344,328,o),
(344,350,c),
(321,350,o),
(256,350,o),
(236,350,cs),
(181,350,o),
(118,332,o),
(80,275,cs),
(48,228,o),
(28,139,o),
(28,85,cs),
(28,22,o),
(46,-4,o),
(85,-4,cs),
(148,-4,o),
(215,51,o),
(269,118,cs),
(315,176,o),
(347,223,o),
(360,269,cs),
(371,307,l)
);
},
{
closed = 1;
nodes = (
(283,-284,l),
(377,-205,ls),
(392,-193,o),
(403,-179,o),
(405,-166,cs),
(409,-141,o),
(389,-122,o),
(364,-121,cs),
(351,-120,o),
(335,-125,o),
(319,-138,cs),
(237,-205,l)
);
},
{
closed = 1;
nodes = (
(401,328,o),
(385,350,o),
(352,350,cs),
(307,350,l),
(201,-248,ls),
(195,-280,o),
(216,-300,o),
(243,-300,cs),
(266,-300,o),
(293,-284,o),
(298,-256,cs),
(397,306,ls)
);
}
);
width = 414;
}
);
metricLeft = o;
unicode = 113;
},
{
glyphname = r;
lastChange = "2022-02-26 19:36:14 +0000";
layers = (
{
layerId = m01;
shapes = (
{
closed = 1;
nodes = (
(131,163,o),
(153,194,o),
(182,228,cs),
(200,249,o),
(224,275,o),
(245,289,cs),
(258,298,o),
(265,301,o),
(271,301,cs),
(282,301,o),
(290,271,o),
(291,268,cs),
(296,249,o),
(304,241,o),
(319,241,cs),
(338,241,o),
(342,253,o),
(341,265,cs),
(340,281,o),
(329,329,o),
(313,341,cs),
(308,345,o),
(297,350,o),
(276,350,cs),
(263,350,o),
(243,348,o),
(221,334,cs),
(204,323,o),
(178,300,o),
(151,271,cs),
(135,254,o),
(117,233,o),
(108,216,c),
(86,91,l)
);
},
{
closed = 1;
nodes = (
(134,340,o),
(123,350,o),
(110,350,cs),
(98,350,o),
(84,341,o),
(81,323,cs),
(29,27,ls),
(26,9,o),
(37,0,o),
(50,0,cs),
(63,0,o),
(77,9,o),
(80,27,cs),
(131,320,ls)
);
}
);
width = 356;
},
{
layerId = m002;
shapes = (
{
closed = 1;
nodes = (
(130,109,o),
(176,180,o),
(189,196,cs),
(202,212,o),
(217,228,o),
(228,239,cs),
(237,248,o),
(248,258,o),
(251,258,cs),
(256,258,o),
(259,250,o),
(261,244,cs),
(267,224,o),
(284,211,o),
(307,211,cs),
(331,211,o),
(345,228,o),
(345,256,cs),
(345,274,o),
(335,318,o),
(313,337,cs),
(307,343,o),
(291,351,o),
(263,351,cs),
(250,351,o),
(225,348,o),
(201,333,cs),
(184,322,o),
(158,300,o),
(135,274,cs),
(118,257,o),
(98,233,o),
(91,217,c),
(91,46,l)
);
},
{
closed = 1;
nodes = (
(169,329,o),
(143,351,o),
(117,351,cs),
(95,351,o),
(69,336,o),
(64,309,cs),
(18,48,ls),
(13,18,o),
(38,-1,o),
(64,-1,cs),
(87,-1,o),
(113,14,o),
(118,41,cs),
(163,297,ls)
);
}
);
width = 355;
}
);
metricLeft = n;
unicode = 114;
},
{
glyphname = s;
lastChange = "2022-02-26 19:36:14 +0000";
layers = (
{
layerId = m01;
shapes = (
{
closed = 1;
nodes = (
(195,0,o),
(257,16,o),
(267,80,cs),
(273,117,o),
(259,144,o),
(240,159,cs),
(221,174,o),
(181,200,o),
(149,226,cs),
(134,238,o),
(120,251,o),
(120,263,cs),
(120,281,o),
(155,300,o),
(187,300,cs),
(282,300,ls),
(295,300,o),
(310,308,o),
(310,325,cs),
(310,349,o),
(295,350,o),
(267,350,cs),
(187,350,ls),
(127,350,o),
(72,316,o),
(70,262,cs),
(69,224,o),
(95,202,o),
(123,182,cs),
(150,163,o),
(183,143,o),
(197,132,cs),
(210,121,o),
(220,107,o),
(217,88,cs),
(212,55,o),
(176,50,o),
(135,50,cs),
(60,50,ls),
(44,50,o),
(29,45,o),
(29,25,cs),
(29,6,o),
(44,0,o),
(59,0,cs),
(135,0,ls)
);
}
);
width = 333;
},
{
layerId = m002;
shapes = (
{
closed = 1;
nodes = (
(196,0,o),
(266,18,o),
(278,87,cs),
(285,127,o),
(268,160,o),
(245,178,cs),
(229,191,o),
(194,214,o),
(164,237,cs),
(154,246,o),
(149,250,o),
(149,254,cs),
(149,258,o),
(162,263,o),
(183,263,cs),
(268,263,ls),
(292,263,o),
(317,279,o),
(317,307,cs),
(317,340,o),
(294,351,o),
(254,351,cs),
(183,351,ls),
(119,351,o),
(58,314,o),
(55,253,cs),
(54,208,o),
(85,183,o),
(112,163,cs),
(134,147,o),
(162,132,o),
(175,121,cs),
(184,114,o),
(188,110,o),
(186,101,cs),
(184,88,o),
(171,87,o),
(137,87,cs),
(69,87,ls),
(40,87,o),
(17,72,o),
(17,43,cs),
(17,15,o),
(39,0,o),
(68,0,cs),
(137,0,ls)
);
}
);
width = 329;
}
);
metricLeft = o;
metricRight = o;
unicode = 115;
},
{
glyphname = t;
lastChange = "2022-02-26 19:36:14 +0000";
layers = (
{
layerId = m01;
shapes = (
{
closed = 1;
nodes = (
(280,558,o),
(266,568,o),
(252,568,cs),
(241,568,o),
(231,561,o),
(228,547,cs),
(135,24,ls),
(132,8,o),
(145,0,o),
(158,0,cs),
(171,0,o),
(184,7,o),
(187,23,cs),
(277,540,ls)
);
},
{
closed = 1;
nodes = (
(352,305,o),
(358,316,o),
(358,328,cs),
(358,340,o),
(352,350,o),
(332,350,cs),
(108,350,ls),
(88,350,o),
(82,340,o),
(82,328,cs),
(82,316,o),
(88,305,o),
(108,305,cs),
(332,305,ls)
);
}
);
width = 387;
},
{
layerId = m002;
shapes = (
{
closed = 1;
nodes = (
(294,557,o),
(265,568,o),
(238,568,cs),
(216,568,o),
(193,555,o),
(189,532,cs),
(103,44,ls),
(97,12,o),
(124,0,o),
(150,0,cs),
(175,0,o),
(197,9,o),
(202,35,cs),
(288,523,ls)
);
},
{
closed = 1;
nodes = (
(341,265,o),
(359,283,o),
(359,307,cs),
(359,332,o),
(341,350,o),
(309,350,cs),
(99,350,ls),
(67,350,o),
(49,332,o),
(49,307,cs),
(49,283,o),
(67,265,o),
(99,265,cs),
(309,265,ls)
);
}
);
width = 376;
}
);
metricRight = "=n+1";
unicode = 116;
},
{
glyphname = u;
lastChange = "2022-02-26 19:36:14 +0000";
layers = (
{
layerId = m01;
shapes = (
{
closed = 1;
nodes = (
(275,222,o),
(161,45,o),
(110,45,cs),
(85,45,o),
(91,89,o),
(96,116,cs),
(132,321,ls),
(135,340,o),
(124,350,o),
(112,350,cs),
(99,350,o),
(84,341,o),
(81,322,cs),
(45,116,ls),
(35,59,o),
(42,-4,o),
(100,-4,cs),
(189,-4,o),
(295,163,o),
(350,251,c),
(344,337,l)
);
},
{
closed = 1;
nodes = (
(391,340,o),
(387,350,o),
(370,350,c),
(351,350,o),
(340,342,o),
(337,323,cs),
(285,31,ls),
(282,12,o),
(293,-1,o),
(307,-1,cs),
(318,-1,o),
(332,7,o),
(336,31,cs),
(388,323,ls)
);
}
);
width = 416;
},
{
layerId = m002;
shapes = (
{
closed = 1;
nodes = (
(254,231,o),
(163,74,o),
(128,74,cs),
(120,74,o),
(123,94,o),
(127,119,cs),
(159,299,ls),
(165,333,o),
(149,350,o),
(117,350,cs),
(92,350,o),
(70,340,o),
(64,308,cs),
(32,127,ls),
(20,58,o),
(44,-4,o),
(111,-4,cs),
(211,-4,o),
(245,72,o),
(311,153,c),
(301,314,l)
);
},
{
closed = 1;
nodes = (
(400,336,o),
(381,350,o),
(356,350,cs),
(329,350,o),
(299,336,o),
(294,309,cs),
(249,52,ls),
(242,14,o),
(263,0,o),
(293,0,cs),
(315,0,o),
(343,11,o),
(349,44,cs),
(395,305,ls)
);
}
);
width = 411;
}
);
metricLeft = n;
metricRight = n;
unicode = 117;
},
{
glyphname = v;
lastChange = "2022-02-26 19:36:14 +0000";
layers = (
{
layerId = m01;
shapes = (
{
closed = 1;
nodes = (
(136,340,o),
(124,350,o),
(111,350,cs),
(99,350,o),
(84,341,o),
(81,323,cs),
(42,102,ls),
(37,76,o),
(36,49,o),
(43,28,cs),
(50,9,o),
(64,-4,o),
(90,-4,cs),
(114,-4,o),
(140,7,o),
(165,25,cs),
(203,53,o),
(243,100,o),
(269,138,cs),
(303,186,o),
(349,269,o),
(359,288,cs),
(382,333,o),
(372,350,o),
(352,350,cs),
(334,350,o),
(328,337,o),
(316,315,cs),
(298,280,o),
(269,229,o),
(238,183,cs),
(205,133,o),
(170,89,o),
(136,63,cs),
(122,52,o),
(113,47,o),
(104,47,cs),
(96,47,o),
(89,51,o),
(88,60,cs),
(86,69,o),
(90,86,o),
(93,102,cs),
(132,320,ls)
);
},
{
closed = 1;
nodes = (
(340,294,l),
(384,230,ls),
(391,220,o),
(401,211,o),
(414,211,cs),
(424,211,o),
(434,217,o),
(437,228,cs),
(439,235,o),
(438,243,o),
(431,253,cs),
(368,344,l)
);
}
);
width = 438;
},
{
layerId = m002;
shapes = (
{
closed = 1;
nodes = (
(169,331,o),
(146,351,o),
(119,351,cs),
(97,351,o),
(68,335,o),
(63,308,cs),
(29,115,ls),
(25,90,o),
(27,62,o),
(34,39,cs),
(45,12,o),
(66,-4,o),
(99,-4,cs),
(127,-4,o),
(166,4,o),
(200,27,cs),
(240,54,o),
(276,97,o),
(298,129,cs),
(330,173,o),
(378,248,o),
(385,264,c),
(423,336,o),
(379,351,o),
(357,351,cs),
(330,351,o),
(317,338,o),
(301,308,cs),
(293,293,o),
(275,262,o),
(249,223,cs),
(220,179,o),
(212,168,o),
(194,143,cs),
(181,126,o),
(165,106,o),
(155,96,cs),
(147,88,o),
(135,78,o),
(131,78,cs),
(125,78,o),
(128,107,o),
(137,157,cs),
(163,298,ls)
);
},
{
closed = 1;
nodes = (
(319,278,l),
(364,212,ls),
(375,196,o),
(391,184,o),
(412,184,cs),
(431,184,o),
(450,196,o),
(456,214,cs),
(460,229,o),
(457,241,o),
(447,256,cs),
(394,334,l)
);
}
);
width = 469;
}
);
metricLeft = n;
unicode = 118;
},
{
glyphname = w;
lastChange = "2022-02-26 19:36:14 +0000";
layers = (
{
layerId = m01;
shapes = (
{
closed = 1;
nodes = (
(378,340,o),
(366,350,o),
(353,350,c),
(315,270,l),
(284,102,ls),
(279,76,o),
(278,49,o),
(285,28,cs),
(292,9,o),
(306,-4,o),
(332,-4,cs),
(356,-4,o),
(382,7,o),
(407,25,cs),
(445,53,o),
(485,100,o),
(511,138,cs),
(545,186,o),
(591,269,o),
(601,288,cs),
(624,333,o),
(614,350,o),
(594,350,cs),
(576,350,o),
(570,337,o),
(558,315,cs),
(540,280,o),
(511,229,o),
(480,183,cs),
(447,133,o),
(412,89,o),
(378,63,cs),
(364,52,o),
(355,47,o),
(346,47,cs),
(338,47,o),
(331,51,o),
(330,60,cs),
(328,69,o),
(332,86,o),
(335,102,cs),
(374,320,ls)
);
},
{
closed = 1;
nodes = (
(335,350,o),
(328,337,o),
(316,315,cs),
(298,280,o),
(269,229,o),
(238,183,cs),
(205,133,o),
(170,89,o),
(136,63,cs),
(122,52,o),
(113,47,o),
(104,47,cs),
(96,47,o),
(89,51,o),
(88,60,cs),
(86,69,o),
(90,86,o),
(93,102,cs),
(132,320,ls),
(136,340,o),
(124,350,o),
(111,350,cs),
(99,350,o),
(84,341,o),
(81,323,cs),
(42,102,ls),
(37,76,o),
(36,49,o),
(43,28,cs),
(50,9,o),
(64,-4,o),
(90,-4,cs),
(114,-4,o),
(140,7,o),
(165,25,cs),
(203,53,o),
(243,100,o),
(269,138,cs),
(304,189,o),
(332,248,o),
(342,267,c),
(353,350,l)
);
},
{
closed = 1;
nodes = (
(582,294,l),
(626,230,ls),
(633,220,o),
(643,211,o),
(656,211,cs),
(666,211,o),
(676,217,o),
(679,228,cs),
(681,235,o),
(680,243,o),
(673,253,cs),
(610,344,l)
);
}
);
width = 685;
},
{
layerId = m002;
shapes = (
{
closed = 1;
nodes = (
(408,335,o),
(379,350,o),
(357,350,c),
(298,264,l),
(268,115,ls),
(263,90,o),
(265,62,o),
(272,39,cs),
(281,12,o),
(305,-5,o),
(337,-5,cs),
(370,-5,o),
(408,6,o),
(434,24,cs),
(472,50,o),
(506,86,o),
(528,118,cs),
(560,162,o),
(615,244,o),
(623,260,cs),
(659,331,o),
(620,350,o),
(598,350,cs),
(570,350,o),
(558,343,o),
(543,314,cs),
(530,289,o),
(514,263,o),
(488,224,cs),
(459,180,o),
(446,161,o),
(436,147,cs),
(427,135,o),
(404,106,o),
(398,100,cs),
(389,91,o),
(375,77,o),
(369,77,cs),
(364,77,o),
(366,102,o),
(369,117,cs),
(401,298,ls)
);
},
{
closed = 1;
nodes = (
(333,350,o),
(321,344,o),
(300,307,cs),
(290,289,o),
(278,267,o),
(254,230,cs),
(234,199,o),
(218,177,o),
(205,158,cs),
(196,145,o),
(181,126,o),
(163,105,cs),
(150,90,o),
(135,78,o),
(131,78,cs),
(126,78,o),
(129,109,o),
(132,125,cs),
(163,298,ls),
(169,332,o),
(146,350,o),
(120,350,cs),
(93,350,o),
(69,336,o),
(63,304,cs),
(29,113,ls),
(25,88,o),
(27,60,o),
(35,37,cs),
(44,10,o),
(71,-4,o),
(101,-4,cs),
(129,-4,o),
(170,7,o),
(195,24,cs),
(240,54,o),
(275,97,o),
(298,129,cs),
(334,183,o),
(366,243,o),
(370,250,c),
(364,350,l)
);
},
{
closed = 1;
nodes = (
(556,277,l),
(603,210,ls),
(614,194,o),
(632,183,o),
(650,183,cs),
(670,183,o),
(691,196,o),
(696,217,cs),
(698,229,o),
(695,240,o),
(685,255,cs),
(632,333,l)
);
}
);
width = 714;
}
);
metricLeft = n;
unicode = 119;
},
{
glyphname = x;
lastChange = "2022-02-26 19:36:14 +0000";
layers = (
{
layerId = m01;
shapes = (
{
closed = 1;
nodes = (
(385,313,o),
(389,317,o),
(389,327,cs),
(389,333,o),
(387,339,o),
(382,344,cs),
(377,349,o),
(370,350,o),
(363,350,cs),
(356,349,o),
(349,346,o),
(344,341,c),
(37,44,l),
(30,36,o),
(28,28,o),
(29,21,cs),
(30,16,o),
(33,11,o),
(37,6,cs),
(41,2,o),
(46,0,o),
(53,0,cs),
(61,0,o),
(69,5,o),
(74,10,c),
(380,308,l)
);
},
{
closed = 1;
nodes = (
(123,345,o),
(117,350,o),
(109,350,cs),
(102,350,o),
(96,347,o),
(91,343,cs),
(86,339,o),
(83,333,o),
(82,327,cs),
(82,321,o),
(85,314,o),
(88,309,c),
(292,10,l),
(296,4,o),
(302,1,o),
(307,0,cs),
(314,-1,o),
(322,3,o),
(327,8,cs),
(332,13,o),
(336,20,o),
(336,27,cs),
(336,33,o),
(334,39,o),
(330,44,c),
(128,338,l)
);
}
);
width = 417;
},
{
layerId = m002;
shapes = (
{
closed = 1;
nodes = (
(378,285,o),
(384,294,o),
(384,309,cs),
(384,321,o),
(380,331,o),
(371,340,cs),
(363,348,o),
(348,350,o),
(335,350,cs),
(324,350,o),
(310,344,o),
(302,337,cs),
(32,76,ls),
(20,64,o),
(16,52,o),
(18,38,cs),
(19,29,o),
(23,21,o),
(30,12,cs),
(37,4,o),
(51,0,o),
(64,0,cs),
(78,0,o),
(92,7,o),
(102,16,cs),
(369,277,ls)
);
},
{
closed = 1;
nodes = (
(140,345,o),
(127,350,o),
(113,350,cs),
(101,350,o),
(90,347,o),
(80,339,cs),
(71,332,o),
(65,321,o),
(64,310,cs),
(64,299,o),
(69,288,o),
(74,281,cs),
(253,18,ls),
(264,2,o),
(284,0,o),
(294,0,cs),
(306,0,o),
(317,7,o),
(324,14,cs),
(331,22,o),
(338,33,o),
(338,45,cs),
(338,54,o),
(334,62,o),
(328,71,cs),
(150,331,ls)
);
}
);
width = 400;
}
);
metricLeft = n;
metricRight = n;
unicode = 120;
},
{
glyphname = y;
lastChange = "2022-02-26 19:36:14 +0000";
layers = (
{
layerId = m01;
shapes = (
{
closed = 1;
nodes = (
(391,338,o),
(378,350,o),
(364,350,cs),
(352,350,o),
(338,341,o),
(334,320,cs),
(279,-3,ls),
(267,-71,o),
(259,-142,o),
(231,-189,cs),
(213,-219,o),
(186,-240,o),
(138,-246,cs),
(117,-248,o),
(34,-250,o),
(15,-250,cs),
(-11,-250,o),
(-24,-263,o),
(-24,-277,cs),
(-24,-292,o),
(-10,-300,o),
(14,-300,cs),
(33,-300,o),
(121,-299,o),
(154,-294,cs),
(208,-286,o),
(247,-257,o),
(272,-217,cs),
(306,-163,o),
(315,-87,o),
(330,-3,cs),
(387,317,ls)
);
},
{
closed = 1;
nodes = (
(275,225,o),
(162,45,o),
(111,45,cs),
(86,45,o),
(92,89,o),
(97,116,cs),
(133,321,ls),
(136,340,o),
(125,350,o),
(113,350,cs),
(100,350,o),
(85,341,o),
(82,322,cs),
(46,116,ls),
(36,59,o),
(43,-4,o),
(101,-4,cs),
(190,-4,o),
(295,166,o),
(350,254,c),
(344,340,l)
);
}
);
width = 416;
},
{
layerId = m002;
shapes = (
{
closed = 1;
nodes = (
(399,331,o),
(391,350,o),
(353,350,cs),
(320,350,o),
(298,333,o),
(293,302,cs),
(240,3,ls),
(228,-62,o),
(224,-126,o),
(201,-165,cs),
(185,-190,o),
(169,-203,o),
(132,-208,cs),
(113,-210,o),
(30,-209,o),
(13,-209,cs),
(-24,-209,o),
(-35,-231,o),
(-35,-257,cs),
(-35,-282,o),
(-27,-300,o),
(12,-300,cs),
(31,-300,o),
(122,-298,o),
(154,-293,cs),
(212,-283,o),
(256,-256,o),
(282,-215,cs),
(317,-158,o),
(326,-83,o),
(340,-5,cs),
(393,295,ls)
);
},
{
closed = 1;
nodes = (
(265,252,o),
(166,74,o),
(128,74,cs),
(120,74,o),
(123,94,o),
(127,119,cs),
(159,300,ls),
(164,330,o),
(152,350,o),
(117,350,cs),
(86,350,o),
(69,335,o),
(64,307,cs),
(32,127,ls),
(20,58,o),
(34,-4,o),
(101,-4,cs),
(221,-4,o),
(265,108,o),
(311,153,c),
(302,326,l)
);
}
);
width = 411;
}
);
metricLeft = n;
metricRight = n;
unicode = 121;
},
{
glyphname = z;
lastChange = "2022-02-26 19:36:14 +0000";
layers = (
{
layerId = m01;
shapes = (
{
closed = 1;
nodes = (
(385,313,o),
(389,317,o),
(389,327,cs),
(389,333,o),
(387,339,o),
(382,344,cs),
(377,349,o),
(370,350,o),
(363,350,cs),
(356,349,o),
(349,346,o),
(344,341,c),
(37,44,ls),
(29,37,o),
(28,28,o),
(29,21,cs),
(30,16,o),
(33,11,o),
(37,6,cs),
(41,2,o),
(46,0,o),
(53,0,cs),
(61,0,o),
(69,5,o),
(74,10,c),
(380,308,l)
);
},
{
closed = 1;
nodes = (
(310,0,ls),
(330,0,o),
(336,13,o),
(336,25,cs),
(336,37,o),
(330,50,o),
(310,50,cs),
(73,50,l),
(51,0,l)
);
},
{
closed = 1;
nodes = (
(365,350,l),
(108,350,ls),
(88,350,o),
(82,337,o),
(82,325,cs),
(82,313,o),
(88,300,o),
(108,300,cs),
(341,300,l)
);
}
);
width = 417;
},
{
layerId = m002;
shapes = (
{
closed = 1;
nodes = (
(378,285,o),
(384,294,o),
(384,309,cs),
(384,321,o),
(379,331,o),
(371,340,cs),
(362,348,o),
(348,350,o),
(335,350,cs),
(323,350,o),
(310,344,o),
(302,337,cs),
(32,75,ls),
(21,65,o),
(16,52,o),
(18,38,cs),
(19,29,o),
(23,21,o),
(30,12,cs),
(37,4,o),
(51,0,o),
(64,0,cs),
(78,0,o),
(92,7,o),
(102,16,cs),
(369,277,ls)
);
},
{
closed = 1;
nodes = (
(290,0,ls),
(320,0,o),
(338,19,o),
(338,43,cs),
(338,67,o),
(320,85,o),
(290,85,cs),
(101,85,l),
(63,0,l)
);
},
{
closed = 1;
nodes = (
(336,350,l),
(112,350,ls),
(82,350,o),
(64,329,o),
(64,305,cs),
(64,281,o),
(82,260,o),
(112,260,cs),
(294,260,l)
);
}
);
width = 401;
}
);
metricLeft = n;
metricRight = n;
unicode = 122;
},
{
glyphname = a.sc;
lastChange = "2022-02-26 20:22:59 +0000";
layers = (
{
guides = (
{
pos = (231,396);
}
);
layerId = m01;
name = "QBeginners Light";
shapes = (
{
closed = 1;
nodes = (
(255,365,l),
(259,381,o),
(249,396,o),
(231,396,cs),
(216,396,o),
(211,387,o),
(206,377,cs),
(28,35,ls),
(19,18,o),
(31,0,o),
(48,0,cs),
(63,0,o),
(69,6,o),
(77,21,cs),
(253,359,l)
);
},
{
closed = 1;
nodes = (
(253,175,l),
(249,216,l),
(135,216,l),
(112,175,l)
);
},
{
closed = 1;
nodes = (
(207,358,l),
(236,25,ls),
(237,13,o),
(243,0,o),
(262,0,cs),
(277,0,o),
(288,10,o),
(286,28,cs),
(256,378,l)
);
}
);
width = 372;
},
{
guides = (
{
pos = (248,396);
}
);
layerId = m002;
name = "QBeginners Light";
shapes = (
{
closed = 1;
nodes = (
(281,348,l),
(290,380,o),
(272,396,o),
(241,396,cs),
(217,396,o),
(205,383,o),
(197,367,cs),
(40,65,ls),
(24,34,o),
(34,0,o),
(67,0,cs),
(89,0,o),
(104,9,o),
(115,31,cs),
(264,317,l)
);
},
{
closed = 1;
nodes = (
(289,151,l),
(282,221,l),
(142,221,l),
(99,151,l)
);
},
{
closed = 1;
nodes = (
(216,326,l),
(233,45,ls),
(235,18,o),
(247,0,o),
(275,0,cs),
(302,0,o),
(318,21,o),
(315,50,cs),
(283,371,l)
);
}
);
width = 403;
},
{
associatedMasterId = m002;
attr = {
axisRules = (
{
max = 800;
min = 600;
}
);
};
guides = (
{
pos = (248,396);
}
);
layerId = "755706CE-7041-47DB-A0A1-6F5627D14654";
name = "{650}";
shapes = (
{
closed = 1;
nodes = (
(281,348,l),
(290,380,o),
(272,396,o),
(241,396,cs),
(217,396,o),
(205,383,o),
(197,367,cs),
(40,65,ls),
(24,34,o),
(34,0,o),
(67,0,cs),
(89,0,o),
(105,9,o),
(115,31,cs),
(253,319,l)
);
},
{
closed = 1;
nodes = (
(289,120,l),
(282,190,l),
(142,190,l),
(99,120,l)
);
},
{
closed = 1;
nodes = (
(220,325,l),
(233,45,ls),
(234,18,o),
(247,0,o),
(275,0,cs),
(302,0,o),
(318,21,o),
(315,50,cs),
(283,371,l)
);
}
);
visible = 1;
width = 403;
},
{
associatedMasterId = m01;
attr = {
axisRules = (
{
max = 800;
min = 600;
}
);
};
guides = (
{
pos = (231,396);
}
);
layerId = "2F08D9ED-CD58-44F7-9314-96851F4DB5DC";
name = "{650}";
shapes = (
{
closed = 1;
nodes = (
(255,365,l),
(259,381,o),
(249,396,o),
(231,396,cs),
(216,396,o),
(211,387,o),
(206,377,cs),
(28,35,ls),
(19,18,o),
(31,0,o),
(48,0,cs),
(63,0,o),
(69,6,o),
(77,21,cs),
(253,359,l)
);
},
{
closed = 1;
nodes = (
(253,155,l),
(249,200,l),
(135,200,l),
(112,155,l)
);
},
{
closed = 1;
nodes = (
(207,358,l),
(236,25,ls),
(237,13,o),
(243,0,o),
(262,0,cs),
(277,0,o),
(288,10,o),
(286,28,cs),
(256,378,l)
);
}
);
visible = 1;
width = 372;
}
);
metricLeft = A;
metricRight = A;
changeCount = 4;
},
{
glyphname = b.sc;
lastChange = "2022-02-26 19:34:15 +0000";
layers = (
{
layerId = m01;
shapes = (
{
closed = 1;
nodes = (
(207,-1,o),
(245,18,o),
(259,92,cs),
(273,175,o),
(184,224,o),
(90,224,c),
(82,171,l),
(164,171,o),
(217,144,o),
(210,100,cs),
(202,59,o),
(167,49,o),
(57,50,c),
(49,0,l)
);
},
{
closed = 1;
nodes = (
(139,384,o),
(128,396,o),
(113,396,cs),
(98,396,o),
(88,387,o),
(85,369,cs),
(26,32,ls),
(23,15,o),
(34,0,o),
(50,0,cs),
(62,0,o),
(73,8,o),
(76,27,cs),
(135,363,ls)
);
},
{
closed = 1;
nodes = (
(245,171,o),
(280,212,o),
(292,281,cs),
(306,360,o),
(231,396,o),
(112,396,c),
(102,345,l),
(205,346,o),
(250,329,o),
(242,286,cs),
(236,247,o),
(217,224,o),
(94,224,c),
(85,171,l)
);
}
);
width = 318;
},
{
layerId = m002;
shapes = (
{
closed = 1;
nodes = (
(188,374,o),
(166,396,o),
(137,396,cs),
(112,396,o),
(93,380,o),
(88,352,cs),
(35,54,ls),
(30,25,o),
(52,0,o),
(82,0,cs),
(104,0,o),
(125,16,o),
(130,43,cs),
(182,340,ls)
);
},
{
closed = 1;
nodes = (
(225,0,o),
(275,17,o),
(292,100,cs),
(308,199,o),
(196,226,o),
(95,225,c),
(81,152,l),
(168,153,o),
(207,141,o),
(203,115,cs),
(199,91,o),
(179,80,o),
(95,80,c),
(81,0,l)
);
},
{
closed = 1;
nodes = (
(266,152,o),
(307,194,o),
(321,267,cs),
(337,361,o),
(242,396,o),
(134,396,c),
(117,317,l),
(212,317,o),
(236,302,o),
(232,280,cs),
(226,248,o),
(217,226,o),
(98,226,c),
(84,153,l)
);
}
);
width = 359;
}
);
metricLeft = B;
metricRight = B;
},
{
glyphname = c.sc;
lastChange = "2022-02-26 10:39:39 +0000";
layers = (
{
layerId = m01;
shapes = (
{
closed = 1;
nodes = (
(171,0,o),
(212,31,o),
(261,103,cs),
(275,125,o),
(275,130,o),
(275,135,cs),
(275,148,o),
(266,158,o),
(254,158,cs),
(240,158,o),
(234,152,o),
(221,134,cs),
(178,72,o),
(152,50,o),
(120,50,cs),
(95,50,o),
(92,71,o),
(92,92,cs),
(92,122,o),
(100,180,o),
(106,209,cs),
(120,278,o),
(135,346,o),
(261,346,cs),
(292,346,o),
(298,345,o),
(306,349,cs),
(319,356,o),
(321,381,o),
(308,390,cs),
(301,394,o),
(293,396,o),
(261,396,cs),
(97,396,o),
(71,301,o),
(55,209,cs),
(53,197,o),
(42,131,o),
(42,93,cs),
(42,51,o),
(56,0,o),
(121,0,cs)
);
}
);
width = 327;
},
{
layerId = m002;
shapes = (
{
closed = 1;
nodes = (
(207,0,o),
(244,34,o),
(291,101,cs),
(304,122,o),
(308,142,o),
(304,157,cs),
(300,175,o),
(286,186,o),
(264,186,cs),
(242,186,o),
(231,177,o),
(214,154,cs),
(177,101,o),
(163,90,o),
(151,90,cs),
(145,90,o),
(145,99,o),
(145,113,cs),
(145,139,o),
(153,178,o),
(157,203,cs),
(168,265,o),
(179,306,o),
(270,306,cs),
(284,306,o),
(310,305,o),
(322,312,cs),
(350,327,o),
(353,369,o),
(325,387,cs),
(316,392,o),
(291,396,o),
(270,396,cs),
(104,396,o),
(77,294,o),
(62,211,cs),
(61,203,o),
(51,148,o),
(51,111,cs),
(51,61,o),
(60,0,o),
(146,0,cs)
);
}
);
width = 368;
}
);
metricLeft = C;
metricRight = C;
},
{
glyphname = d.sc;
lastChange = "2022-02-26 19:36:14 +0000";
layers = (
{
layerId = m01;
shapes = (
{
closed = 1;
nodes = (
(86,0,ls),
(187,0,o),
(281,78,o),
(304,210,cs),
(322,315,o),
(239,396,o),
(133,396,cs),
(112,396,l),
(107,342,l),
(136,342,ls),
(213,342,o),
(267,287,o),
(254,214,cs),
(236,107,o),
(161,50,o),
(86,50,cs),
(60,50,l),
(49,0,l)
);
},
{
closed = 1;
nodes = (
(137,377,o),
(131,396,o),
(113,396,cs),
(96,396,o),
(88,388,o),
(85,369,cs),
(25,29,ls),
(22,14,o),
(32,0,o),
(50,0,cs),
(68,0,o),
(73,12,o),
(75,22,cs),
(134,359,ls)
);
}
);
width = 342;
},
{
layerId = m002;
shapes = (
{
closed = 1;
nodes = (
(113,0,ls),
(214,0,o),
(308,78,o),
(331,205,cs),
(349,313,o),
(262,396,o),
(154,396,cs),
(136,396,l),
(126,316,l),
(157,316,ls),
(214,316,o),
(246,270,o),
(236,216,cs),
(223,129,o),
(170,74,o),
(113,74,cs),
(101,74,l),
(80,0,l)
);
},
{
closed = 1;
nodes = (
(185,367,o),
(169,396,o),
(137,396,cs),
(114,396,o),
(93,385,o),
(87,353,cs),
(34,52,ls),
(29,24,o),
(50,0,o),
(81,0,cs),
(108,0,o),
(123,17,o),
(128,38,c),
(180,336,ls)
);
}
);
width = 380;
}
);
metricLeft = D;
metricRight = D;
},
{
glyphname = e.sc;
lastChange = "2022-02-26 19:36:14 +0000";
layers = (
{
layerId = m01;
shapes = (
{
closed = 1;
nodes = (
(137,378,o),
(132,396,o),
(113,396,cs),
(95,396,o),
(88,388,o),
(85,369,cs),
(25,29,ls),
(23,15,o),
(32,0,o),
(49,0,cs),
(68,0,o),
(73,14,o),
(75,24,cs),
(134,360,ls)
);
},
{
closed = 1;
nodes = (
(236,0,ls),
(253,0,o),
(262,14,o),
(262,27,cs),
(262,40,o),
(253,53,o),
(236,53,cs),
(57,53,l),
(48,0,l)
);
},
{
closed = 1;
nodes = (
(251,174,ls),
(268,174,o),
(277,186,o),
(277,198,cs),
(277,211,o),
(268,224,o),
(251,224,cs),
(87,224,l),
(79,174,l)
);
},
{
closed = 1;
nodes = (
(298,343,ls),
(314,343,o),
(323,354,o),
(323,369,cs),
(323,384,o),
(314,396,o),
(298,396,cs),
(112,396,l),
(103,343,l)
);
}
);
width = 348;
},
{
layerId = m002;
shapes = (
{
closed = 1;
nodes = (
(186,367,o),
(171,396,o),
(137,396,cs),
(112,396,o),
(92,384,o),
(87,353,cs),
(34,52,ls),
(29,25,o),
(50,0,o),
(80,0,cs),
(108,0,o),
(124,18,o),
(128,41,cs),
(181,338,ls)
);
},
{
closed = 1;
nodes = (
(246,0,ls),
(275,0,o),
(294,18,o),
(294,42,cs),
(294,66,o),
(274,77,o),
(246,77,cs),
(94,77,l),
(78,0,l)
);
},
{
closed = 1;
nodes = (
(259,151,ls),
(287,151,o),
(307,164,o),
(307,188,cs),
(307,213,o),
(287,225,o),
(259,225,cs),
(107,225,l),
(93,151,l)
);
},
{
closed = 1;
nodes = (
(301,303,ls),
(328,303,o),
(348,323,o),
(348,349,cs),
(348,376,o),
(328,396,o),
(301,396,cs),
(134,396,l),
(118,303,l)
);
}
);
width = 381;
}
);
metricLeft = E;
metricRight = E;
},
{
glyphname = f.sc;
lastChange = "2022-02-26 19:36:14 +0000";
layers = (
{
layerId = m01;
shapes = (
{
closed = 1;
nodes = (
(138,377,o),
(132,396,o),
(113,396,cs),
(95,396,o),
(88,388,o),
(85,369,cs),
(25,29,ls),
(23,15,o),
(32,0,o),
(49,0,cs),
(68,0,o),
(74,14,o),
(76,24,cs),
(135,359,ls)
);
},
{
closed = 1;
nodes = (
(250,175,ls),
(268,175,o),
(276,187,o),
(276,199,cs),
(276,214,o),
(267,225,o),
(250,225,cs),
(87,225,l),
(79,175,l)
);
},
{
closed = 1;
nodes = (
(298,343,ls),
(314,343,o),
(323,354,o),
(323,369,cs),
(323,384,o),
(314,396,o),
(298,396,cs),
(112,396,l),
(104,343,l)
);
}
);
width = 328;
},
{
layerId = m002;
shapes = (
{
closed = 1;
nodes = (
(186,366,o),
(171,396,o),
(137,396,cs),
(112,396,o),
(92,384,o),
(87,353,cs),
(34,52,ls),
(29,25,o),
(50,0,o),
(80,0,cs),
(108,0,o),
(125,19,o),
(129,40,cs),
(181,336,ls)
);
},
{
closed = 1;
nodes = (
(258,151,ls),
(287,151,o),
(306,168,o),
(306,192,cs),
(306,218,o),
(286,225,o),
(258,225,cs),
(132,225,l),
(118,151,l)
);
},
{
closed = 1;
nodes = (
(301,303,ls),
(328,303,o),
(348,323,o),
(348,349,cs),
(348,376,o),
(328,396,o),
(301,396,cs),
(136,396,l),
(122,303,l)
);
}
);
width = 361;
}
);
metricLeft = F;
metricRight = "=F-20";
},
{
glyphname = g.sc;
lastChange = "2022-02-26 19:36:14 +0000";
layers = (
{
layerId = m01;
shapes = (
{
closed = 1;
nodes = (
(261,224,o),
(260,230,o),
(217,164,cs),
(196,132,o),
(140,48,o),
(107,48,cs),
(95,48,o),
(91,64,o),
(91,89,cs),
(91,125,o),
(102,187,o),
(109,217,cs),
(120,276,o),
(142,343,o),
(269,343,cs),
(301,343,ls),
(316,343,o),
(326,356,o),
(326,370,cs),
(326,383,o),
(316,396,o),
(303,396,cs),
(270,396,ls),
(106,396,o),
(71,300,o),
(55,207,cs),
(53,195,o),
(41,129,o),
(41,92,cs),
(41,49,o),
(58,-2,o),
(105,-2,cs),
(153,-2,o),
(200,52,o),
(245,115,c),
(276,224,l)
);
},
{
closed = 1;
nodes = (
(299,213,o),
(290,224,o),
(275,224,cs),
(258,224,o),
(248,214,o),
(245,198,cs),
(215,29,ls),
(213,17,o),
(220,0,o),
(237,0,cs),
(257,0,o),
(264,14,o),
(266,25,cs),
(296,194,ls)
);
}
);
width = 352;
},
{
layerId = m002;
shapes = (
{
closed = 1;
nodes = (
(268,244,o),
(253,218,o),
(219,165,cs),
(180,105,o),
(155,86,o),
(148,86,cs),
(143,86,o),
(142,105,o),
(146,130,cs),
(152,164,o),
(156,188,o),
(161,218,cs),
(165,240,o),
(169,303,o),
(298,303,cs),
(314,303,ls),
(348,303,o),
(361,328,o),
(362,350,cs),
(363,374,o),
(343,396,o),
(314,396,cs),
(298,396,ls),
(134,396,o),
(80,311,o),
(64,218,cs),
(62,206,o),
(50,139,o),
(50,102,cs),
(50,59,o),
(78,-2,o),
(133,-2,cs),
(181,-2,o),
(228,52,o),
(273,115,c),
(304,244,l)
);
},
{
closed = 1;
nodes = (
(342,212,o),
(330,244,o),
(303,244,cs),
(301,244,o),
(267,237,o),
(263,221,cs),
(218,45,ls),
(214,28,o),
(227,0,o),
(265,0,cs),
(289,0,o),
(309,22,o),
(311,36,cs),
(339,196,ls)
);
}
);
width = 399;
}
);
metricLeft = G;
metricRight = G;
},
{
glyphname = h.sc;
lastChange = "2022-02-26 19:36:14 +0000";
layers = (
{
layerId = m01;
shapes = (
{
closed = 1;
nodes = (
(368,381,o),
(359,395,o),
(341,395,cs),
(326,395,o),
(317,384,o),
(315,371,cs),
(255,30,ls),
(253,17,o),
(259,0,o),
(279,0,cs),
(293,0,o),
(303,10,o),
(305,23,cs),
(365,364,ls)
);
},
{
closed = 1;
nodes = (
(138,381,o),
(129,395,o),
(113,395,cs),
(98,395,o),
(88,385,o),
(85,369,cs),
(25,29,ls),
(23,15,o),
(32,0,o),
(49,0,cs),
(66,0,o),
(73,13,o),
(75,24,cs),
(134,359,ls)
);
},
{
closed = 1;
nodes = (
(295,174,l),
(303,224,l),
(97,224,l),
(89,174,l)
);
}
);
width = 391;
},
{
layerId = m002;
shapes = (
{
closed = 1;
nodes = (
(390,371,o),
(369,395,o),
(338,395,cs),
(313,395,o),
(295,378,o),
(291,355,cs),
(238,53,ls),
(234,28,o),
(250,0,o),
(283,0,cs),
(308,0,o),
(328,17,o),
(332,40,cs),
(385,342,ls)
);
},
{
closed = 1;
nodes = (
(187,373,o),
(165,395,o),
(136,395,cs),
(111,395,o),
(91,378,o),
(87,353,cs),
(34,52,ls),
(29,25,o),
(50,0,o),
(80,0,cs),
(105,0,o),
(124,17,o),
(128,40,cs),
(180,336,ls)
);
},
{
closed = 1;
nodes = (
(275,151,l),
(289,225,l),
(137,225,l),
(123,151,l)
);
}
);
width = 419;
}
);
metricLeft = H;
metricRight = H;
},
{
glyphname = i.sc;
lastChange = "2022-02-26 19:36:14 +0000";
layers = (
{
layerId = m01;
shapes = (
{
closed = 1;
nodes = (
(110,42,l),
(165,358,l),
(114,358,l),
(59,42,l)
);
},
{
closed = 1;
nodes = (
(128,0,o),
(137,12,o),
(137,25,cs),
(137,38,o),
(128,50,o),
(111,50,cs),
(55,50,ls),
(38,50,o),
(29,38,o),
(29,25,cs),
(29,12,o),
(38,0,o),
(55,0,cs),
(111,0,ls)
);
},
{
closed = 1;
nodes = (
(185,345,o),
(193,357,o),
(193,370,cs),
(193,383,o),
(185,396,o),
(167,396,cs),
(112,396,ls),
(94,396,o),
(86,383,o),
(86,370,cs),
(86,357,o),
(94,345,o),
(112,345,cs),
(167,345,ls)
);
}
);
width = 223;
},
{
layerId = m002;
shapes = (
{
closed = 1;
nodes = (
(159,61,l),
(208,334,l),
(113,334,l),
(64,61,l)
);
},
{
closed = 1;
nodes = (
(164,0,o),
(184,13,o),
(184,38,cs),
(184,62,o),
(164,75,o),
(136,75,cs),
(86,75,ls),
(58,75,o),
(38,62,o),
(38,38,cs),
(38,13,o),
(58,0,o),
(86,0,cs),
(136,0,ls)
);
},
{
closed = 1;
nodes = (
(215,320,o),
(234,333,o),
(234,357,cs),
(234,382,o),
(215,396,o),
(186,396,cs),
(137,396,ls),
(108,396,o),
(89,382,o),
(89,357,cs),
(89,333,o),
(108,320,o),
(137,320,cs),
(186,320,ls)
);
}
);
width = 272;
}
);
metricLeft = I;
metricRight = I;
},
{
glyphname = j.sc;
lastChange = "2022-02-26 19:36:14 +0000";
layers = (
{
layerId = m01;
shapes = (
{
closed = 1;
nodes = (
(203,354,l),
(173,184,ls),
(166,144,o),
(159,108,o),
(146,82,cs),
(139,68,o),
(127,60,o),
(106,57,cs),
(91,55,o),
(39,53,o),
(25,53,cs),
(13,53,o),
(0,40,o),
(0,26,cs),
(0,12,o),
(13,0,o),
(25,0,cs),
(43,0,o),
(95,3,o),
(106,4,cs),
(150,10,o),
(174,29,o),
(189,55,cs),
(205,78,o),
(220,159,o),
(224,184,cs),
(254,354,l)
);
},
{
closed = 1;
nodes = (
(324,343,o),
(333,356,o),
(333,369,cs),
(333,382,o),
(324,396,o),
(307,396,cs),
(157,396,ls),
(140,396,o),
(131,384,o),
(131,369,cs),
(131,354,o),
(140,343,o),
(157,343,cs),
(307,343,ls)
);
}
);
width = 358;
},
{
layerId = m002;
shapes = (
{
closed = 1;
nodes = (
(225,331,l),
(200,190,ls),
(194,154,o),
(189,131,o),
(181,109,cs),
(177,99,o),
(159,95,o),
(150,94,cs),
(139,93,o),
(91,93,o),
(79,93,cs),
(54,93,o),
(32,70,o),
(32,46,cs),
(32,20,o),
(55,0,o),
(79,0,cs),
(85,0,o),
(110,0,o),
(121,0,cs),
(198,0,o),
(239,23,o),
(263,60,cs),
(276,80,o),
(291,160,o),
(295,182,cs),
(320,331,l)
);
},
{
closed = 1;
nodes = (
(371,318,o),
(391,333,o),
(391,357,cs),
(391,381,o),
(372,396,o),
(343,396,cs),
(211,396,ls),
(182,396,o),
(163,384,o),
(163,357,cs),
(163,331,o),
(182,318,o),
(211,318,cs),
(343,318,ls)
);
}
);
width = 423;
}
);
metricLeft = J;
metricRight = J;
},
{
glyphname = k.sc;
lastChange = "2022-02-26 19:36:14 +0000";
layers = (
{
layerId = m01;
shapes = (
{
closed = 1;
nodes = (
(139,382,o),
(131,396,o),
(114,396,cs),
(99,396,o),
(89,385,o),
(86,369,cs),
(26,32,ls),
(23,16,o),
(34,0,o),
(50,0,cs),
(68,0,o),
(74,15,o),
(76,28,cs),
(136,363,ls)
);
},
{
closed = 1;
nodes = (
(89,210,l),
(89,179,l),
(202,16,ls),
(209,6,o),
(218,0,o),
(228,0,cs),
(240,0,o),
(249,8,o),
(251,18,c),
(254,25,o),
(252,32,o),
(245,42,cs),
(128,210,l)
);
},
{
closed = 1;
nodes = (
(124,202,l),
(298,346,ls),
(307,353,o),
(312,362,o),
(314,369,cs),
(316,383,o),
(306,396,o),
(292,396,cs),
(285,396,o),
(275,393,o),
(266,385,cs),
(89,238,l),
(89,202,l)
);
}
);
width = 339;
},
{
layerId = m002;
shapes = (
{
closed = 1;
nodes = (
(187,372,o),
(167,396,o),
(137,396,cs),
(112,396,o),
(92,378,o),
(88,353,cs),
(35,55,ls),
(29,27,o),
(51,0,o),
(81,0,cs),
(109,0,o),
(125,20,o),
(129,44,cs),
(182,340,ls)
);
},
{
closed = 1;
nodes = (
(90,232,l),
(90,174,l),
(194,24,ls),
(205,8,o),
(222,0,o),
(238,0,cs),
(260,0,o),
(279,14,o),
(283,34,c),
(287,46,o),
(284,59,o),
(274,73,cs),
(164,232,l)
);
},
{
closed = 1;
nodes = (
(156,179,l),
(317,312,ls),
(329,321,o),
(337,334,o),
(339,345,cs),
(343,373,o),
(322,396,o),
(295,396,cs),
(283,396,o),
(267,391,o),
(254,379,cs),
(90,243,l),
(90,179,l)
);
}
);
width = 372;
}
);
metricLeft = K;
metricRight = K;
},
{
glyphname = l.sc;
lastChange = "2022-02-26 19:36:14 +0000";
layers = (
{
layerId = m01;
shapes = (
{
closed = 1;
nodes = (
(138,381,o),
(131,395,o),
(113,395,cs),
(98,395,o),
(88,385,o),
(85,369,cs),
(25,29,ls),
(22,14,o),
(32,0,o),
(50,0,cs),
(68,0,o),
(73,14,o),
(75,24,cs),
(135,363,ls)
);
},
{
closed = 1;
nodes = (
(237,0,ls),
(253,0,o),
(262,14,o),
(262,27,cs),
(262,40,o),
(253,53,o),
(237,53,cs),
(49,53,l),
(49,0,l)
);
}
);
width = 348;
},
{
layerId = m002;
shapes = (
{
closed = 1;
nodes = (
(187,372,o),
(167,395,o),
(137,395,cs),
(113,395,o),
(92,379,o),
(87,353,cs),
(34,52,ls),
(29,24,o),
(50,0,o),
(81,0,cs),
(108,0,o),
(124,18,o),
(128,41,cs),
(181,340,ls)
);
},
{
closed = 1;
nodes = (
(247,0,ls),
(275,0,o),
(294,17,o),
(294,41,cs),
(294,64,o),
(275,77,o),
(247,77,cs),
(80,77,l),
(80,0,l)
);
}
);
width = 381;
}
);
metricLeft = L;
metricRight = L;
},
{
glyphname = m.sc;
lastChange = "2022-02-26 19:36:14 +0000";
layers = (
{
layerId = m01;
shapes = (
{
closed = 1;
nodes = (
(232,396,l),
(217,396,o),
(211,388,o),
(203,373,cs),
(28,39,ls),
(19,21,o),
(28,0,o),
(48,0,cs),
(56,0,o),
(67,5,o),
(75,21,cs),
(235,327,l)
);
},
{
closed = 1;
nodes = (
(256,374,ls),
(255,385,o),
(249,396,o),
(232,396,c),
(209,327,l),
(233,24,ls),
(234,11,o),
(240,0,o),
(257,0,c),
(281,50,l)
);
},
{
closed = 1;
nodes = (
(272,0,o),
(279,8,o),
(284,17,cs),
(446,327,l),
(443,396,l),
(430,396,o),
(421,388,o),
(416,378,cs),
(249,58,l),
(256,0,l)
);
},
{
closed = 1;
nodes = (
(467,384,o),
(457,396,o),
(443,396,c),
(421,327,l),
(446,25,ls),
(447,12,o),
(455,0,o),
(472,0,cs),
(488,0,o),
(497,13,o),
(496,28,cs),
(468,367,ls)
);
}
);
width = 582;
},
{
layerId = m002;
shapes = (
{
closed = 1;
nodes = (
(243,396,l),
(221,396,o),
(209,393,o),
(194,364,cs),
(39,67,ls),
(23,36,o),
(44,0,o),
(79,0,cs),
(95,0,o),
(114,9,o),
(125,31,cs),
(270,307,l)
);
},
{
closed = 1;
nodes = (
(288,356,ls),
(286,385,o),
(265,396,o),
(244,396,c),
(197,315,l),
(218,42,ls),
(220,11,o),
(242,0,o),
(264,0,c),
(310,63,l)
);
},
{
closed = 1;
nodes = (
(288,0,o),
(298,5,o),
(310,28,cs),
(456,307,l),
(438,396,l),
(412,396,o),
(394,389,o),
(382,366,cs),
(231,78,l),
(265,0,l)
);
},
{
closed = 1;
nodes = (
(481,389,o),
(464,396,o),
(437,396,c),
(391,315,l),
(414,43,ls),
(416,19,o),
(435,0,o),
(462,0,cs),
(491,0,o),
(511,22,o),
(509,50,cs),
(484,350,ls)
);
}
);
width = 596;
}
);
metricLeft = M;
metricRight = M;
},
{
glyphname = n.sc;
lastChange = "2022-02-26 19:36:14 +0000";
layers = (
{
layerId = m01;
shapes = (
{
closed = 1;
nodes = (
(139,376,ls),
(134,387,o),
(127,396,o),
(111,396,c),
(101,340,l),
(253,22,ls),
(258,12,o),
(266,0,o),
(280,0,c),
(294,52,l)
);
},
{
closed = 1;
nodes = (
(112,396,l),
(96,396,o),
(88,386,o),
(85,369,cs),
(25,29,ls),
(23,15,o),
(32,0,o),
(49,0,cs),
(66,0,o),
(73,13,o),
(75,26,cs),
(131,340,l)
);
},
{
closed = 1;
nodes = (
(296,0,o),
(304,12,o),
(306,22,cs),
(365,363,ls),
(368,381,o),
(360,395,o),
(343,395,cs),
(328,395,o),
(318,385,o),
(315,369,cs),
(260,52,l),
(281,0,l)
);
}
);
width = 392;
},
{
layerId = m002;
shapes = (
{
closed = 1;
nodes = (
(183,366,ls),
(172,389,o),
(153,396,o),
(133,396,c),
(100,321,l),
(238,32,ls),
(247,14,o),
(257,0,o),
(295,0,c),
(323,71,l)
);
},
{
closed = 1;
nodes = (
(132,396,l),
(109,396,o),
(94,390,o),
(87,353,cs),
(34,52,ls),
(29,25,o),
(50,0,o),
(80,0,cs),
(105,0,o),
(126,17,o),
(130,42,cs),
(180,326,l)
);
},
{
closed = 1;
nodes = (
(320,0,o),
(329,15,o),
(333,38,cs),
(385,341,ls),
(390,368,o),
(372,395,o),
(340,395,cs),
(316,395,o),
(294,379,o),
(290,353,cs),
(241,67,l),
(296,0,l)
);
}
);
width = 420;
}
);
metricLeft = N;
metricRight = N;
},
{
glyphname = o.sc;
lastChange = "2022-02-26 10:39:39 +0000";
layers = (
{
layerId = m01;
shapes = (
{
closed = 1;
nodes = (
(230,-3,o),
(342,153,o),
(350,261,cs),
(356,331,o),
(321,395,o),
(229,395,cs),
(141,395,o),
(90,336,o),
(64,248,cs),
(57,225,o),
(52,198,o),
(50,171,cs),
(43,92,o),
(62,-3,o),
(137,-3,cs)
);
},
{
closed = 1;
nodes = (
(104,50,o),
(96,113,o),
(100,164,cs),
(102,187,o),
(106,211,o),
(111,230,cs),
(132,306,o),
(164,342,o),
(226,342,cs),
(296,342,o),
(303,294,o),
(300,259,cs),
(291,170,o),
(185,50,o),
(136,50,cs)
);
}
);
width = 380;
},
{
layerId = m002;
shapes = (
{
closed = 1;
nodes = (
(259,-3,o),
(365,148,o),
(373,252,cs),
(379,325,o),
(339,396,o),
(241,396,cs),
(149,396,o),
(96,333,o),
(71,249,cs),
(65,227,o),
(59,201,o),
(58,175,cs),
(51,100,o),
(71,-3,o),
(160,-3,cs)
);
},
{
closed = 1;
nodes = (
(150,90,o),
(148,123,o),
(152,166,cs),
(154,186,o),
(157,206,o),
(161,220,cs),
(178,283,o),
(195,303,o),
(238,303,cs),
(279,303,o),
(282,282,o),
(279,254,cs),
(272,182,o),
(190,90,o),
(159,90,cs)
);
}
);
width = 414;
}
);
metricLeft = O;
metricRight = O;
},
{
glyphname = p.sc;
lastChange = "2022-02-26 19:36:14 +0000";
layers = (
{
layerId = m01;
shapes = (
{
closed = 1;
nodes = (
(179,185,o),
(302,178,o),
(302,283,cs),
(302,363,o),
(238,396,o),
(112,396,c),
(112,343,l),
(214,344,o),
(252,324,o),
(252,286,cs),
(252,231,o),
(161,238,o),
(97,238,c),
(88,185,l)
);
},
{
closed = 1;
nodes = (
(138,383,o),
(124,396,o),
(113,396,cs),
(95,396,o),
(88,384,o),
(85,369,cs),
(25,29,ls),
(23,15,o),
(32,0,o),
(49,0,cs),
(66,0,o),
(73,14,o),
(75,24,cs),
(135,365,ls)
);
}
);
width = 329;
},
{
layerId = m002;
shapes = (
{
closed = 1;
nodes = (
(154,151,o),
(305,139,o),
(329,273,cs),
(344,358,o),
(250,396,o),
(135,396,c),
(135,303,l),
(228,305,o),
(245,301,o),
(237,261,cs),
(231,232,o),
(165,222,o),
(102,222,c),
(86,151,l)
);
},
{
closed = 1;
nodes = (
(187,373,o),
(162,396,o),
(137,396,cs),
(111,396,o),
(92,381,o),
(87,353,cs),
(34,52,ls),
(29,25,o),
(50,0,o),
(80,0,cs),
(107,0,o),
(125,20,o),
(129,41,cs),
(182,342,ls)
);
}
);
width = 366;
}
);
metricLeft = P;
metricRight = P;
},
{
glyphname = q.sc;
lastChange = "2022-02-26 19:36:14 +0000";
layers = (
{
layerId = m01;
shapes = (
{
closed = 1;
nodes = (
(230,-2,o),
(339,138,o),
(348,248,cs),
(356,325,o),
(315,396,o),
(227,396,cs),
(140,396,o),
(90,341,o),
(64,249,cs),
(57,225,o),
(52,198,o),
(49,171,cs),
(43,91,o),
(62,-2,o),
(138,-2,cs)
);
},
{
closed = 1;
nodes = (
(193,120,o),
(176,123,o),
(164,113,cs),
(153,105,o),
(151,92,o),
(162,76,cs),
(222,-11,ls),
(231,-25,o),
(245,-31,o),
(257,-25,cs),
(269,-18,o),
(274,2,o),
(264,16,cs),
(203,105,ls)
);
},
{
closed = 1;
nodes = (
(101,51,o),
(95,111,o),
(99,161,cs),
(102,187,o),
(106,211,o),
(112,232,cs),
(133,306,o),
(161,343,o),
(223,343,cs),
(286,343,o),
(302,295,o),
(298,250,cs),
(289,162,o),
(195,51,o),
(138,51,cs)
);
}
);
width = 380;
},
{
layerId = m002;
shapes = (
{
closed = 1;
nodes = (
(259,-2,o),
(363,135,o),
(372,240,cs),
(380,319,o),
(335,396,o),
(240,396,cs),
(149,396,o),
(97,338,o),
(71,249,cs),
(64,226,o),
(60,200,o),
(57,176,cs),
(52,100,o),
(71,-2,o),
(161,-2,cs)
);
},
{
closed = 1;
nodes = (
(226,145,o),
(200,158,o),
(179,140,cs),
(159,125,o),
(160,102,o),
(177,77,cs),
(229,0,ls),
(245,-24,o),
(272,-30,o),
(291,-18,cs),
(314,-4,o),
(310,19,o),
(295,42,cs),
(242,121,ls)
);
},
{
closed = 1;
nodes = (
(151,88,o),
(148,121,o),
(151,163,cs),
(154,185,o),
(158,205,o),
(162,222,cs),
(180,284,o),
(194,303,o),
(236,303,cs),
(274,303,o),
(282,281,o),
(278,246,cs),
(269,162,o),
(199,88,o),
(161,88,cs)
);
}
);
width = 415;
}
);
metricLeft = Q;
metricRight = Q;
},
{
glyphname = r.sc;
lastChange = "2022-02-26 19:36:14 +0000";
layers = (
{
layerId = m01;
shapes = (
{
closed = 1;
nodes = (
(181,175,o),
(283,179,o),
(302,281,cs),
(316,362,o),
(237,396,o),
(112,396,c),
(112,343,l),
(217,344,o),
(259,325,o),
(252,288,cs),
(242,231,o),
(170,227,o),
(96,227,c),
(88,175,l)
);
},
{
closed = 1;
nodes = (
(88,188,l),
(211,15,ls),
(219,4,o),
(226,0,o),
(233,0,cs),
(257,0,o),
(265,26,o),
(253,43,cs),
(149,188,l)
);
},
{
closed = 1;
nodes = (
(138,381,o),
(132,396,o),
(113,396,cs),
(95,396,o),
(88,384,o),
(85,369,cs),
(26,33,ls),
(23,15,o),
(33,0,o),
(49,0,cs),
(68,0,o),
(75,14,o),
(77,28,cs),
(135,363,ls)
);
}
);
width = 344;
},
{
layerId = m002;
shapes = (
{
closed = 1;
nodes = (
(170,151,o),
(307,145,o),
(329,267,cs),
(346,363,o),
(251,396,o),
(136,396,c),
(136,303,l),
(245,303,o),
(238,284,o),
(235,268,cs),
(229,233,o),
(177,225,o),
(100,225,c),
(86,151,l)
);
},
{
closed = 1;
nodes = (
(97,172,l),
(204,23,ls),
(216,7,o),
(229,0,o),
(243,0,cs),
(284,0,o),
(305,43,o),
(282,74,cs),
(210,172,l)
);
},
{
closed = 1;
nodes = (
(187,374,o),
(166,396,o),
(137,396,cs),
(111,396,o),
(92,381,o),
(87,353,cs),
(35,56,ls),
(30,26,o),
(50,0,o),
(80,0,cs),
(108,0,o),
(126,18,o),
(130,44,cs),
(181,340,ls)
);
}
);
width = 378;
}
);
metricLeft = R;
metricRight = R;
},
{
glyphname = s.sc;
lastChange = "2022-02-26 19:36:14 +0000";
layers = (
{
layerId = m01;
shapes = (
{
closed = 1;
nodes = (
(174,0,o),
(282,31,o),
(282,117,cs),
(282,172,o),
(237,203,o),
(227,210,cs),
(212,220,o),
(199,229,o),
(188,237,cs),
(142,269,o),
(122,282,o),
(122,295,cs),
(122,320,o),
(175,343,o),
(217,343,cs),
(305,343,ls),
(319,343,o),
(330,356,o),
(330,370,cs),
(330,391,o),
(314,396,o),
(305,396,cs),
(218,396,ls),
(139,396,o),
(72,348,o),
(72,293,cs),
(72,253,o),
(107,229,o),
(159,194,cs),
(169,187,o),
(180,179,o),
(192,171,cs),
(207,160,o),
(232,142,o),
(232,116,cs),
(232,69,o),
(152,53,o),
(116,53,cs),
(48,53,ls),
(34,53,o),
(23,39,o),
(23,26,cs),
(23,5,o),
(40,0,o),
(48,0,cs),
(116,0,ls)
);
}
);
width = 340;
},
{
layerId = m002;
shapes = (
{
closed = 1;
nodes = (
(200,0,o),
(318,31,o),
(318,126,cs),
(318,187,o),
(263,221,o),
(255,227,cs),
(243,236,o),
(234,242,o),
(222,250,cs),
(198,266,o),
(173,280,o),
(173,285,cs),
(173,292,o),
(200,303,o),
(232,303,cs),
(312,303,ls),
(339,303,o),
(359,326,o),
(359,350,cs),
(359,382,o),
(339,396,o),
(312,396,cs),
(232,396,ls),
(151,396,o),
(77,346,o),
(77,282,cs),
(77,235,o),
(119,209,o),
(166,175,cs),
(174,169,o),
(185,162,o),
(195,155,cs),
(208,146,o),
(220,137,o),
(220,125,cs),
(220,103,o),
(171,93,o),
(142,93,cs),
(81,93,ls),
(55,93,o),
(34,69,o),
(34,46,cs),
(34,14,o),
(61,0,o),
(81,0,cs),
(142,0,ls)
);
}
);
width = 383;
}
);
metricLeft = S;
metricRight = S;
},
{
glyphname = t.sc;
lastChange = "2022-02-26 19:36:14 +0000";
layers = (
{
layerId = m01;
shapes = (
{
closed = 1;
nodes = (
(151,358,l),
(94,29,ls),
(92,15,o),
(100,0,o),
(118,0,cs),
(136,0,o),
(142,14,o),
(144,24,cs),
(202,358,l)
);
},
{
closed = 1;
nodes = (
(288,342,o),
(297,353,o),
(297,368,cs),
(297,383,o),
(288,395,o),
(272,395,cs),
(87,395,ls),
(70,395,o),
(61,383,o),
(61,368,cs),
(61,353,o),
(70,342,o),
(87,342,cs),
(272,342,ls)
);
}
);
width = 323;
},
{
layerId = m002;
shapes = (
{
closed = 1;
nodes = (
(159,313,l),
(113,52,ls),
(108,25,o),
(129,0,o),
(160,0,cs),
(187,0,o),
(205,18,o),
(209,40,cs),
(257,313,l)
);
},
{
closed = 1;
nodes = (
(323,302,o),
(343,322,o),
(343,348,cs),
(343,375,o),
(323,395,o),
(296,395,cs),
(133,395,ls),
(105,395,o),
(85,375,o),
(85,348,cs),
(85,322,o),
(105,302,o),
(133,302,cs),
(296,302,ls)
);
}
);
width = 376;
}
);
metricLeft = T;
metricRight = T;
},
{
glyphname = u.sc;
lastChange = "2022-02-26 19:36:14 +0000";
layers = (
{
layerId = m01;
shapes = (
{
closed = 1;
nodes = (
(293,305,l),
(281,254,o),
(259,227,o),
(248,209,cs),
(213,151,o),
(134,50,o),
(95,50,cs),
(81,50,o),
(84,76,o),
(91,113,cs),
(136,364,ls),
(139,379,o),
(131,394,o),
(115,395,cs),
(101,395,o),
(89,385,o),
(86,367,cs),
(41,118,ls),
(27,38,o),
(48,-2,o),
(90,-2,cs),
(144,-2,o),
(220,70,o),
(305,196,c),
(305,305,l)
);
},
{
closed = 1;
nodes = (
(358,381,o),
(348,395,o),
(330,395,cs),
(316,395,o),
(306,385,o),
(304,371,cs),
(244,29,ls),
(241,12,o),
(253,-1,o),
(268,-1,cs),
(281,-1,o),
(292,9,o),
(294,23,cs),
(355,366,ls)
);
}
);
width = 380;
},
{
layerId = m002;
shapes = (
{
closed = 1;
nodes = (
(276,316,l),
(269,264,o),
(251,232,o),
(239,213,cs),
(208,161,o),
(152,90,o),
(143,90,cs),
(138,90,o),
(142,119,o),
(147,148,cs),
(182,341,ls),
(187,368,o),
(169,394,o),
(140,396,cs),
(115,396,o),
(93,379,o),
(88,352,cs),
(48,131,ls),
(32,44,o),
(63,-2,o),
(117,-2,cs),
(179,-2,o),
(244,77,o),
(322,194,c),
(332,316,l)
);
},
{
closed = 1;
nodes = (
(381,371,o),
(360,396,o),
(329,396,cs),
(305,396,o),
(285,378,o),
(281,355,cs),
(228,52,ls),
(223,23,o),
(246,-1,o),
(274,-1,cs),
(298,-1,o),
(318,16,o),
(322,39,cs),
(376,343,ls)
);
}
);
width = 409;
}
);
metricLeft = U;
metricRight = U;
},
{
glyphname = v.sc;
lastChange = "2022-02-26 19:36:14 +0000";
layers = (
{
layerId = m01;
shapes = (
{
closed = 1;
nodes = (
(153,0,o),
(163,13,o),
(167,21,cs),
(343,358,ls),
(353,377,o),
(340,395,o),
(324,395,cs),
(308,395,o),
(301,386,o),
(294,373,cs),
(129,57,l),
(137,0,l)
);
},
{
closed = 1;
nodes = (
(136,370,ls),
(135,384,o),
(127,395,o),
(110,395,cs),
(93,395,o),
(85,381,o),
(86,367,cs),
(114,28,ls),
(115,13,o),
(125,0,o),
(138,0,c),
(162,57,l)
);
}
);
width = 371;
},
{
layerId = m002;
shapes = (
{
closed = 1;
nodes = (
(173,0,o),
(196,11,o),
(207,32,cs),
(362,329,ls),
(379,362,o),
(356,395,o),
(323,395,cs),
(300,395,o),
(283,383,o),
(273,364,cs),
(123,77,l),
(154,0,l)
);
},
{
closed = 1;
nodes = (
(182,352,ls),
(180,377,o),
(161,395,o),
(134,395,cs),
(104,395,o),
(87,372,o),
(87,347,c),
(112,46,ls),
(115,13,o),
(137,0,o),
(155,0,c),
(205,69,l)
);
}
);
width = 400;
}
);
metricLeft = V;
metricRight = V;
},
{
glyphname = w.sc;
lastChange = "2022-02-26 19:36:14 +0000";
layers = (
{
layerId = m01;
shapes = (
{
closed = 1;
nodes = (
(364,0,o),
(373,10,o),
(379,21,cs),
(555,358,ls),
(564,375,o),
(553,396,o),
(536,396,cs),
(523,396,o),
(512,386,o),
(505,373,cs),
(343,63,l),
(350,0,l)
);
},
{
closed = 1;
nodes = (
(136,369,ls),
(135,383,o),
(127,396,o),
(110,396,cs),
(93,396,o),
(85,381,o),
(86,367,cs),
(114,28,ls),
(115,14,o),
(124,0,o),
(139,0,c),
(161,63,l)
);
},
{
closed = 1;
nodes = (
(153,0,o),
(160,9,o),
(167,22,cs),
(331,337,l),
(322,396,l),
(309,396,o),
(299,383,o),
(294,374,cs),
(132,63,l),
(138,0,l)
);
},
{
closed = 1;
nodes = (
(349,370,ls),
(348,384,o),
(337,396,o),
(321,396,c),
(302,337,l),
(326,22,ls),
(327,10,o),
(337,0,o),
(351,0,c),
(374,63,l)
);
}
);
width = 583;
},
{
layerId = m002;
shapes = (
{
closed = 1;
nodes = (
(369,0,o),
(382,8,o),
(394,30,cs),
(550,329,ls),
(567,361,o),
(545,396,o),
(511,396,cs),
(490,396,o),
(471,383,o),
(461,364,cs),
(314,83,l),
(347,0,l)
);
},
{
closed = 1;
nodes = (
(183,351,ls),
(181,379,o),
(159,396,o),
(134,396,cs),
(102,396,o),
(86,370,o),
(88,346,cs),
(112,46,ls),
(114,15,o),
(123,0,o),
(147,0,c),
(205,76,l)
);
},
{
closed = 1;
nodes = (
(172,0,o),
(194,9,o),
(206,31,cs),
(355,317,l),
(322,396,l),
(302,396,o),
(288,388,o),
(275,364,cs),
(127,83,l),
(148,0,l)
);
},
{
closed = 1;
nodes = (
(370,351,l),
(369,383,o),
(347,396,o),
(323,396,c),
(279,324,l),
(300,40,ls),
(302,9,o),
(327,0,o),
(346,0,c),
(393,76,l)
);
}
);
width = 588;
}
);
metricLeft = W;
metricRight = W;
},
{
glyphname = x.sc;
lastChange = "2022-02-26 19:36:14 +0000";
layers = (
{
layerId = m01;
shapes = (
{
closed = 1;
nodes = (
(365,365,o),
(366,384,o),
(355,392,cs),
(344,399,o),
(325,396,o),
(314,383,cs),
(31,42,ls),
(21,30,o),
(23,13,o),
(33,5,cs),
(45,-3,o),
(62,-3,o),
(72,10,cs),
(355,351,l)
);
},
{
closed = 1;
nodes = (
(129,393,o),
(115,399,o),
(103,394,cs),
(89,390,o),
(82,373,o),
(90,356,cs),
(251,18,ls),
(259,1,o),
(275,-4,o),
(289,3,cs),
(300,10,o),
(305,24,o),
(299,37,cs),
(137,377,ls)
);
}
);
width = 387;
},
{
layerId = m002;
shapes = (
{
closed = 1;
nodes = (
(389,339,o),
(390,372,o),
(365,389,cs),
(346,402,o),
(312,397,o),
(295,376,cs),
(46,75,ls),
(28,53,o),
(31,26,o),
(50,10,cs),
(71,-6,o),
(105,-3,o),
(123,18,cs),
(373,320,ls)
);
},
{
closed = 1;
nodes = (
(168,392,o),
(141,402,o),
(119,392,c),
(93,384,o),
(80,356,o),
(93,328,cs),
(236,29,ls),
(249,1,o),
(284,-8,o),
(307,6,cs),
(327,20,o),
(336,42,o),
(325,65,cs),
(181,366,ls)
);
}
);
width = 417;
}
);
metricLeft = X;
metricRight = X;
},
{
glyphname = y.sc;
lastChange = "2022-02-26 19:36:14 +0000";
layers = (
{
layerId = m01;
shapes = (
{
closed = 1;
nodes = (
(331,351,ls),
(343,366,o),
(341,382,o),
(330,390,cs),
(318,400,o),
(303,396,o),
(292,382,cs),
(153,215,l),
(183,171,l)
);
},
{
closed = 1;
nodes = (
(148,208,l),
(116,29,ls),
(113,14,o),
(123,0,o),
(140,0,cs),
(159,0,o),
(165,14,o),
(167,24,cs),
(198,208,l)
);
},
{
closed = 1;
nodes = (
(191,215,l),
(111,377,ls),
(104,391,o),
(92,400,o),
(75,394,cs),
(62,389,o),
(58,372,o),
(65,357,cs),
(153,175,l)
);
}
);
width = 364;
},
{
layerId = m002;
shapes = (
{
closed = 1;
nodes = (
(370,320,l),
(386,342,o),
(387,368,o),
(365,385,cs),
(346,401,o),
(314,399,o),
(294,376,cs),
(160,214,l),
(217,134,l)
);
},
{
closed = 1;
nodes = (
(167,230,l),
(135,52,ls),
(130,24,o),
(151,0,o),
(181,0,cs),
(209,0,o),
(225,19,o),
(230,40,c),
(261,230,l)
);
},
{
closed = 1;
nodes = (
(256,209,l),
(178,366,ls),
(165,392,o),
(138,402,o),
(114,392,cs),
(87,382,o),
(80,352,o),
(91,329,cs),
(185,136,l)
);
}
);
width = 414;
}
);
metricLeft = Y;
metricRight = Y;
},
{
glyphname = z.sc;
lastChange = "2022-02-26 19:36:14 +0000";
layers = (
{
layerId = m01;
shapes = (
{
closed = 1;
nodes = (
(362,360,o),
(363,373,o),
(358,383,cs),
(354,389,o),
(345,395,o),
(333,395,cs),
(326,395,o),
(319,387,o),
(315,383,cs),
(31,40,ls),
(26,33,o),
(21,23,o),
(26,13,cs),
(30,5,o),
(39,0,o),
(54,0,cs),
(62,0,o),
(68,6,o),
(72,10,cs),
(354,351,ls)
);
},
{
closed = 1;
nodes = (
(274,0,ls),
(291,0,o),
(300,11,o),
(300,26,cs),
(300,41,o),
(291,53,o),
(274,53,cs),
(99,53,l),
(53,0,l)
);
},
{
closed = 1;
nodes = (
(335,395,l),
(111,395,ls),
(94,395,o),
(85,381,o),
(85,368,cs),
(85,355,o),
(94,342,o),
(111,342,cs),
(290,342,l)
);
}
);
width = 386;
},
{
layerId = m002;
shapes = (
{
closed = 1;
nodes = (
(386,333,o),
(386,354,o),
(378,372,cs),
(370,386,o),
(352,395,o),
(333,395,cs),
(323,395,o),
(304,386,o),
(297,380,c),
(45,75,ls),
(35,62,o),
(30,44,o),
(38,26,cs),
(45,10,o),
(63,0,o),
(86,0,cs),
(102,0,o),
(116,8,o),
(124,17,cs),
(373,318,ls)
);
},
{
closed = 1;
nodes = (
(281,0,ls),
(309,0,o),
(329,20,o),
(329,46,cs),
(329,72,o),
(309,93,o),
(281,93,cs),
(165,93,l),
(84,0,l)
);
},
{
closed = 1;
nodes = (
(335,395,l),
(136,395,ls),
(107,395,o),
(88,372,o),
(88,348,cs),
(88,324,o),
(108,302,o),
(136,302,cs),
(256,302,l)
);
}
);
width = 417;
}
);
metricLeft = Z;
metricRight = Z;
},
{
glyphname = zero;
lastChange = "2022-02-26 17:56:04 +0000";
layers = (
{
layerId = m01;
shapes = (
{
closed = 1;
nodes = (
(289,-3,o),
(458,228,o),
(458,402,cs),
(458,477,o),
(429,568,o),
(323,568,cs),
(134,568,o),
(57,280,o),
(57,160,cs),
(57,81,o),
(91,-4,o),
(166,-4,cs)
);
},
{
closed = 1;
nodes = (
(134,47,o),
(109,84,o),
(109,155,cs),
(109,279,o),
(188,517,o),
(325,517,cs),
(390,517,o),
(406,463,o),
(406,405,cs),
(406,212,o),
(230,47,o),
(165,47,cs)
);
}
);
width = 463;
},
{
layerId = m002;
shapes = (
{
closed = 1;
nodes = (
(327,-3,o),
(492,223,o),
(492,395,cs),
(492,471,o),
(460,568,o),
(340,568,cs),
(140,568,o),
(65,290,o),
(65,172,cs),
(65,91,o),
(102,-4,o),
(192,-4,cs)
);
},
{
closed = 1;
nodes = (
(176,88,o),
(164,107,o),
(164,168,cs),
(164,281,o),
(232,476,o),
(342,476,cs),
(384,476,o),
(393,449,o),
(393,398,cs),
(393,225,o),
(242,88,o),
(192,88,cs)
);
}
);
width = 508;
}
);
metricLeft = O;
metricRight = O;
unicode = 48;
},
{
glyphname = one;
lastChange = "2022-02-26 19:36:14 +0000";
layers = (
{
layerId = m01;
shapes = (
{
closed = 1;
nodes = (
(174,560,o),
(163,568,o),
(150,568,cs),
(137,568,o),
(123,561,o),
(120,543,cs),
(29,28,ls),
(26,9,o),
(38,0,o),
(51,0,cs),
(63,0,o),
(76,6,o),
(79,23,cs),
(171,543,ls)
);
}
);
width = 161;
},
{
layerId = m002;
shapes = (
{
closed = 1;
nodes = (
(227,548,o),
(203,568,o),
(176,568,cs),
(153,568,o),
(127,554,o),
(122,526,cs),
(38,51,ls),
(32,18,o),
(58,0,o),
(85,0,cs),
(107,0,o),
(132,12,o),
(137,39,cs),
(222,518,ls)
);
}
);
width = 221;
}
);
metricLeft = N;
metricRight = N;
unicode = 49;
},
{
glyphname = two;
lastChange = "2022-02-26 19:36:14 +0000";
layers = (
{
layerId = m01;
shapes = (
{
closed = 1;
nodes = (
(123,49,l),
(180,115,o),
(308,263,o),
(321,278,cs),
(446,431,o),
(457,501,o),
(378,549,cs),
(309,591,o),
(190,558,o),
(127,505,cs),
(103,485,o),
(107,472,o),
(115,463,cs),
(123,454,o),
(139,451,o),
(164,471,cs),
(216,513,o),
(312,531,o),
(355,505,cs),
(405,475,o),
(352,393,o),
(300,332,cs),
(274,301,o),
(171,185,o),
(36,35,cs),
(19,16,o),
(30,0,o),
(52,0,c),
(73,0,l)
);
},
{
closed = 1;
nodes = (
(324,0,ls),
(344,0,o),
(350,13,o),
(350,25,cs),
(350,37,o),
(344,50,o),
(324,50,cs),
(69,50,l),
(69,0,l)
);
}
);
width = 417;
},
{
layerId = m002;
shapes = (
{
closed = 1;
nodes = (
(169,49,l),
(224,112,o),
(344,251,o),
(355,264,cs),
(480,417,o),
(494,491,o),
(403,547,cs),
(328,593,o),
(200,558,o),
(136,504,cs),
(102,476,o),
(108,454,o),
(125,434,cs),
(137,421,o),
(167,413,o),
(205,443,cs),
(250,479,o),
(323,493,o),
(355,473,cs),
(382,457,o),
(345,398,o),
(298,343,cs),
(272,313,o),
(175,205,o),
(50,65,cs),
(19,29,o),
(44,0,o),
(84,0,cs),
(127,0,l)
);
},
{
closed = 1;
nodes = (
(339,0,ls),
(369,0,o),
(389,14,o),
(389,41,cs),
(389,65,o),
(371,86,o),
(339,86,cs),
(83,86,l),
(83,0,l)
);
}
);
width = 463;
}
);
metricLeft = N;
metricRight = O;
unicode = 50;
},
{
glyphname = three;
lastChange = "2022-02-26 19:36:14 +0000";
layers = (
{
layerId = m01;
shapes = (
{
closed = 1;
nodes = (
(206,296,o),
(243,305,o),
(271,305,cs),
(330,305,o),
(350,266,o),
(350,225,cs),
(350,125,o),
(232,47,o),
(144,47,cs),
(120,47,o),
(98,53,o),
(81,66,cs),
(57,84,o),
(43,72,o),
(38,65,cs),
(33,58,o),
(28,45,o),
(53,25,cs),
(77,5,o),
(109,-4,o),
(143,-4,cs),
(257,-4,o),
(400,98,o),
(400,226,cs),
(400,303,o),
(349,354,o),
(266,354,cs),
(230,354,o),
(188,345,o),
(142,324,c),
(158,275,l)
);
},
{
closed = 1;
nodes = (
(279,355,o),
(397,437,o),
(397,499,cs),
(397,542,o),
(357,568,o),
(298,568,cs),
(250,568,o),
(189,551,o),
(129,511,cs),
(104,495,o),
(109,478,o),
(114,470,cs),
(120,460,o),
(136,455,o),
(149,464,cs),
(210,505,o),
(267,522,o),
(304,522,cs),
(331,522,o),
(347,513,o),
(347,499,cs),
(347,466,o),
(212,368,o),
(128,316,cs),
(111,305,o),
(114,288,o),
(118,280,cs),
(123,270,o),
(141,263,o),
(156,273,cs)
);
}
);
width = 434;
},
{
layerId = m002;
shapes = (
{
closed = 1;
nodes = (
(254,279,o),
(273,282,o),
(301,282,cs),
(340,282,o),
(356,262,o),
(350,228,cs),
(335,145,o),
(245,86,o),
(170,86,cs),
(152,86,o),
(139,90,o),
(126,100,cs),
(95,124,o),
(60,113,o),
(49,93,cs),
(38,76,o),
(36,54,o),
(69,28,cs),
(95,7,o),
(132,-4,o),
(169,-4,cs),
(289,-4,o),
(424,96,o),
(447,229,cs),
(462,313,o),
(404,379,o),
(312,379,cs),
(269,379,o),
(218,366,o),
(165,339,c),
(197,250,l)
);
},
{
closed = 1;
nodes = (
(320,334,o),
(431,410,o),
(444,481,cs),
(454,535,o),
(394,568,o),
(326,568,cs),
(272,568,o),
(211,550,o),
(151,510,cs),
(118,489,o),
(119,463,o),
(131,445,cs),
(143,423,o),
(172,424,o),
(195,439,cs),
(250,476,o),
(300,488,o),
(331,488,cs),
(338,488,o),
(348,487,o),
(347,481,cs),
(344,465,o),
(230,381,o),
(153,333,cs),
(126,316,o),
(125,290,o),
(135,270,cs),
(146,249,o),
(180,237,o),
(207,256,cs)
);
}
);
width = 487;
}
);
metricLeft = N;
metricRight = O;
unicode = 51;
},
{
glyphname = four;
lastChange = "2022-02-26 19:36:14 +0000";
layers = (
{
layerId = m01;
shapes = (
{
closed = 1;
nodes = (
(174,558,o),
(162,568,o),
(150,568,cs),
(138,568,o),
(124,562,o),
(121,544,cs),
(52,159,ls),
(50,147,o),
(59,135,o),
(77,135,cs),
(94,135,o),
(101,148,o),
(103,160,cs),
(171,540,ls)
);
},
{
closed = 1;
nodes = (
(286,299,o),
(275,309,o),
(263,311,cs),
(250,313,o),
(236,306,o),
(233,289,cs),
(186,31,ls),
(182,11,o),
(193,1,o),
(206,0,cs),
(218,-1,o),
(232,6,o),
(236,26,cs),
(283,282,ls)
);
},
{
closed = 1;
nodes = (
(377,135,ls),
(393,135,o),
(403,146,o),
(403,158,cs),
(403,170,o),
(393,180,o),
(377,180,cs),
(78,180,l),
(78,135,l)
);
}
);
width = 461;
},
{
layerId = m002;
shapes = (
{
closed = 1;
nodes = (
(228,551,o),
(202,568,o),
(176,568,cs),
(153,568,o),
(127,555,o),
(122,527,cs),
(59,170,ls),
(55,145,o),
(76,122,o),
(108,122,cs),
(134,122,o),
(155,140,o),
(159,164,cs),
(222,519,ls)
);
},
{
closed = 1;
nodes = (
(322,308,o),
(311,326,o),
(287,331,cs),
(263,335,o),
(243,320,o),
(238,292,cs),
(196,59,ls),
(190,26,o),
(200,0,o),
(226,0,cs),
(254,0,o),
(270,16,o),
(275,44,cs),
(317,279,ls)
);
},
{
closed = 1;
nodes = (
(390,122,ls),
(418,122,o),
(439,143,o),
(439,168,cs),
(439,192,o),
(418,212,o),
(390,212,cs),
(107,212,l),
(107,122,l)
);
}
);
width = 500;
}
);
metricLeft = N;
metricRight = N;
unicode = 52;
},
{
glyphname = five;
lastChange = "2022-02-26 19:36:14 +0000";
layers = (
{
layerId = m01;
shapes = (
{
closed = 1;
nodes = (
(148,299,o),
(176,304,o),
(201,304,cs),
(280,304,o),
(314,252,o),
(314,211,cs),
(314,149,o),
(238,47,o),
(141,47,cs),
(116,47,o),
(94,54,o),
(80,67,cs),
(73,74,o),
(66,76,o),
(59,76,cs),
(46,76,o),
(35,67,o),
(35,54,cs),
(35,46,o),
(39,37,o),
(48,28,cs),
(69,8,o),
(102,-3,o),
(141,-3,cs),
(272,-3,o),
(364,125,o),
(364,212,cs),
(364,287,o),
(300,354,o),
(198,354,cs),
(170,354,o),
(142,349,o),
(107,337,c),
(111,288,l)
);
},
{
closed = 1;
nodes = (
(154,568,l),
(144,568,o),
(136,566,o),
(131,562,cs),
(126,558,o),
(122,551,o),
(120,541,cs),
(79,310,ls),
(76,295,o),
(89,286,o),
(102,286,cs),
(114,286,o),
(127,294,o),
(130,310,cs),
(171,541,l)
);
},
{
closed = 1;
nodes = (
(397,523,ls),
(417,523,o),
(423,533,o),
(423,545,cs),
(423,557,o),
(417,568,o),
(397,568,cs),
(153,568,l),
(153,523,l)
);
}
);
width = 400;
},
{
layerId = m002;
shapes = (
{
closed = 1;
nodes = (
(193,281,o),
(197,281,o),
(224,281,cs),
(284,281,o),
(302,248,o),
(302,215,cs),
(302,164,o),
(245,83,o),
(167,83,cs),
(149,83,o),
(134,86,o),
(124,93,cs),
(112,101,o),
(103,110,o),
(90,110,cs),
(65,110,o),
(42,97,o),
(42,72,cs),
(42,58,o),
(48,45,o),
(62,31,cs),
(86,8,o),
(125,-3,o),
(166,-3,cs),
(306,-3,o),
(402,125,o),
(402,216,cs),
(402,298,o),
(332,372,o),
(221,372,cs),
(187,372,o),
(150,364,o),
(109,348,c),
(141,265,l)
);
},
{
closed = 1;
nodes = (
(196,571,l),
(174,571,o),
(153,571,o),
(142,562,cs),
(132,554,o),
(126,543,o),
(123,528,cs),
(84,312,ls),
(78,281,o),
(107,264,o),
(131,264,cs),
(153,264,o),
(181,281,o),
(185,304,cs),
(224,529,l)
);
},
{
closed = 1;
nodes = (
(410,487,ls),
(442,487,o),
(459,505,o),
(459,529,cs),
(459,556,o),
(440,571,o),
(410,571,cs),
(194,571,l),
(179,487,l)
);
}
);
width = 447;
}
);
metricLeft = N;
metricRight = O;
unicode = 53;
},
{
glyphname = six;
lastChange = "2022-02-26 19:34:15 +0000";
layers = (
{
layerId = m01;
shapes = (
{
closed = 1;
nodes = (
(99,209,o),
(133,288,o),
(203,387,cs),
(230,425,o),
(276,471,o),
(351,523,cs),
(362,530,o),
(366,540,o),
(366,548,cs),
(365,559,o),
(357,568,o),
(344,568,cs),
(338,568,o),
(331,566,o),
(323,562,cs),
(276,535,o),
(193,460,o),
(159,412,cs),
(91,316,o),
(50,213,o),
(50,113,c),
(99,113,l)
);
},
{
closed = 1;
nodes = (
(50,53,o),
(98,0,o),
(166,0,cs),
(268,0,o),
(376,149,o),
(376,257,cs),
(376,321,o),
(338,353,o),
(266,353,cs),
(179,353,o),
(118,306,o),
(83,244,c),
(50,114,l)
);
},
{
closed = 1;
nodes = (
(131,50,o),
(100,78,o),
(100,135,cs),
(100,215,o),
(161,303,o),
(264,303,cs),
(305,303,o),
(326,289,o),
(326,251,cs),
(326,173,o),
(234,50,o),
(164,50,cs)
);
}
);
width = 404;
},
{
layerId = m002;
shapes = (
{
closed = 1;
nodes = (
(135,195,o),
(184,274,o),
(252,371,cs),
(278,407,o),
(319,447,o),
(386,494,cs),
(403,506,o),
(411,521,o),
(411,537,cs),
(410,559,o),
(390,576,o),
(365,576,cs),
(355,576,o),
(344,573,o),
(333,568,c),
(285,540,o),
(204,467,o),
(171,421,cs),
(99,319,o),
(68,279,o),
(54,118,c),
(149,114,l)
);
},
{
closed = 1;
nodes = (
(44,84,o),
(101,-1,o),
(182,-1,cs),
(289,-1,o),
(391,143,o),
(391,247,cs),
(391,316,o),
(346,354,o),
(270,354,cs),
(179,354,o),
(102,308,o),
(85,243,cs),
(55,126,ls)
);
},
{
closed = 1;
nodes = (
(162,87,o),
(149,99,o),
(149,140,cs),
(149,204,o),
(191,266,o),
(268,266,cs),
(291,266,o),
(297,260,o),
(297,242,cs),
(297,180,o),
(228,87,o),
(180,87,cs)
);
}
);
width = 431;
}
);
metricLeft = N;
metricRight = O;
unicode = 54;
},
{
glyphname = seven;
lastChange = "2022-02-26 19:36:14 +0000";
layers = (
{
layerId = m01;
shapes = (
{
closed = 1;
nodes = (
(420,556,o),
(414,568,o),
(394,568,cs),
(383,568,o),
(371,560,o),
(369,549,cs),
(276,26,ls),
(273,8,o),
(284,0,o),
(297,0,cs),
(309,0,o),
(323,8,o),
(326,26,cs),
(418,544,ls)
);
},
{
closed = 1;
nodes = (
(395,568,l),
(148,568,ls),
(130,568,o),
(121,557,o),
(121,546,cs),
(121,534,o),
(130,523,o),
(148,523,cs),
(395,523,l)
);
}
);
width = 408;
},
{
layerId = m002;
shapes = (
{
closed = 1;
nodes = (
(457,551,o),
(448,568,o),
(405,568,cs),
(383,568,o),
(360,558,o),
(356,537,cs),
(270,50,ls),
(265,20,o),
(287,0,o),
(314,0,cs),
(337,0,o),
(362,15,o),
(367,42,cs),
(452,524,ls)
);
},
{
closed = 1;
nodes = (
(406,568,l),
(173,568,ls),
(143,568,o),
(123,551,o),
(123,527,cs),
(123,503,o),
(143,488,o),
(173,488,cs),
(406,488,l)
);
}
);
width = 449;
}
);
metricLeft = N;
metricRight = N;
unicode = 55;
},
{
glyphname = eight;
lastChange = "2022-02-26 19:36:14 +0000";
layers = (
{
layerId = m01;
shapes = (
{
closed = 1;
nodes = (
(165,325,l),
(75,259,o),
(50,185,o),
(50,132,cs),
(50,74,o),
(79,-4,o),
(176,-4,cs),
(280,-4,o),
(336,84,o),
(336,149,cs),
(336,208,o),
(290,266,o),
(246,307,cs),
(231,321,l)
);
},
{
closed = 1;
nodes = (
(244,238,o),
(285,190,o),
(285,149,cs),
(285,105,o),
(239,45,o),
(182,45,cs),
(132,45,o),
(99,90,o),
(99,139,cs),
(99,178,o),
(120,231,o),
(197,285,c),
(209,273,ls)
);
},
{
closed = 1;
nodes = (
(314,368,o),
(395,431,o),
(395,488,cs),
(395,542,o),
(321,568,o),
(262,568,cs),
(189,568,o),
(102,529,o),
(102,442,cs),
(102,386,o),
(139,350,o),
(165,323,c),
(208,349,l),
(185,371,o),
(153,405,o),
(153,447,cs),
(153,504,o),
(211,518,o),
(252,518,cs),
(288,518,o),
(348,507,o),
(348,488,cs),
(348,462,o),
(239,369,o),
(164,322,c),
(233,312,l)
);
}
);
width = 382;
},
{
layerId = m002;
shapes = (
{
closed = 1;
nodes = (
(183,344,l),
(85,275,o),
(57,197,o),
(57,141,cs),
(57,80,o),
(91,-4,o),
(202,-4,cs),
(317,-4,o),
(377,87,o),
(377,157,cs),
(377,219,o),
(331,280,o),
(286,321,cs),
(264,341,l)
);
},
{
closed = 1;
nodes = (
(237,236,o),
(279,191,o),
(279,148,cs),
(279,114,o),
(248,81,o),
(207,81,cs),
(174,81,o),
(154,108,o),
(154,148,cs),
(154,177,o),
(167,213,o),
(219,254,c),
(224,249,ls)
);
},
{
closed = 1;
nodes = (
(344,343,o),
(433,405,o),
(433,472,cs),
(433,539,o),
(345,569,o),
(283,569,cs),
(206,569,o),
(107,526,o),
(107,428,cs),
(107,355,o),
(165,312,o),
(186,292,c),
(270,341,l),
(251,362,o),
(205,390,o),
(205,433,cs),
(205,470,o),
(232,488,o),
(267,488,cs),
(299,488,o),
(338,486,o),
(338,471,cs),
(338,456,o),
(256,391,o),
(197,355,c),
(262,287,l)
);
}
);
width = 432;
}
);
metricLeft = O;
metricRight = O;
unicode = 56;
},
{
glyphname = nine;
lastChange = "2022-02-26 19:36:14 +0000";
layers = (
{
layerId = m01;
shapes = (
{
closed = 1;
nodes = (
(361,519,l),
(333,472,o),
(300,423,o),
(259,371,cs),
(198,295,o),
(161,265,o),
(142,265,cs),
(128,265,o),
(128,280,o),
(128,296,cs),
(128,334,o),
(146,424,o),
(172,463,cs),
(202,508,o),
(253,518,o),
(287,518,cs),
(294,518,o),
(362,518,o),
(370,518,c),
(381,518,l),
(381,520,o),
(381,565,o),
(381,568,c),
(369,568,o),
(307,568,o),
(287,568,cs),
(230,568,o),
(171,551,o),
(133,494,cs),
(101,446,o),
(78,349,o),
(78,291,cs),
(78,240,o),
(98,214,o),
(131,214,cs),
(189,214,o),
(241,268,o),
(282,319,cs),
(331,381,o),
(379,458,o),
(402,510,cs),
(406,519,l)
);
},
{
closed = 1;
nodes = (
(427,558,o),
(421,568,o),
(409,568,c),
(361,568,l),
(361,479,l),
(283,24,ls),
(281,8,o),
(292,0,o),
(304,0,cs),
(317,0,o),
(330,8,o),
(333,24,cs),
(425,546,ls)
);
}
);
width = 415;
},
{
layerId = m002;
shapes = (
{
closed = 1;
nodes = (
(361,527,l),
(333,479,o),
(308,431,o),
(268,380,cs),
(211,309,o),
(197,302,o),
(193,302,cs),
(188,302,o),
(187,315,o),
(187,320,cs),
(187,343,o),
(198,408,o),
(220,440,cs),
(243,476,o),
(278,481,o),
(307,481,cs),
(313,481,o),
(377,481,o),
(385,481,cs),
(420,481,l),
(420,506,o),
(420,546,o),
(420,568,c),
(397,568,o),
(328,568,o),
(307,568,cs),
(248,568,o),
(182,554,o),
(141,493,cs),
(108,443,o),
(85,348,o),
(85,291,cs),
(85,226,o),
(118,196,o),
(160,196,cs),
(228,196,o),
(283,255,o),
(322,303,cs),
(369,363,o),
(416,439,o),
(438,487,cs),
(456,527,l)
);
},
{
closed = 1;
nodes = (
(470,555,o),
(455,568,o),
(422,568,cs),
(351,568,l),
(353,469,l),
(278,43,ls),
(272,11,o),
(301,-5,o),
(323,-5,cs),
(346,-5,o),
(373,10,o),
(378,36,cs),
(465,529,ls)
);
}
);
width = 462;
}
);
metricLeft = O;
metricRight = N;
unicode = 57;
},
{
glyphname = .notdef;
lastChange = "2022-02-26 19:36:14 +0000";
layers = (
{
layerId = m01;
shapes = (
{
closed = 1;
nodes = (
(460,0,o),
(471,12,o),
(474,27,cs),
(588,673,ls),
(591,689,o),
(584,700,o),
(570,700,cs),
(174,700,ls),
(157,700,o),
(146,689,o),
(143,673,cs),
(29,27,ls),
(26,12,o),
(34,0,o),
(53,0,cs),
(449,0,ls)
);
},
{
closed = 1;
nodes = (
(191,655,l),
(534,655,l),
(427,45,l),
(83,45,l)
);
}
);
width = 555;
},
{
layerId = m002;
shapes = (
{
closed = 1;
nodes = (
(492,0,o),
(515,26,o),
(519,49,cs),
(626,659,ls),
(631,687,o),
(616,700,o),
(579,700,c),
(199,700,l),
(171,700,o),
(150,687,o),
(145,659,cs),
(38,49,ls),
(33,21,o),
(47,0,o),
(86,0,cs),
(467,0,ls)
);
},
{
closed = 1;
nodes = (
(238,605,l),
(515,605,l),
(425,95,l),
(148,95,l)
);
}
);
width = 600;
}
);
metricLeft = N;
metricRight = N;
},
{
glyphname = period;
lastChange = "2022-02-26 10:39:39 +0000";
layers = (
{
layerId = m01;
shapes = (
{
closed = 1;
nodes = (
(83,-30,o),
(101,-12,o),
(101,9,cs),
(101,29,o),
(83,46,o),
(63,46,cs),
(42,46,o),
(26,29,o),
(26,9,cs),
(26,-11,o),
(42,-30,o),
(63,-30,cs)
);
}
);
width = 185;
},
{
layerId = m002;
shapes = (
{
closed = 1;
nodes = (
(99,-30,o),
(125,-4,o),
(125,26,cs),
(125,55,o),
(99,80,o),
(70,80,cs),
(39,80,o),
(15,55,o),
(15,26,cs),
(15,-3,o),
(39,-30,o),
(70,-30,cs)
);
}
);
width = 191;
}
);
metricLeft = n;
metricRight = n;
unicode = 46;
},
{
glyphname = comma;
lastChange = "2022-02-26 19:36:14 +0000";
layers = (
{
layerId = m01;
shapes = (
{
closed = 1;
nodes = (
(82,39,o),
(71,49,o),
(58,50,cs),
(45,52,o),
(32,45,o),
(29,28,cs),
(12,-71,ls),
(9,-89,o),
(19,-99,o),
(31,-101,cs),
(43,-103,o),
(58,-96,o),
(61,-78,cs),
(79,21,ls)
);
}
);
width = 160;
},
{
layerId = m002;
shapes = (
{
closed = 1;
nodes = (
(124,71,o),
(103,91,o),
(76,94,cs),
(51,97,o),
(24,83,o),
(19,54,cs),
(2,-45,ls),
(-3,-76,o),
(17,-97,o),
(42,-101,cs),
(66,-105,o),
(96,-90,o),
(101,-60,cs),
(119,39,ls)
);
}
);
width = 182;
}
);
metricLeft = n;
metricRight = n;
unicode = 44;
},
{
glyphname = colon;
lastChange = "2022-02-26 10:39:39 +0000";
layers = (
{
layerId = m01;
shapes = (
{
closed = 1;
nodes = (
(84,-30,o),
(102,-12,o),
(102,9,cs),
(102,29,o),
(84,46,o),
(63,46,cs),
(42,46,o),
(26,29,o),
(26,9,cs),
(26,-11,o),
(42,-30,o),
(63,-30,cs)
);
},
{
closed = 1;
nodes = (
(119,175,o),
(137,194,o),
(137,214,cs),
(137,235,o),
(119,251,o),
(99,251,cs),
(78,251,o),
(62,234,o),
(62,214,cs),
(62,195,o),
(78,175,o),
(99,175,cs)
);
}
);
width = 186;
},
{
layerId = m002;
shapes = (
{
closed = 1;
nodes = (
(135,175,o),
(161,202,o),
(161,232,cs),
(161,261,o),
(135,285,o),
(106,285,cs),
(75,285,o),
(51,259,o),
(51,231,cs),
(51,203,o),
(75,175,o),
(105,175,cs)
);
},
{
closed = 1;
nodes = (
(99,-30,o),
(125,-4,o),
(125,26,cs),
(125,56,o),
(99,80,o),
(69,80,cs),
(38,80,o),
(15,55,o),
(15,26,cs),
(15,-3,o),
(38,-30,o),
(69,-30,cs)
);
}
);
width = 191;
}
);
metricLeft = n;
metricRight = n;
unicode = 58;
},
{
glyphname = semicolon;
lastChange = "2022-02-26 19:36:14 +0000";
layers = (
{
layerId = m01;
shapes = (
{
closed = 1;
nodes = (
(95,39,o),
(84,49,o),
(71,50,cs),
(58,52,o),
(45,45,o),
(42,28,cs),
(25,-71,ls),
(22,-90,o),
(34,-101,o),
(47,-102,cs),
(58,-103,o),
(71,-95,o),
(74,-78,cs),
(92,21,ls)
);
},
{
closed = 1;
nodes = (
(119,175,o),
(137,194,o),
(137,214,cs),
(137,235,o),
(119,251,o),
(99,251,cs),
(78,251,o),
(62,234,o),
(62,214,cs),
(62,195,o),
(78,175,o),
(99,175,cs)
);
}
);
width = 185;
},
{
layerId = m002;
shapes = (
{
closed = 1;
nodes = (
(128,71,o),
(106,91,o),
(79,94,cs),
(54,97,o),
(27,83,o),
(22,54,cs),
(5,-45,ls),
(-1,-78,o),
(23,-100,o),
(50,-102,cs),
(73,-104,o),
(99,-89,o),
(104,-60,cs),
(122,39,ls)
);
},
{
closed = 1;
nodes = (
(134,175,o),
(160,203,o),
(160,231,cs),
(160,262,o),
(134,285,o),
(105,285,cs),
(74,285,o),
(51,260,o),
(51,231,cs),
(51,204,o),
(74,175,o),
(105,175,cs)
);
}
);
width = 190;
}
);
metricLeft = n;
metricRight = n;
unicode = 59;
},
{
glyphname = ellipsis;
lastChange = "2022-02-26 10:39:39 +0000";
layers = (
{
layerId = m01;
shapes = (
{
closed = 1;
nodes = (
(303,-30,o),
(321,-12,o),
(321,9,cs),
(321,29,o),
(303,46,o),
(283,46,cs),
(262,46,o),
(246,29,o),
(246,9,cs),
(246,-11,o),
(262,-30,o),
(283,-30,cs)
);
},
{
closed = 1;
nodes = (
(83,-30,o),
(101,-12,o),
(101,9,cs),
(101,29,o),
(83,46,o),
(63,46,cs),
(42,46,o),
(26,29,o),
(26,9,cs),
(26,-11,o),
(42,-30,o),
(63,-30,cs)
);
},
{
closed = 1;
nodes = (
(193,-30,o),
(211,-12,o),
(211,9,cs),
(211,29,o),
(193,46,o),
(173,46,cs),
(152,46,o),
(136,29,o),
(136,9,cs),
(136,-11,o),
(152,-30,o),
(173,-30,cs)
);
}
);
width = 405;
},
{
layerId = m002;
shapes = (
{
closed = 1;
nodes = (
(387,-31,o),
(414,-6,o),
(414,25,cs),
(414,56,o),
(387,79,o),
(358,79,cs),
(330,79,o),
(304,57,o),
(304,25,cs),
(304,-6,o),
(330,-31,o),
(359,-31,cs)
);
},
{
closed = 1;
nodes = (
(97,-31,o),
(124,-6,o),
(124,25,cs),
(124,56,o),
(97,79,o),
(68,79,cs),
(40,79,o),
(14,57,o),
(14,25,cs),
(14,-6,o),
(40,-31,o),
(69,-31,cs)
);
},
{
closed = 1;
nodes = (
(242,-30,o),
(269,-6,o),
(269,25,cs),
(269,56,o),
(242,79,o),
(214,79,cs),
(185,79,o),
(159,56,o),
(159,25,cs),
(159,-6,o),
(185,-30,o),
(214,-30,cs)
);
}
);
width = 480;
}
);
metricLeft = n;
metricRight = n;
unicode = 8230;
},
{
glyphname = exclam;
lastChange = "2022-02-26 19:36:14 +0000";
layers = (
{
layerId = m01;
shapes = (
{
closed = 1;
nodes = (
(194,643,o),
(184,650,o),
(172,650,cs),
(159,650,o),
(144,643,o),
(141,629,cs),
(65,202,ls),
(62,185,o),
(74,176,o),
(86,175,cs),
(98,174,o),
(113,183,o),
(116,202,cs),
(192,629,ls)
);
},
{
closed = 1;
nodes = (
(75,-24,o),
(91,-8,o),
(91,9,cs),
(91,26,o),
(75,41,o),
(57,41,cs),
(39,41,o),
(26,25,o),
(26,9,cs),
(26,-7,o),
(39,-24,o),
(57,-24,cs)
);
}
);
width = 176;
},
{
layerId = m002;
shapes = (
{
closed = 1;
nodes = (
(248,632,o),
(221,650,o),
(197,650,cs),
(175,650,o),
(146,635,o),
(142,611,cs),
(73,226,ls),
(68,197,o),
(92,177,o),
(117,175,cs),
(140,173,o),
(169,191,o),
(174,220,cs),
(243,605,ls)
);
},
{
closed = 1;
nodes = (
(117,-24,o),
(145,2,o),
(145,31,cs),
(145,60,o),
(117,86,o),
(87,86,cs),
(56,86,o),
(35,58,o),
(35,31,cs),
(35,4,o),
(56,-24,o),
(87,-24,cs)
);
}
);
width = 230;
}
);
metricLeft = N;
metricRight = N;
unicode = 33;
},
{
glyphname = exclamdown;
lastChange = "2022-02-26 19:36:14 +0000";
layers = (
{
layerId = m01;
shapes = (
{
closed = 1;
nodes = (
(159,441,o),
(147,450,o),
(135,451,cs),
(123,452,o),
(108,443,o),
(105,424,cs),
(31,21,ls),
(28,6,o),
(40,-1,o),
(53,0,cs),
(65,0,o),
(79,7,o),
(82,21,cs),
(156,424,ls)
);
},
{
closed = 1;
nodes = (
(185,585,o),
(198,601,o),
(198,617,cs),
(198,633,o),
(185,650,o),
(167,650,cs),
(149,650,o),
(133,634,o),
(133,617,cs),
(133,600,o),
(149,585,o),
(167,585,cs)
);
}
);
width = 176;
},
{
layerId = m002;
shapes = (
{
closed = 1;
nodes = (
(213,433,o),
(187,450,o),
(164,452,cs),
(140,454,o),
(112,437,o),
(107,407,cs),
(43,47,ls),
(38,17,o),
(63,-2,o),
(91,0,cs),
(113,0,o),
(139,14,o),
(143,39,cs),
(207,399,ls)
);
},
{
closed = 1;
nodes = (
(223,540,o),
(245,566,o),
(245,594,cs),
(245,623,o),
(223,650,o),
(192,650,cs),
(162,650,o),
(135,623,o),
(135,594,cs),
(135,566,o),
(162,540,o),
(192,540,cs)
);
}
);
width = 231;
}
);
metricLeft = N;
metricRight = N;
unicode = 161;
},
{
glyphname = question;
lastChange = "2022-02-26 19:36:14 +0000";
layers = (
{
layerId = m01;
shapes = (
{
closed = 1;
nodes = (
(357,272,o),
(425,364,o),
(450,503,cs),
(464,582,o),
(396,654,o),
(305,654,cs),
(190,654,o),
(126,590,o),
(109,495,cs),
(105,473,o),
(110,460,o),
(121,457,cs),
(134,454,o),
(154,463,o),
(158,485,cs),
(168,542,o),
(206,604,o),
(291,604,cs),
(357,604,o),
(411,568,o),
(400,507,cs),
(392,461,o),
(368,322,o),
(206,322,c),
(201,272,l)
);
},
{
closed = 1;
nodes = (
(169,-24,o),
(185,-9,o),
(185,7,cs),
(185,26,o),
(170,41,o),
(151,41,cs),
(134,41,o),
(120,25,o),
(120,7,cs),
(120,-8,o),
(134,-24,o),
(151,-24,cs)
);
},
{
closed = 1;
nodes = (
(231,310,o),
(224,322,o),
(204,322,cs),
(193,322,o),
(181,314,o),
(179,303,cs),
(161,202,ls),
(159,188,o),
(169,178,o),
(181,175,cs),
(194,173,o),
(208,180,o),
(212,202,cs),
(230,303,ls)
);
}
);
width = 432;
},
{
layerId = m002;
shapes = (
{
closed = 1;
nodes = (
(372,256,o),
(447,353,o),
(473,492,cs),
(488,577,o),
(414,654,o),
(317,654,cs),
(200,654,o),
(133,586,o),
(116,493,cs),
(109,458,o),
(124,439,o),
(145,434,cs),
(170,427,o),
(205,443,o),
(210,476,cs),
(218,524,o),
(243,565,o),
(305,565,cs),
(356,565,o),
(386,545,o),
(378,504,cs),
(371,459,o),
(350,345,o),
(218,356,c),
(197,267,l)
);
},
{
closed = 1;
nodes = (
(193,-24,o),
(221,2,o),
(221,32,cs),
(221,61,o),
(195,86,o),
(165,86,cs),
(134,86,o),
(111,60,o),
(111,32,cs),
(111,4,o),
(134,-24,o),
(164,-24,cs)
);
},
{
closed = 1;
nodes = (
(272,338,o),
(248,356,o),
(219,356,cs),
(198,356,o),
(176,342,o),
(172,321,cs),
(156,233,ls),
(151,207,o),
(166,182,o),
(195,176,cs),
(221,171,o),
(245,193,o),
(251,225,cs),
(267,313,ls)
);
}
);
width = 467;
}
);
metricLeft = O;
metricRight = O;
unicode = 63;
},
{
glyphname = questiondown;
lastChange = "2022-02-26 20:20:48 +0000";
layers = (
{
layerId = m01;
shapes = (
{
closed = 1;
nodes = (
(142,382,o),
(74,290,o),
(49,151,cs),
(35,72,o),
(103,0,o),
(194,0,cs),
(309,0,o),
(373,64,o),
(390,159,cs),
(394,181,o),
(389,194,o),
(378,197,cs),
(365,200,o),
(345,191,o),
(341,169,cs),
(331,112,o),
(293,50,o),
(208,50,cs),
(142,50,o),
(88,86,o),
(99,147,cs),
(107,193,o),
(131,332,o),
(293,332,c),
(298,382,l)
);
},
{
closed = 1;
nodes = (
(340,466,o),
(330,476,o),
(318,479,cs),
(305,481,o),
(291,474,o),
(287,452,cs),
(269,351,ls),
(268,344,o),
(275,332,o),
(295,332,cs),
(306,332,o),
(318,340,o),
(320,351,cs),
(338,452,ls)
);
},
{
closed = 1;
nodes = (
(360,585,o),
(374,601,o),
(374,619,cs),
(374,634,o),
(360,650,o),
(343,650,cs),
(325,650,o),
(309,635,o),
(309,619,cs),
(309,600,o),
(324,585,o),
(343,585,cs)
);
}
);
width = 433;
},
{
layerId = m002;
shapes = (
{
closed = 1;
nodes = (
(163,398,o),
(82,296,o),
(57,160,cs),
(43,76,o),
(114,1,o),
(209,1,cs),
(324,1,o),
(396,67,o),
(413,159,cs),
(418,194,o),
(405,212,o),
(384,217,cs),
(360,224,o),
(325,208,o),
(319,175,cs),
(312,128,o),
(287,89,o),
(227,89,cs),
(177,89,o),
(149,108,o),
(156,148,cs),
(163,192,o),
(187,300,o),
(308,289,c),
(337,386,l)
);
},
{
closed = 1;
nodes = (
(380,454,o),
(361,473,o),
(337,479,cs),
(311,484,o),
(281,470,o),
(275,435,cs),
(257,333,ls),
(253,310,o),
(277,289,o),
(308,289,cs),
(330,289,o),
(353,304,o),
(357,326,cs),
(375,428,ls)
);
},
{
closed = 1;
nodes = (
(385,540,o),
(407,568,o),
(407,597,cs),
(407,625,o),
(383,650,o),
(353,650,cs),
(322,650,o),
(297,625,o),
(297,598,cs),
(297,568,o),
(322,540,o),
(354,540,cs)
);
}
);
width = 466;
}
);
metricLeft = O;
metricRight = O;
unicode = 191;
},
{
glyphname = periodcentered;
lastChange = "2022-02-26 10:39:39 +0000";
layers = (
{
layerId = m01;
shapes = (
{
closed = 1;
nodes = (
(113,138,o),
(131,157,o),
(131,177,cs),
(131,198,o),
(113,214,o),
(93,214,cs),
(72,214,o),
(56,197,o),
(56,177,cs),
(56,158,o),
(72,138,o),
(93,138,cs)
);
}
);
width = 185;
},
{
layerId = m002;
shapes = (
{
closed = 1;
nodes = (
(124,121,o),
(151,149,o),
(151,178,cs),
(151,209,o),
(124,231,o),
(95,231,cs),
(64,231,o),
(41,207,o),
(41,178,cs),
(41,151,o),
(64,121,o),
(95,121,cs)
);
}
);
width = 190;
}
);
metricLeft = n;
metricRight = n;
unicode = 183;
},
{
glyphname = bullet;
lastChange = "2022-02-26 10:39:39 +0000";
layers = (
{
layerId = m01;
shapes = (
{
closed = 1;
nodes = (
(201,278,o),
(238,314,o),
(238,355,cs),
(238,396,o),
(202,430,o),
(162,430,cs),
(120,430,o),
(88,395,o),
(88,355,cs),
(88,316,o),
(119,278,o),
(161,278,cs)
);
}
);
width = 261;
},
{
layerId = m002;
shapes = (
{
closed = 1;
nodes = (
(224,254,o),
(273,301,o),
(273,355,cs),
(273,409,o),
(225,454,o),
(171,454,cs),
(116,454,o),
(73,408,o),
(73,355,cs),
(73,304,o),
(114,254,o),
(170,254,cs)
);
}
);
width = 282;
}
);
metricLeft = n;
metricRight = n;
unicode = 8226;
},
{
glyphname = asterisk;
lastChange = "2022-02-26 19:36:14 +0000";
layers = (
{
layerId = m01;
shapes = (
{
closed = 1;
nodes = (
(301,584,o),
(304,598,o),
(298,607,cs),
(293,614,o),
(281,617,o),
(266,608,cs),
(130,524,ls),
(113,513,o),
(109,499,o),
(115,491,cs),
(120,483,o),
(132,481,o),
(148,490,cs),
(284,574,ls)
);
},
{
closed = 1;
nodes = (
(261,482,o),
(274,484,o),
(281,492,cs),
(286,499,o),
(286,511,o),
(273,521,cs),
(165,606,ls),
(153,616,o),
(141,614,o),
(135,606,cs),
(128,599,o),
(128,586,o),
(141,576,cs),
(248,492,ls)
);
},
{
closed = 1;
nodes = (
(242,641,o),
(234,650,o),
(225,650,cs),
(215,650,o),
(203,641,o),
(200,623,cs),
(174,475,ls),
(171,458,o),
(178,450,o),
(187,448,cs),
(197,447,o),
(210,456,o),
(213,475,cs),
(239,623,ls)
);
}
);
width = 282;
},
{
layerId = m002;
shapes = (
{
closed = 1;
nodes = (
(346,570,o),
(356,594,o),
(341,617,cs),
(330,633,o),
(302,639,o),
(277,625,cs),
(144,543,l),
(122,527,o),
(110,504,o),
(123,483,cs),
(133,464,o),
(164,458,o),
(191,474,cs),
(320,554,ls)
);
},
{
closed = 1;
nodes = (
(281,460,o),
(310,464,o),
(324,481,cs),
(337,499,o),
(335,521,o),
(313,538,cs),
(208,621,ls),
(186,638,o),
(157,634,o),
(144,617,cs),
(129,599,o),
(131,576,o),
(155,558,cs),
(256,477,l)
);
},
{
closed = 1;
nodes = (
(294,648,o),
(274,668,o),
(250,668,cs),
(229,668,o),
(206,651,o),
(201,624,cs),
(176,482,ls),
(171,453,o),
(187,436,o),
(208,431,cs),
(230,426,o),
(258,443,o),
(264,474,cs),
(289,616,ls)
);
}
);
width = 334;
}
);
metricLeft = N;
metricRight = N;
unicode = 42;
},
{
glyphname = numbersign;
lastChange = "2022-02-26 19:36:14 +0000";
layers = (
{
layerId = m01;
shapes = (
{
closed = 1;
nodes = (
(320,559,o),
(309,568,o),
(296,568,cs),
(283,568,o),
(269,560,o),
(266,543,cs),
(175,28,ls),
(172,10,o),
(182,0,o),
(194,0,cs),
(207,-1,o),
(222,8,o),
(226,28,cs),
(317,543,ls)
);
},
{
closed = 1;
nodes = (
(643,147,o),
(652,159,o),
(652,170,cs),
(652,181,o),
(644,192,o),
(626,192,cs),
(81,192,ls),
(63,192,o),
(55,181,o),
(55,170,cs),
(55,159,o),
(64,147,o),
(81,147,cs),
(626,147,ls)
);
},
{
closed = 1;
nodes = (
(576,559,o),
(565,567,o),
(553,568,cs),
(540,568,o),
(525,560,o),
(522,543,cs),
(431,28,ls),
(428,9,o),
(439,-1,o),
(452,0,cs),
(465,0,o),
(479,9,o),
(482,28,cs),
(573,543,ls)
);
},
{
closed = 1;
nodes = (
(685,384,o),
(694,395,o),
(694,406,cs),
(694,417,o),
(685,429,o),
(667,429,cs),
(123,429,ls),
(105,429,o),
(96,417,o),
(96,406,cs),
(96,395,o),
(105,384,o),
(123,384,cs),
(667,384,ls)
);
}
);
width = 709;
},
{
layerId = m002;
shapes = (
{
closed = 1;
nodes = (
(604,555,o),
(580,568,o),
(557,568,cs),
(533,568,o),
(505,558,o),
(500,531,cs),
(415,47,ls),
(409,13,o),
(435,0,o),
(462,0,cs),
(486,0,o),
(508,11,o),
(513,39,cs),
(598,523,ls)
);
},
{
closed = 1;
nodes = (
(652,133,o),
(672,153,o),
(672,177,cs),
(672,200,o),
(653,218,o),
(623,218,cs),
(111,218,ls),
(81,218,o),
(61,200,o),
(61,177,cs),
(61,153,o),
(82,133,o),
(111,133,cs),
(623,133,ls)
);
},
{
closed = 1;
nodes = (
(362,552,o),
(338,568,o),
(311,568,cs),
(286,568,o),
(265,557,o),
(260,530,cs),
(174,47,ls),
(168,16,o),
(188,0,o),
(214,0,cs),
(238,0,o),
(267,10,o),
(272,39,cs),
(357,523,ls)
);
},
{
closed = 1;
nodes = (
(691,357,o),
(712,375,o),
(712,399,cs),
(712,422,o),
(691,442,o),
(661,442,cs),
(150,442,ls),
(120,442,o),
(100,422,o),
(100,399,cs),
(100,375,o),
(120,357,o),
(150,357,cs),
(661,357,ls)
);
}
);
width = 732;
}
);
metricLeft = N;
metricRight = N;
unicode = 35;
},
{
glyphname = slash;
lastChange = "2022-02-26 19:36:14 +0000";
layers = (
{
layerId = m01;
shapes = (
{
closed = 1;
nodes = (
(346,637,o),
(331,650,o),
(316,650,cs),
(305,650,o),
(294,644,o),
(287,627,cs),
(30,31,ls),
(22,12,o),
(36,0,o),
(52,0,cs),
(63,0,o),
(74,6,o),
(80,20,cs),
(337,616,ls)
);
}
);
width = 315;
},
{
layerId = m002;
shapes = (
{
closed = 1;
nodes = (
(395,624,o),
(364,650,o),
(334,650,cs),
(314,650,o),
(292,639,o),
(281,614,cs),
(41,60,ls),
(26,25,o),
(55,0,o),
(87,0,cs),
(106,0,o),
(128,10,o),
(138,32,cs),
(379,588,ls)
);
}
);
width = 367;
}
);
metricLeft = N;
metricRight = N;
unicode = 47;
},
{
glyphname = backslash;
lastChange = "2022-02-26 19:36:14 +0000";
layers = (
{
layerId = m01;
shapes = (
{
closed = 1;
nodes = (
(181,644,o),
(170,650,o),
(159,650,cs),
(144,650,o),
(129,637,o),
(138,616,cs),
(395,20,ls),
(401,5,o),
(413,0,o),
(424,0,cs),
(439,0,o),
(453,13,o),
(445,31,cs),
(188,627,ls)
);
}
);
width = 530;
},
{
layerId = m002;
shapes = (
{
closed = 1;
nodes = (
(219,648,o),
(188,655,o),
(163,646,cs),
(141,638,o),
(127,608,o),
(142,574,cs),
(377,32,ls),
(390,1,o),
(424,-6,o),
(449,4,cs),
(470,13,o),
(482,41,o),
(470,69,cs),
(234,614,ls)
);
}
);
width = 557;
}
);
metricLeft = N;
metricRight = N;
unicode = 92;
},
{
glyphname = exclam.c2sc;
lastChange = "2022-02-26 19:55:36 +0000";
layers = (
{
layerId = m01;
shapes = (
{
closed = 1;
nodes = (
(71,-24,o),
(87,-8,o),
(87,9,cs),
(87,26,o),
(71,41,o),
(53,41,cs),
(35,41,o),
(22,25,o),
(22,9,cs),
(22,-7,o),
(35,-24,o),
(53,-24,cs)
);
},
{
closed = 1;
nodes = (
(146,382,o),
(137,396,o),
(123,396,cs),
(105,396,o),
(96,386,o),
(93,372,cs),
(63,205,ls),
(60,188,o),
(72,175,o),
(85,175,cs),
(100,175,o),
(110,185,o),
(113,199,cs),
(143,367,ls)
);
}
);
width = 176;
},
{
layerId = m002;
shapes = (
{
closed = 1;
nodes = (
(110,-47,o),
(137,-20,o),
(137,9,cs),
(137,38,o),
(110,64,o),
(80,64,cs),
(49,64,o),
(27,36,o),
(27,9,cs),
(27,-18,o),
(49,-47,o),
(80,-47,cs)
);
},
{
closed = 1;
nodes = (
(197,370,o),
(177,396,o),
(147,396,cs),
(121,396,o),
(97,381,o),
(92,353,cs),
(62,186,ls),
(56,154,o),
(81,129,o),
(109,129,cs),
(135,129,o),
(155,146,o),
(161,172,cs),
(191,340,ls)
);
}
);
width = 230;
}
);
metricLeft = N;
metricRight = N;
},
{
glyphname = exclamdown.c2sc;
lastChange = "2022-02-26 19:58:44 +0000";
layers = (
{
layerId = m01;
shapes = (
{
closed = 1;
nodes = (
(105,420,o),
(89,404,o),
(89,387,cs),
(89,370,o),
(105,355,o),
(123,355,cs),
(141,355,o),
(154,371,o),
(154,387,cs),
(154,403,o),
(141,420,o),
(123,420,cs)
);
},
{
closed = 1;
nodes = (
(30,14,o),
(39,0,o),
(53,0,cs),
(71,0,o),
(80,10,o),
(83,24,cs),
(113,191,ls),
(116,208,o),
(104,221,o),
(91,221,cs),
(76,221,o),
(66,211,o),
(63,197,cs),
(33,29,ls)
);
}
);
width = 176;
},
{
layerId = m002;
shapes = (
{
closed = 1;
nodes = (
(121,443,o),
(94,416,o),
(94,387,cs),
(94,358,o),
(121,332,o),
(151,332,cs),
(182,332,o),
(204,360,o),
(204,387,cs),
(204,414,o),
(182,443,o),
(151,443,cs)
);
},
{
closed = 1;
nodes = (
(34,26,o),
(54,0,o),
(84,0,cs),
(110,0,o),
(134,15,o),
(139,43,cs),
(169,210,ls),
(175,242,o),
(150,267,o),
(122,267,cs),
(96,267,o),
(76,250,o),
(70,224,cs),
(40,56,ls)
);
}
);
width = 230;
}
);
metricLeft = N;
metricRight = N;
},
{
glyphname = question.c2sc;
lastChange = "2022-02-26 20:15:41 +0000";
layers = (
{
layerId = m01;
shapes = (
{
closed = 1;
nodes = (
(239,139,o),
(309,167,o),
(317,275,cs),
(323,345,o),
(288,395,o),
(203,395,cs),
(141,395,o),
(98,366,o),
(73,308,cs),
(66,292,o),
(74,277,o),
(82,274,cs),
(90,271,o),
(112,271,o),
(118,286,cs),
(133,324,o),
(156,345,o),
(200,345,cs),
(270,345,o),
(270,308,o),
(267,273,cs),
(258,184,o),
(194,189,o),
(145,189,cs),
(142,189,o),
(141,187,o),
(139,185,c),
(153,139,l)
);
},
{
closed = 1;
nodes = (
(131,-24,o),
(147,-9,o),
(147,7,cs),
(147,26,o),
(132,41,o),
(113,41,cs),
(96,41,o),
(82,25,o),
(82,7,cs),
(82,-8,o),
(96,-24,o),
(113,-24,cs)
);
},
{
closed = 1;
nodes = (
(142,87,o),
(156,94,o),
(160,116,cs),
(170,170,ls),
(171,177,o),
(164,189,o),
(144,189,cs),
(133,189,o),
(121,181,o),
(119,170,cs),
(109,116,ls),
(106,102,o),
(117,92,o),
(129,89,cs)
);
}
);
width = 345;
},
{
layerId = m002;
shapes = (
{
closed = 1;
nodes = (
(266,120,o),
(364,157,o),
(374,273,cs),
(381,356,o),
(335,418,o),
(235,418,cs),
(163,418,o),
(110,383,o),
(82,317,cs),
(71,291,o),
(81,262,o),
(105,252,cs),
(125,245,o),
(162,251,o),
(173,278,cs),
(187,311,o),
(201,322,o),
(232,322,cs),
(264,322,o),
(279,307,o),
(274,275,cs),
(265,218,o),
(221,222,o),
(174,222,cs),
(176,222,o),
(169,217,o),
(141,198,c),
(163,127,l)
);
},
{
closed = 1;
nodes = (
(172,-70,o),
(200,-44,o),
(200,-17,cs),
(200,15,o),
(174,41,o),
(142,41,cs),
(113,41,o),
(90,13,o),
(90,-17,cs),
(90,-42,o),
(113,-70,o),
(142,-70,cs)
);
},
{
closed = 1;
nodes = (
(181,72,o),
(209,86,o),
(216,122,cs),
(226,176,ls),
(231,201,o),
(207,222,o),
(175,222,cs),
(153,222,o),
(129,206,o),
(125,184,cs),
(115,131,ls),
(110,104,o),
(129,83,o),
(154,77,cs)
);
}
);
width = 412;
}
);
metricLeft = O;
metricRight = O;
},
{
glyphname = questiondown.c2sc;
lastChange = "2022-02-26 20:21:30 +0000";
layers = (
{
layerId = m01;
shapes = (
{
closed = 1;
nodes = (
(118,256,o),
(48,228,o),
(40,120,cs),
(34,50,o),
(69,0,o),
(154,0,cs),
(216,0,o),
(259,29,o),
(284,87,cs),
(291,103,o),
(283,118,o),
(275,121,cs),
(267,124,o),
(245,124,o),
(239,109,cs),
(224,71,o),
(201,50,o),
(157,50,cs),
(87,50,o),
(87,87,o),
(90,122,cs),
(99,211,o),
(163,206,o),
(212,206,cs),
(215,206,o),
(216,208,o),
(218,210,c),
(204,256,l)
);
},
{
closed = 1;
nodes = (
(226,419,o),
(210,404,o),
(210,388,cs),
(210,369,o),
(225,354,o),
(244,354,cs),
(261,354,o),
(275,370,o),
(275,388,cs),
(275,403,o),
(261,419,o),
(244,419,cs)
);
},
{
closed = 1;
nodes = (
(215,308,o),
(201,301,o),
(197,279,cs),
(187,225,ls),
(186,218,o),
(193,206,o),
(213,206,cs),
(224,206,o),
(236,214,o),
(238,225,cs),
(248,279,ls),
(251,293,o),
(240,303,o),
(228,306,cs)
);
}
);
width = 345;
},
{
layerId = m002;
shapes = (
{
closed = 1;
nodes = (
(159,298,o),
(61,261,o),
(51,145,cs),
(44,62,o),
(90,0,o),
(190,0,cs),
(262,0,o),
(315,35,o),
(343,101,cs),
(354,127,o),
(344,156,o),
(320,166,cs),
(300,173,o),
(263,167,o),
(252,140,cs),
(238,107,o),
(224,96,o),
(193,96,cs),
(161,96,o),
(146,111,o),
(151,143,cs),
(160,200,o),
(204,196,o),
(251,196,cs),
(249,196,o),
(256,201,o),
(284,220,c),
(262,291,l)
);
},
{
closed = 1;
nodes = (
(253,488,o),
(225,462,o),
(225,435,cs),
(225,403,o),
(251,377,o),
(283,377,cs),
(312,377,o),
(335,405,o),
(335,435,cs),
(335,460,o),
(312,488,o),
(283,488,cs)
);
},
{
closed = 1;
nodes = (
(244,346,o),
(216,332,o),
(209,296,cs),
(199,242,ls),
(194,217,o),
(218,196,o),
(250,196,cs),
(272,196,o),
(296,212,o),
(300,234,cs),
(310,287,ls),
(315,314,o),
(296,335,o),
(271,341,cs)
);
}
);
width = 412;
}
);
metricLeft = O;
metricRight = O;
},
{
glyphname = hyphen;
lastChange = "2022-02-26 19:36:14 +0000";
layers = (
{
layerId = m01;
shapes = (
{
closed = 1;
nodes = (
(252,175,o),
(261,186,o),
(261,198,cs),
(261,209,o),
(252,220,o),
(234,220,cs),
(86,220,ls),
(67,220,o),
(58,208,o),
(59,196,cs),
(60,185,o),
(69,175,o),
(86,175,cs),
(234,175,ls)
);
}
);
width = 311;
},
{
layerId = m002;
shapes = (
{
closed = 1;
nodes = (
(276,153,o),
(297,173,o),
(297,198,cs),
(297,222,o),
(276,242,o),
(245,242,cs),
(97,242,ls),
(64,242,o),
(43,220,o),
(45,194,cs),
(47,171,o),
(68,153,o),
(97,153,cs),
(245,153,ls)
);
}
);
width = 333;
}
);
metricLeft = n;
metricRight = n;
unicode = 45;
},
{
glyphname = endash;
lastChange = "2022-02-26 19:36:14 +0000";
layers = (
{
layerId = m01;
shapes = (
{
closed = 1;
nodes = (
(332,175,o),
(341,187,o),
(341,199,cs),
(341,210,o),
(332,220,o),
(314,220,cs),
(87,220,ls),
(69,220,o),
(60,210,o),
(60,199,cs),
(60,187,o),
(69,175,o),
(87,175,cs),
(314,175,ls)
);
}
);
width = 391;
},
{
layerId = m002;
shapes = (
{
closed = 1;
nodes = (
(355,153,o),
(376,174,o),
(376,199,cs),
(376,223,o),
(355,242,o),
(324,242,cs),
(97,242,ls),
(66,242,o),
(45,223,o),
(45,199,cs),
(45,174,o),
(66,153,o),
(97,153,cs),
(324,153,ls)
);
}
);
width = 411;
}
);
metricLeft = n;
metricRight = n;
unicode = 8211;
},
{
glyphname = emdash;
lastChange = "2022-02-26 19:36:14 +0000";
layers = (
{
layerId = m01;
shapes = (
{
closed = 1;
nodes = (
(432,175,o),
(443,187,o),
(443,199,cs),
(443,209,o),
(433,220,o),
(412,220,cs),
(89,220,ls),
(69,220,o),
(59,209,o),
(59,199,cs),
(59,187,o),
(70,175,o),
(89,175,cs),
(412,175,ls)
);
}
);
width = 493;
},
{
layerId = m002;
shapes = (
{
closed = 1;
nodes = (
(456,153,o),
(479,174,o),
(479,199,cs),
(479,222,o),
(457,242,o),
(423,242,cs),
(100,242,ls),
(67,242,o),
(45,222,o),
(45,199,cs),
(45,174,o),
(68,153,o),
(100,153,cs),
(423,153,ls)
);
}
);
width = 514;
}
);
metricLeft = n;
metricRight = n;
unicode = 8212;
},
{
glyphname = underscore;
lastChange = "2022-02-26 19:36:14 +0000";
layers = (
{
layerId = m01;
shapes = (
{
closed = 1;
nodes = (
(349,-77,o),
(358,-66,o),
(358,-54,cs),
(358,-43,o),
(349,-32,o),
(331,-32,cs),
(42,-32,ls),
(23,-32,o),
(15,-43,o),
(15,-55,cs),
(15,-66,o),
(25,-77,o),
(42,-77,cs),
(331,-77,ls)
);
}
);
width = 453;
},
{
layerId = m002;
shapes = (
{
closed = 1;
nodes = (
(372,-99,o),
(393,-79,o),
(393,-54,cs),
(393,-30,o),
(372,-10,o),
(341,-10,cs),
(52,-10,ls),
(20,-10,o),
(0,-30,o),
(0,-55,cs),
(0,-79,o),
(22,-99,o),
(52,-99,cs),
(341,-99,ls)
);
}
);
width = 473;
}
);
metricLeft = n;
metricRight = n;
unicode = 95;
},
{
glyphname = parenleft;
lastChange = "2022-02-26 18:30:17 +0000";
layers = (
{
layerId = m01;
shapes = (
{
closed = 1;
nodes = (
(198,-292,o),
(199,-278,o),
(191,-261,cs),
(105,-81,o),
(92,77,o),
(117,219,cs),
(140,347,o),
(216,480,o),
(342,607,cs),
(360,625,o),
(362,639,o),
(355,646,cs),
(347,654,o),
(329,651,o),
(309,633,cs),
(177,506,o),
(80,329,o),
(61,219,cs),
(39,94,o),
(65,-101,o),
(155,-283,cs),
(163,-299,o),
(179,-303,o),
(190,-297,cs)
);
}
);
width = 333;
},
{
layerId = m002;
shapes = (
{
closed = 1;
nodes = (
(248,-283,o),
(253,-264,o),
(241,-235,c),
(160,-66,o),
(148,80,o),
(172,213,cs),
(193,333,o),
(263,456,o),
(381,574,cs),
(412,605,o),
(407,628,o),
(393,643,cs),
(378,658,o),
(345,659,o),
(314,631,cs),
(182,505,o),
(87,330,o),
(68,221,cs),
(47,96,o),
(72,-95,o),
(161,-275,cs),
(176,-303,o),
(212,-310,o),
(233,-295,cs)
);
}
);
width = 386;
}
);
metricLeft = O;
metricRight = N;
unicode = 40;
},
{
glyphname = parenright;
lastChange = "2022-02-26 19:14:14 +0000";
layers = (
{
layerId = m01;
shapes = (
{
closed = 1;
nodes = (
(-11,-284,o),
(6,-285,o),
(19,-273,cs),
(165,-133,o),
(256,42,o),
(279,167,cs),
(298,276,o),
(268,476,o),
(187,640,cs),
(174,664,o),
(159,673,o),
(148,668,cs),
(139,664,o),
(136,650,o),
(147,627,cs),
(222,465,o),
(248,314,o),
(226,186,cs),
(201,44,o),
(135,-100,o),
(-8,-240,cs),
(-21,-253,o),
(-25,-267,o),
(-19,-274,cs)
);
}
);
width = 320;
},
{
layerId = m002;
shapes = (
{
closed = 1;
nodes = (
(213,-132,o),
(302,41,o),
(325,164,cs),
(343,274,o),
(315,469,o),
(235,631,cs),
(214,669,o),
(185,679,o),
(163,669,cs),
(145,660,o),
(133,640,o),
(150,601,cs),
(221,448,o),
(245,309,o),
(224,190,cs),
(201,56,o),
(140,-76,o),
(8,-207,cs),
(-12,-225,o),
(-22,-249,o),
(-7,-267,cs),
(9,-289,o),
(46,-291,o),
(67,-270,cs)
);
}
);
width = 377;
}
);
metricLeft = N;
metricRight = O;
unicode = 41;
},
{
glyphname = braceleft;
lastChange = "2022-02-26 19:36:14 +0000";
layers = (
{
layerId = m01;
shapes = (
{
closed = 1;
nodes = (
(146,237,o),
(159,268,o),
(167,312,cs),
(176,365,o),
(161,476,o),
(181,535,cs),
(200,585,o),
(245,606,o),
(277,617,cs),
(290,622,o),
(294,631,o),
(290,642,cs),
(285,655,o),
(268,649,o),
(255,644,cs),
(226,630,o),
(168,603,o),
(149,551,cs),
(127,489,o),
(140,376,o),
(130,318,cs),
(123,290,o),
(111,265,o),
(86,241,cs),
(73,229,o),
(63,222,o),
(61,206,c),
(105,198,l)
);
},
{
closed = 1;
nodes = (
(61,188,o),
(68,179,o),
(76,163,cs),
(92,130,o),
(97,101,o),
(94,72,cs),
(87,15,o),
(42,-93,o),
(45,-159,cs),
(48,-216,o),
(83,-266,o),
(108,-293,cs),
(119,-305,o),
(131,-309,o),
(139,-299,cs),
(147,-290,o),
(139,-281,o),
(129,-271,cs),
(102,-244,o),
(83,-211,o),
(81,-157,cs),
(79,-94,o),
(125,10,o),
(131,64,cs),
(136,108,o),
(132,145,o),
(105,198,c),
(61,206,l)
);
}
);
width = 280;
},
{
layerId = m002;
shapes = (
{
closed = 1;
nodes = (
(190,219,o),
(205,255,o),
(214,302,cs),
(223,357,o),
(209,459,o),
(227,511,cs),
(243,552,o),
(277,567,o),
(306,576,cs),
(329,585,o),
(341,605,o),
(331,628,cs),
(321,656,o),
(288,652,o),
(265,642,cs),
(236,629,o),
(170,599,o),
(149,540,cs),
(127,475,o),
(138,369,o),
(129,316,cs),
(123,291,o),
(113,273,o),
(94,254,cs),
(73,235,o),
(62,225,o),
(68,187,c),
(138,173,l)
);
},
{
closed = 1;
nodes = (
(58,182,o),
(70,172,o),
(80,153,cs),
(93,126,o),
(97,103,o),
(94,79,cs),
(87,26,o),
(42,-75,o),
(45,-143,cs),
(48,-203,o),
(85,-256,o),
(112,-285,cs),
(135,-311,o),
(166,-308,o),
(180,-289,cs),
(197,-268,o),
(185,-252,o),
(170,-235,cs),
(146,-211,o),
(131,-187,o),
(129,-139,cs),
(128,-83,o),
(174,12,o),
(179,66,cs),
(185,114,o),
(179,155,o),
(148,216,c),
(70,224,l)
);
}
);
width = 326;
}
);
metricLeft = N;
metricRight = N;
unicode = 123;
},
{
glyphname = braceright;
lastChange = "2022-02-26 19:36:14 +0000";
layers = (
{
layerId = m01;
shapes = (
{
closed = 1;
nodes = (
(129,125,o),
(113,91,o),
(104,48,cs),
(92,-5,o),
(101,-119,o),
(79,-178,cs),
(59,-228,o),
(31,-253,o),
(-4,-270,cs),
(-16,-276,o),
(-27,-282,o),
(-22,-293,cs),
(-18,-305,o),
(-5,-305,o),
(9,-297,cs),
(41,-280,o),
(91,-244,o),
(112,-191,cs),
(137,-130,o),
(129,-13,o),
(141,43,cs),
(148,72,o),
(162,97,o),
(188,123,cs),
(201,136,o),
(210,142,o),
(216,159,c),
(172,166,l)
);
},
{
closed = 1;
nodes = (
(219,175,o),
(212,185,o),
(204,200,cs),
(188,231,o),
(185,259,o),
(187,288,cs),
(197,346,o),
(246,448,o),
(245,514,cs),
(244,569,o),
(198,614,o),
(175,636,cs),
(164,645,o),
(150,657,o),
(141,646,cs),
(134,637,o),
(135,627,o),
(146,618,cs),
(172,597,o),
(208,563,o),
(210,509,cs),
(209,447,o),
(159,347,o),
(150,294,cs),
(143,250,o),
(146,216,o),
(172,166,c),
(216,159,l)
);
}
);
width = 274;
},
{
layerId = m002;
shapes = (
{
closed = 1;
nodes = (
(137,139,o),
(119,101,o),
(109,55,cs),
(97,0,o),
(102,-99,o),
(83,-151,cs),
(65,-195,o),
(45,-213,o),
(16,-227,cs),
(-9,-240,o),
(-22,-254,o),
(-15,-275,cs),
(-8,-300,o),
(25,-309,o),
(53,-291,c),
(87,-273,o),
(139,-235,o),
(161,-179,cs),
(187,-116,o),
(182,-10,o),
(193,40,cs),
(200,66,o),
(210,85,o),
(232,107,cs),
(246,122,o),
(262,130,o),
(265,175,c),
(190,187,l)
);
},
{
closed = 1;
nodes = (
(273,171,o),
(265,182,o),
(252,205,cs),
(239,231,o),
(236,253,o),
(238,278,c),
(248,332,o),
(295,430,o),
(294,497,cs),
(293,558,o),
(244,607,o),
(219,630,cs),
(198,648,o),
(167,662,o),
(149,637,cs),
(134,618,o),
(136,598,o),
(158,580,cs),
(181,562,o),
(208,536,o),
(210,493,cs),
(209,437,o),
(162,343,o),
(152,289,cs),
(145,241,o),
(149,202,o),
(182,143,c),
(254,132,l)
);
}
);
width = 326;
}
);
metricLeft = N;
metricRight = N;
unicode = 125;
},
{
glyphname = bracketleft;
lastChange = "2022-02-26 19:36:14 +0000";
layers = (
{
layerId = m01;
shapes = (
{
closed = 1;
nodes = (
(187,636,o),
(187,650,o),
(166,650,cs),
(145,650,o),
(137,639,o),
(134,623,cs),
(-24,-273,ls),
(-27,-288,o),
(-19,-300,o),
(1,-300,cs),
(23,-300,o),
(25,-283,o),
(27,-273,cs),
(184,618,ls)
);
},
{
closed = 1;
nodes = (
(143,-300,ls),
(160,-300,o),
(169,-288,o),
(169,-277,cs),
(169,-266,o),
(161,-255,o),
(143,-255,cs),
(4,-255,l),
(-2,-300,l)
);
},
{
closed = 1;
nodes = (
(302,605,ls),
(319,605,o),
(328,616,o),
(329,627,cs),
(330,638,o),
(321,650,o),
(302,650,cs),
(164,650,l),
(159,605,l)
);
}
);
width = 304;
},
{
layerId = m002;
shapes = (
{
closed = 1;
nodes = (
(244,640,o),
(219,650,o),
(192,650,cs),
(162,650,o),
(142,637,o),
(137,609,cs),
(-15,-251,ls),
(-20,-279,o),
(0,-300,o),
(34,-300,cs),
(67,-300,o),
(82,-278,o),
(86,-255,cs),
(237,600,ls)
);
},
{
closed = 1;
nodes = (
(170,-300,ls),
(200,-300,o),
(217,-284,o),
(222,-258,cs),
(227,-230,o),
(201,-215,o),
(170,-215,cs),
(44,-215,l),
(32,-300,l)
);
},
{
closed = 1;
nodes = (
(323,565,ls),
(351,565,o),
(370,582,o),
(374,605,cs),
(379,633,o),
(352,650,o),
(323,650,cs),
(190,650,l),
(180,565,l)
);
}
);
width = 357;
}
);
metricLeft = N;
metricRight = N;
unicode = 91;
},
{
glyphname = bracketright;
lastChange = "2022-02-26 19:36:14 +0000";
layers = (
{
layerId = m01;
shapes = (
{
closed = 1;
nodes = (
(331,638,o),
(323,650,o),
(303,650,cs),
(281,650,o),
(279,634,o),
(277,624,cs),
(120,-268,ls),
(117,-286,o),
(117,-300,o),
(138,-300,c),
(160,-300,o),
(167,-289,o),
(170,-273,cs),
(328,623,ls)
);
},
{
closed = 1;
nodes = (
(148,-255,l),
(3,-255,ls),
(-14,-255,o),
(-24,-266,o),
(-24,-277,cs),
(-24,-289,o),
(-16,-300,o),
(3,-300,cs),
(141,-300,l)
);
},
{
closed = 1;
nodes = (
(307,650,l),
(162,650,ls),
(144,650,o),
(135,638,o),
(135,627,cs),
(135,616,o),
(144,605,o),
(162,605,cs),
(299,605,l)
);
}
);
width = 304;
},
{
layerId = m002;
shapes = (
{
closed = 1;
nodes = (
(377,629,o),
(357,650,o),
(323,650,cs),
(289,650,o),
(276,632,o),
(272,610,cs),
(121,-246,ls),
(113,-291,o),
(138,-300,o),
(165,-300,cs),
(196,-300,o),
(215,-287,o),
(220,-259,cs),
(372,601,ls)
);
},
{
closed = 1;
nodes = (
(180,-215,l),
(35,-215,ls),
(9,-215,o),
(-12,-233,o),
(-16,-257,cs),
(-20,-281,o),
(1,-300,o),
(35,-300,cs),
(166,-300,l)
);
},
{
closed = 1;
nodes = (
(324,650,l),
(188,650,ls),
(157,650,o),
(141,634,o),
(136,607,cs),
(132,583,o),
(157,565,o),
(188,565,cs),
(308,565,l)
);
}
);
width = 356;
}
);
metricLeft = N;
metricRight = N;
unicode = 93;
},
{
glyphname = quotedbl;
lastChange = "2022-02-26 19:36:14 +0000";
layers = (
{
layerId = m01;
shapes = (
{
closed = 1;
nodes = (
(189,640,o),
(176,650,o),
(163,650,cs),
(151,650,o),
(137,641,o),
(134,624,cs),
(117,528,ls),
(114,510,o),
(126,500,o),
(139,500,cs),
(151,500,o),
(165,508,o),
(168,524,cs),
(185,620,ls)
);
},
{
closed = 1;
nodes = (
(296,640,o),
(284,650,o),
(270,650,cs),
(258,650,o),
(246,642,o),
(243,628,cs),
(225,528,ls),
(222,509,o),
(234,500,o),
(248,500,cs),
(260,500,o),
(274,507,o),
(276,521,cs),
(293,620,ls)
);
}
);
width = 270;
},
{
layerId = m002;
shapes = (
{
closed = 1;
nodes = (
(401,629,o),
(375,650,o),
(347,650,cs),
(324,650,o),
(300,635,o),
(295,610,cs),
(277,510,ls),
(270,472,o),
(301,456,o),
(325,456,cs),
(347,456,o),
(374,470,o),
(378,496,cs),
(395,595,ls)
);
},
{
closed = 1;
nodes = (
(242,628,o),
(218,650,o),
(190,650,cs),
(167,650,o),
(141,634,o),
(136,606,cs),
(119,510,ls),
(113,477,o),
(138,456,o),
(166,456,cs),
(189,456,o),
(214,471,o),
(219,498,cs),
(236,594,ls)
);
}
);
width = 380;
}
);
metricLeft = N;
metricRight = N;
unicode = 34;
},
{
glyphname = quotesingle;
lastChange = "2022-02-26 19:36:14 +0000";
layers = (
{
layerId = m01;
shapes = (
{
closed = 1;
nodes = (
(188,640,o),
(176,650,o),
(162,650,cs),
(150,650,o),
(138,642,o),
(135,628,cs),
(117,528,ls),
(114,509,o),
(126,500,o),
(140,500,cs),
(152,500,o),
(166,507,o),
(168,521,cs),
(185,620,ls)
);
}
);
width = 162;
},
{
layerId = m002;
shapes = (
{
closed = 1;
nodes = (
(242,629,o),
(217,650,o),
(189,650,cs),
(166,650,o),
(143,635,o),
(137,610,cs),
(119,510,ls),
(113,472,o),
(143,456,o),
(167,456,cs),
(189,456,o),
(216,470,o),
(220,496,cs),
(237,595,ls)
);
}
);
width = 222;
}
);
metricLeft = N;
metricRight = N;
unicode = 39;
},
{
glyphname = at;
lastChange = "2022-02-26 19:36:14 +0000";
layers = (
{
layerId = m01;
shapes = (
{
closed = 1;
nodes = (
(636,153,o),
(651,204,o),
(655,238,cs),
(677,403,o),
(594,476,o),
(437,476,cs),
(347,476,o),
(247,458,o),
(190,418,cs),
(102,356,o),
(59,228,o),
(46,124,cs),
(27,-20,o),
(80,-118,o),
(227,-118,cs),
(281,-118,o),
(323,-105,o),
(356,-84,cs),
(394,-60,o),
(402,-36,o),
(391,-22,cs),
(383,-11,o),
(370,-15,o),
(349,-29,cs),
(305,-60,o),
(260,-68,o),
(223,-68,cs),
(112,-68,o),
(78,4,o),
(97,123,cs),
(108,192,o),
(137,317,o),
(216,375,cs),
(262,409,o),
(351,426,o),
(435,426,cs),
(557,426,o),
(622,379,o),
(608,256,cs),
(603,214,o),
(586,166,o),
(557,125,c),
(598,98,l)
);
},
{
closed = 1;
nodes = (
(452,300,l),
(424,253,o),
(391,204,o),
(350,152,cs),
(289,76,o),
(252,46,o),
(233,46,cs),
(219,46,o),
(219,61,o),
(219,77,cs),
(219,115,o),
(237,205,o),
(263,244,cs),
(293,289,o),
(344,299,o),
(378,299,cs),
(385,299,o),
(453,299,o),
(461,299,c),
(472,299,l),
(472,301,o),
(472,346,o),
(472,349,c),
(460,349,o),
(398,349,o),
(378,349,cs),
(321,349,o),
(262,332,o),
(224,275,cs),
(192,227,o),
(169,130,o),
(169,72,cs),
(169,21,o),
(192,0,o),
(225,0,cs),
(283,0,o),
(332,49,o),
(374,101,cs),
(422,162,o),
(470,239,o),
(493,291,cs),
(497,300,l)
);
},
{
closed = 1;
nodes = (
(535,92,o),
(491,48,o),
(475,48,cs),
(464,48,o),
(467,66,o),
(467,78,cs),
(467,93,o),
(472,124,o),
(473,132,cs),
(508,327,ls),
(511,343,o),
(505,349,o),
(490,349,cs),
(460,349,l),
(424,146,ls),
(420,122,o),
(417,95,o),
(417,75,cs),
(417,26,o),
(434,0,o),
(470,0,cs),
(523,0,o),
(567,54,o),
(603,105,c),
(564,135,l)
);
}
);
width = 688;
},
{
layerId = m002;
shapes = (
{
closed = 1;
nodes = (
(641,131,o),
(657,193,o),
(663,228,cs),
(692,391,o),
(613,487,o),
(431,487,cs),
(348,487,o),
(244,473,o),
(176,423,cs),
(82,353,o),
(48,227,o),
(32,134,cs),
(8,-4,o),
(49,-128,o),
(228,-128,cs),
(280,-128,o),
(325,-116,o),
(356,-96,cs),
(406,-65,o),
(404,-43,o),
(388,-19,cs),
(378,-4,o),
(354,9,o),
(322,-12,cs),
(287,-36,o),
(254,-40,o),
(224,-40,cs),
(144,-40,o),
(109,28,o),
(126,127,cs),
(136,186,o),
(157,295,o),
(228,349,cs),
(280,389,o),
(358,397,o),
(429,397,cs),
(557,397,o),
(588,348,o),
(571,249,cs),
(564,208,o),
(544,160,o),
(510,118,c),
(587,69,l)
);
},
{
closed = 1;
nodes = (
(440,303,l),
(413,258,o),
(384,211,o),
(346,163,cs),
(293,97,o),
(271,86,o),
(266,86,cs),
(261,86,o),
(261,105,o),
(261,110,cs),
(261,133,o),
(275,195,o),
(294,225,cs),
(316,258,o),
(349,265,o),
(373,265,cs),
(379,265,o),
(439,265,o),
(446,265,cs),
(480,265,l),
(480,289,o),
(480,328,o),
(480,350,c),
(457,350,o),
(392,350,o),
(373,350,cs),
(318,350,o),
(255,335,o),
(217,276,cs),
(187,229,o),
(167,139,o),
(167,85,cs),
(167,25,o),
(184,-2,o),
(225,-2,cs),
(288,-2,o),
(350,52,o),
(388,97,cs),
(431,153,o),
(482,223,o),
(497,269,cs),
(509,307,l)
);
},
{
closed = 1;
nodes = (
(515,116,o),
(489,111,o),
(485,111,cs),
(478,111,o),
(478,121,o),
(480,131,cs),
(482,143,o),
(487,169,o),
(488,175,cs),
(512,305,ls),
(517,333,o),
(499,350,o),
(471,350,cs),
(424,350,l),
(388,153,ls),
(384,132,o),
(382,106,o),
(382,87,cs),
(382,27,o),
(418,-1,o),
(461,-1,cs),
(529,-1,o),
(589,60,o),
(617,113,c),
(542,166,l)
);
}
);
width = 684;
}
);
metricLeft = o;
metricRight = "=o-5";
unicode = 64;
},
{
glyphname = ampersand;
lastChange = "2022-02-26 19:36:14 +0000";
layers = (
{
layerId = m01;
shapes = (
{
closed = 1;
nodes = (
(389,4,o),
(407,-7,o),
(422,4,cs),
(435,14,o),
(432,29,o),
(424,41,cs),
(234,317,l),
(165,324,l),
(104,279,o),
(63,227,o),
(54,178,cs),
(40,103,o),
(94,-4,o),
(214,-4,cs),
(304,-4,o),
(343,56,o),
(411,169,c),
(419,181,o),
(415,195,o),
(403,201,cs),
(391,208,o),
(375,203,o),
(366,190,c),
(305,96,o),
(283,46,o),
(214,46,cs),
(140,46,o),
(91,103,o),
(102,164,cs),
(110,205,o),
(145,249,o),
(196,285,c),
(382,14,ls)
);
},
{
closed = 1;
nodes = (
(199,363,o),
(154,424,o),
(154,455,cs),
(154,487,o),
(200,518,o),
(257,518,cs),
(301,518,o),
(318,500,o),
(322,486,cs),
(331,449,o),
(259,383,o),
(158,319,c),
(234,309,l),
(321,371,o),
(388,432,o),
(368,500,cs),
(355,547,o),
(310,568,o),
(257,568,cs),
(169,568,o),
(104,510,o),
(104,453,cs),
(104,403,o),
(153,342,o),
(175,309,c),
(218,335,l)
);
}
);
width = 498;
},
{
layerId = m002;
shapes = (
{
closed = 1;
nodes = (
(382,3,o),
(418,-9,o),
(442,8,cs),
(467,27,o),
(462,52,o),
(448,73,cs),
(269,335,l),
(182,344,l),
(118,297,o),
(73,243,o),
(63,190,cs),
(48,108,o),
(108,-4,o),
(235,-4,cs),
(334,-4,o),
(376,63,o),
(438,168,cs),
(452,190,o),
(444,213,o),
(423,225,cs),
(401,238,o),
(369,231,o),
(354,209,cs),
(296,120,o),
(282,86,o),
(235,86,cs),
(179,86,o),
(148,123,o),
(157,169,cs),
(162,197,o),
(182,225,o),
(213,251,c),
(369,23,ls)
);
},
{
closed = 1;
nodes = (
(242,369,o),
(205,419,o),
(205,441,cs),
(205,460,o),
(230,478,o),
(275,478,cs),
(302,478,o),
(309,473,o),
(311,465,cs),
(317,438,o),
(252,386,o),
(158,333,c),
(261,284,l),
(347,344,o),
(424,409,o),
(401,489,cs),
(386,543,o),
(332,568,o),
(275,568,cs),
(180,568,o),
(109,504,o),
(109,439,cs),
(109,386,o),
(158,325,o),
(191,276,c),
(273,325,l)
);
}
);
width = 534;
}
);
metricLeft = O;
metricRight = O;
unicode = 38;
},
{
glyphname = degree;
lastChange = "2022-02-26 19:11:09 +0000";
layers = (
{
layerId = m01;
shapes = (
{
closed = 1;
nodes = (
(221,433,o),
(287,532,o),
(287,595,cs),
(287,634,o),
(264,655,o),
(219,655,cs),
(182,655,o),
(156,630,o),
(141,604,cs),
(130,583,o),
(113,543,o),
(113,496,cs),
(113,449,o),
(130,433,o),
(157,433,cs)
);
},
{
closed = 1;
nodes = (
(152,472,o),
(152,486,o),
(152,503,cs),
(152,530,o),
(164,559,o),
(178,588,c),
(190,608,o),
(200,615,o),
(217,615,cs),
(239,615,o),
(247,609,o),
(247,588,cs),
(247,550,o),
(195,472,o),
(164,472,cs)
);
}
);
width = 255;
},
{
layerId = m002;
shapes = (
{
closed = 1;
nodes = (
(260,398,o),
(331,508,o),
(331,577,cs),
(331,625,o),
(299,654,o),
(243,654,cs),
(194,654,o),
(162,621,o),
(146,593,cs),
(134,573,o),
(117,528,o),
(117,478,cs),
(117,410,o),
(153,398,o),
(181,398,cs)
);
},
{
closed = 1;
nodes = (
(194,476,o),
(192,492,o),
(193,504,cs),
(196,524,o),
(202,543,o),
(212,562,cs),
(220,577,o),
(230,580,o),
(240,580,cs),
(251,580,o),
(251,571,o),
(250,555,cs),
(248,523,o),
(216,476,o),
(198,476,cs)
);
}
);
width = 312;
}
);
metricLeft = O;
metricRight = O;
unicode = 176;
},
{
glyphname = bar;
lastChange = "2022-02-26 19:36:14 +0000";
layers = (
{
layerId = m01;
shapes = (
{
closed = 1;
nodes = (
(197,690,o),
(186,700,o),
(173,700,cs),
(161,700,o),
(146,690,o),
(143,672,cs),
(-24,-273,ls),
(-27,-288,o),
(-18,-300,o),
(0,-300,cs),
(22,-300,o),
(25,-285,o),
(27,-275,cs),
(193,668,ls)
);
}
);
width = 161;
},
{
layerId = m002;
shapes = (
{
closed = 1;
nodes = (
(250,681,o),
(227,702,o),
(199,702,cs),
(177,702,o),
(151,685,o),
(146,657,cs),
(-15,-250,ls),
(-21,-278,o),
(1,-302,o),
(33,-302,cs),
(67,-302,o),
(79,-281,o),
(84,-260,c),
(244,645,ls)
);
}
);
width = 220;
}
);
metricLeft = N;
metricRight = N;
unicode = 124;
},
{
glyphname = brokenbar;
lastChange = "2022-02-26 19:36:14 +0000";
layers = (
{
layerId = m01;
shapes = (
{
closed = 1;
nodes = (
(102,152,o),
(91,162,o),
(79,162,cs),
(66,162,o),
(51,152,o),
(48,135,cs),
(-24,-273,ls),
(-27,-288,o),
(-18,-300,o),
(0,-300,cs),
(22,-300,o),
(25,-285,o),
(27,-275,cs),
(99,135,ls)
);
},
{
closed = 1;
nodes = (
(197,690,o),
(186,700,o),
(173,700,cs),
(161,700,o),
(146,690,o),
(143,672,cs),
(71,266,ls),
(68,249,o),
(79,238,o),
(92,239,cs),
(105,239,o),
(119,249,o),
(122,266,cs),
(193,668,ls)
);
}
);
width = 161;
},
{
layerId = m002;
shapes = (
{
closed = 1;
nodes = (
(154,141,o),
(132,163,o),
(105,163,cs),
(82,163,o),
(55,146,o),
(50,119,cs),
(-15,-248,ls),
(-20,-276,o),
(1,-300,o),
(33,-300,cs),
(67,-300,o),
(80,-279,o),
(84,-258,cs),
(149,111,ls)
);
},
{
closed = 1;
nodes = (
(249,679,o),
(226,700,o),
(198,700,cs),
(176,700,o),
(150,683,o),
(145,655,cs),
(80,290,ls),
(74,259,o),
(98,236,o),
(126,238,cs),
(149,239,o),
(174,256,o),
(179,282,cs),
(243,643,ls)
);
}
);
width = 219;
}
);
metricLeft = N;
metricRight = N;
unicode = 166;
},
{
glyphname = dollar;
lastChange = "2022-02-26 19:36:14 +0000";
layers = (
{
layerId = m01;
shapes = (
{
closed = 1;
nodes = (
(255,0,o),
(429,17,o),
(429,153,cs),
(429,236,o),
(365,262,o),
(279,312,cs),
(213,350,o),
(148,381,o),
(148,425,cs),
(148,482,o),
(257,519,o),
(334,519,cs),
(477,519,ls),
(492,519,o),
(500,532,o),
(500,545,cs),
(500,557,o),
(492,569,o),
(473,569,cs),
(335,569,ls),
(203,569,o),
(98,503,o),
(98,420,cs),
(98,349,o),
(175,315,o),
(253,269,cs),
(329,225,o),
(379,206,o),
(379,152,cs),
(379,57,o),
(222,50,o),
(157,50,cs),
(54,50,ls),
(38,50,o),
(27,37,o),
(27,24,cs),
(27,12,o),
(35,0,o),
(54,0,cs),
(157,0,ls)
);
},
{
closed = 1;
nodes = (
(356,639,o),
(346,650,o),
(334,650,cs),
(323,650,o),
(310,641,o),
(307,622,cs),
(188,-52,ls),
(185,-71,o),
(195,-80,o),
(206,-80,cs),
(217,-80,o),
(230,-71,o),
(233,-54,cs),
(352,618,ls)
);
}
);
width = 475;
},
{
layerId = m002;
shapes = (
{
closed = 1;
nodes = (
(279,-4,o),
(465,13,o),
(465,161,cs),
(465,253,o),
(392,282,o),
(312,329,cs),
(250,365,o),
(201,388,o),
(201,417,cs),
(201,455,o),
(283,477,o),
(351,477,cs),
(485,477,ls),
(512,477,o),
(532,498,o),
(532,523,cs),
(532,548,o),
(512,568,o),
(481,568,cs),
(352,568,ls),
(217,568,o),
(104,504,o),
(104,412,cs),
(104,331,o),
(189,294,o),
(262,251,cs),
(335,209,o),
(368,197,o),
(368,160,cs),
(368,92,o),
(244,87,o),
(184,87,cs),
(88,87,ls),
(60,87,o),
(37,66,o),
(37,41,cs),
(37,16,o),
(57,-4,o),
(88,-4,cs),
(184,-4,ls)
);
},
{
closed = 1;
nodes = (
(400,629,o),
(377,650,o),
(351,650,cs),
(329,650,o),
(304,635,o),
(299,606,cs),
(188,-28,ls),
(182,-61,o),
(205,-80,o),
(230,-80,cs),
(252,-80,o),
(277,-65,o),
(282,-38,cs),
(394,594,ls)
);
}
);
width = 521;
}
);
metricLeft = O;
metricRight = O;
unicode = 36;
},
{
glyphname = plus;
lastChange = "2022-02-26 19:36:14 +0000";
layers = (
{
layerId = m01;
shapes = (
{
closed = 1;
nodes = (
(244,323,o),
(232,334,o),
(220,334,cs),
(210,334,o),
(200,327,o),
(197,311,cs),
(158,87,ls),
(155,68,o),
(167,57,o),
(179,57,cs),
(189,57,o),
(199,64,o),
(202,80,cs),
(241,304,ls)
);
},
{
closed = 1;
nodes = (
(331,175,o),
(340,187,o),
(340,198,cs),
(340,209,o),
(331,220,o),
(313,220,cs),
(86,220,ls),
(68,220,o),
(59,209,o),
(59,198,cs),
(59,187,o),
(68,175,o),
(86,175,cs),
(313,175,ls)
);
}
);
width = 390;
},
{
layerId = m002;
shapes = (
{
closed = 1;
nodes = (
(274,329,o),
(251,350,o),
(224,350,cs),
(204,350,o),
(182,337,o),
(177,310,cs),
(140,95,ls),
(135,62,o),
(158,41,o),
(185,41,cs),
(205,41,o),
(227,54,o),
(232,81,cs),
(269,296,ls)
);
},
{
closed = 1;
nodes = (
(344,154,o),
(364,174,o),
(364,198,cs),
(364,221,o),
(344,241,o),
(313,241,cs),
(96,241,ls),
(65,241,o),
(45,221,o),
(45,198,cs),
(45,174,o),
(65,154,o),
(96,154,cs),
(313,154,ls)
);
}
);
width = 400;
}
);
metricLeft = n;
metricRight = n;
unicode = 43;
},
{
glyphname = minus;
lastChange = "2022-02-26 19:36:14 +0000";
layers = (
{
layerId = m01;
shapes = (
{
closed = 1;
nodes = (
(331,175,o),
(340,187,o),
(340,198,cs),
(340,209,o),
(331,220,o),
(313,220,cs),
(86,220,ls),
(68,220,o),
(59,209,o),
(59,198,cs),
(59,186,o),
(68,175,o),
(86,175,cs),
(313,175,ls)
);
}
);
width = 390;
},
{
layerId = m002;
shapes = (
{
closed = 1;
nodes = (
(344,154,o),
(364,174,o),
(364,198,cs),
(364,222,o),
(344,241,o),
(313,241,cs),
(96,241,ls),
(65,241,o),
(45,222,o),
(45,198,cs),
(45,173,o),
(65,154,o),
(96,154,cs),
(313,154,ls)
);
}
);
width = 400;
}
);
metricLeft = n;
metricRight = n;
unicode = 8722;
},
{
glyphname = multiply;
lastChange = "2022-02-26 19:33:57 +0000";
layers = (
{
layerId = m01;
shapes = (
{
closed = 1;
nodes = (
(364,302,o),
(362,317,o),
(353,325,cs),
(344,334,o),
(328,337,o),
(314,325,cs),
(48,101,ls),
(36,91,o),
(38,76,o),
(46,67,cs),
(55,58,o),
(70,54,o),
(86,67,cs),
(350,290,ls)
);
},
{
closed = 1;
nodes = (
(113,336,o),
(98,335,o),
(89,327,cs),
(80,318,o),
(76,303,o),
(86,291,cs),
(275,69,ls),
(286,56,o),
(301,58,o),
(310,66,cs),
(320,74,o),
(324,89,o),
(313,102,cs),
(126,321,ls)
);
}
);
width = 391;
},
{
layerId = m002;
shapes = (
{
closed = 1;
nodes = (
(389,292,o),
(388,319,o),
(368,336,cs),
(351,351,o),
(320,355,o),
(297,337,cs),
(42,122,ls),
(20,102,o),
(20,78,o),
(36,59,cs),
(54,40,o),
(86,36,o),
(112,56,cs),
(366,270,l)
);
},
{
closed = 1;
nodes = (
(129,355,o),
(94,353,o),
(77,335,cs),
(62,317,o),
(58,294,o),
(76,273,cs),
(257,59,l),
(277,38,o),
(310,40,o),
(327,55,cs),
(346,72,o),
(351,97,o),
(331,120,cs),
(152,331,l)
);
}
);
width = 400;
}
);
metricLeft = n;
metricRight = n;
unicode = 215;
},
{
glyphname = divide;
lastChange = "2022-02-26 19:36:14 +0000";
layers = (
{
layerId = m01;
shapes = (
{
closed = 1;
nodes = (
(348,175,o),
(350,220,o),
(313,220,cs),
(86,220,ls),
(49,220,o),
(51,175,o),
(86,175,cs),
(313,175,ls)
);
},
{
closed = 1;
nodes = (
(197,57,o),
(213,73,o),
(213,90,cs),
(213,108,o),
(196,122,o),
(179,122,cs),
(160,122,o),
(148,106,o),
(148,90,cs),
(148,73,o),
(161,57,o),
(179,57,cs)
);
},
{
closed = 1;
nodes = (
(235,273,o),
(251,289,o),
(251,306,cs),
(251,323,o),
(235,338,o),
(218,338,cs),
(200,338,o),
(186,322,o),
(186,306,cs),
(186,290,o),
(200,273,o),
(218,273,cs)
);
}
);
width = 390;
},
{
layerId = m002;
shapes = (
{
closed = 1;
nodes = (
(378,154,o),
(381,241,o),
(312,241,cs),
(95,241,ls),
(26,241,o),
(29,154,o),
(95,154,cs),
(312,154,ls)
);
},
{
closed = 1;
nodes = (
(211,16,o),
(238,40,o),
(238,69,cs),
(238,100,o),
(210,122,o),
(181,122,cs),
(150,122,o),
(126,98,o),
(126,69,cs),
(126,40,o),
(151,16,o),
(181,16,cs)
);
},
{
closed = 1;
nodes = (
(257,273,o),
(284,297,o),
(284,327,cs),
(284,356,o),
(257,379,o),
(227,379,cs),
(197,379,o),
(172,355,o),
(172,327,cs),
(172,298,o),
(197,273,o),
(227,273,cs)
);
}
);
width = 398;
}
);
metricLeft = n;
metricRight = n;
unicode = 247;
},
{
glyphname = equal;
lastChange = "2022-02-26 19:36:14 +0000";
layers = (
{
layerId = m01;
shapes = (
{
closed = 1;
nodes = (
(344,248,o),
(353,260,o),
(353,271,cs),
(353,282,o),
(344,293,o),
(326,293,cs),
(99,293,ls),
(81,293,o),
(72,282,o),
(72,271,cs),
(72,260,o),
(81,248,o),
(99,248,cs),
(326,248,ls)
);
},
{
closed = 1;
nodes = (
(318,97,o),
(327,108,o),
(327,120,cs),
(327,131,o),
(318,142,o),
(300,142,cs),
(73,142,ls),
(55,142,o),
(46,131,o),
(46,120,cs),
(46,109,o),
(55,97,o),
(73,97,cs),
(300,97,ls)
);
}
);
width = 391;
},
{
layerId = m002;
shapes = (
{
closed = 1;
nodes = (
(360,248,o),
(381,266,o),
(381,290,cs),
(381,314,o),
(360,333,o),
(330,333,cs),
(112,333,ls),
(82,333,o),
(61,314,o),
(61,290,cs),
(61,266,o),
(82,248,o),
(112,248,cs),
(330,248,ls)
);
},
{
closed = 1;
nodes = (
(334,97,o),
(355,116,o),
(355,141,cs),
(355,165,o),
(334,182,o),
(304,182,cs),
(86,182,ls),
(56,182,o),
(35,165,o),
(35,141,cs),
(35,117,o),
(56,97,o),
(86,97,cs),
(304,97,ls)
);
}
);
width = 401;
}
);
metricLeft = n;
metricRight = n;
unicode = 61;
},
{
glyphname = notequal;
lastChange = "2022-02-26 19:36:14 +0000";
layers = (
{
layerId = m01;
shapes = (
{
closed = 1;
nodes = (
(291,337,o),
(279,350,o),
(265,350,cs),
(255,350,o),
(245,345,o),
(239,333,cs),
(118,72,ls),
(110,54,o),
(118,42,o),
(129,38,cs),
(139,35,o),
(152,38,o),
(158,51,cs),
(279,312,ls)
);
},
{
closed = 1;
nodes = (
(318,97,o),
(327,108,o),
(327,120,cs),
(327,131,o),
(318,142,o),
(300,142,cs),
(73,142,ls),
(55,142,o),
(46,131,o),
(46,120,cs),
(46,109,o),
(55,97,o),
(73,97,cs),
(300,97,ls)
);
},
{
closed = 1;
nodes = (
(344,248,o),
(353,260,o),
(353,271,cs),
(353,282,o),
(344,293,o),
(326,293,cs),
(99,293,ls),
(81,293,o),
(72,282,o),
(72,271,cs),
(72,260,o),
(81,248,o),
(99,248,cs),
(326,248,ls)
);
}
);
width = 391;
},
{
layerId = m002;
shapes = (
{
closed = 1;
nodes = (
(342,376,o),
(314,401,o),
(285,401,cs),
(268,401,o),
(246,391,o),
(237,372,cs),
(92,60,ls),
(78,30,o),
(93,8,o),
(118,-1,cs),
(138,-7,o),
(166,-1,o),
(177,22,cs),
(322,333,ls)
);
},
{
closed = 1;
nodes = (
(334,97,o),
(355,116,o),
(355,141,cs),
(355,165,o),
(334,182,o),
(304,182,cs),
(86,182,ls),
(56,182,o),
(35,165,o),
(35,141,cs),
(35,117,o),
(56,97,o),
(86,97,cs),
(304,97,ls)
);
},
{
closed = 1;
nodes = (
(360,248,o),
(381,266,o),
(381,290,cs),
(381,314,o),
(360,333,o),
(330,333,cs),
(112,333,ls),
(82,333,o),
(61,314,o),
(61,290,cs),
(61,266,o),
(82,248,o),
(112,248,cs),
(330,248,ls)
);
}
);
width = 401;
}
);
metricLeft = n;
metricRight = n;
unicode = 8800;
},
{
glyphname = greater;
lastChange = "2022-02-26 19:36:14 +0000";
layers = (
{
layerId = m01;
shapes = (
{
closed = 1;
nodes = (
(274,216,l),
(59,103,ls),
(39,93,o),
(36,81,o),
(40,70,cs),
(44,60,o),
(55,50,o),
(74,60,cs),
(300,179,l)
);
},
{
closed = 1;
nodes = (
(288,171,o),
(299,176,o),
(306,186,cs),
(314,197,o),
(314,207,o),
(299,217,cs),
(122,330,ls),
(106,340,o),
(93,339,o),
(85,329,cs),
(77,318,o),
(80,304,o),
(95,294,cs),
(273,181,ls)
);
}
);
width = 361;
},
{
layerId = m002;
shapes = (
{
closed = 1;
nodes = (
(283,245,l),
(58,127,ls),
(28,112,o),
(20,92,o),
(26,70,cs),
(33,46,o),
(63,30,o),
(94,45,cs),
(335,173,l)
);
},
{
closed = 1;
nodes = (
(283,147,o),
(314,154,o),
(328,176,cs),
(341,198,o),
(338,218,o),
(313,235,cs),
(142,344,ls),
(117,359,o),
(88,355,o),
(74,337,cs),
(58,315,o),
(63,291,o),
(88,272,c),
(259,164,l)
);
}
);
width = 374;
}
);
metricLeft = n;
metricRight = n;
unicode = 62;
},
{
glyphname = less;
lastChange = "2022-02-26 18:33:04 +0000";
layers = (
{
layerId = m01;
shapes = (
{
closed = 1;
nodes = (
(311,290,ls),
(331,300,o),
(334,312,o),
(330,323,cs),
(326,333,o),
(315,343,o),
(296,333,cs),
(70,214,l),
(96,177,l)
);
},
{
closed = 1;
nodes = (
(264,53,o),
(277,54,o),
(285,64,cs),
(293,75,o),
(290,89,o),
(275,99,cs),
(97,212,ls),
(82,222,o),
(71,217,o),
(64,207,cs),
(56,196,o),
(56,186,o),
(71,176,cs),
(248,63,ls)
);
}
);
width = 361;
},
{
layerId = m002;
shapes = (
{
closed = 1;
nodes = (
(325,266,ls),
(355,281,o),
(363,301,o),
(357,323,cs),
(350,347,o),
(320,363,o),
(289,348,cs),
(48,220,l),
(100,148,l)
);
},
{
closed = 1;
nodes = (
(266,34,o),
(295,38,o),
(309,56,cs),
(325,78,o),
(320,102,o),
(295,121,c),
(124,229,l),
(100,246,o),
(69,239,o),
(55,217,cs),
(42,195,o),
(45,175,o),
(70,158,cs),
(241,49,ls)
);
}
);
width = 375;
}
);
metricLeft = n;
metricRight = n;
unicode = 60;
},
{
glyphname = greaterequal;
lastChange = "2022-02-26 19:36:14 +0000";
layers = (
{
layerId = m01;
shapes = (
{
closed = 1;
nodes = (
(299,198,o),
(310,202,o),
(317,212,cs),
(325,223,o),
(325,233,o),
(310,243,cs),
(127,360,ls),
(111,370,o),
(98,369,o),
(90,359,cs),
(82,348,o),
(85,334,o),
(100,324,cs),
(284,207,ls)
);
},
{
closed = 1;
nodes = (
(297,97,o),
(306,108,o),
(306,120,cs),
(306,131,o),
(297,142,o),
(279,142,cs),
(75,142,ls),
(57,142,o),
(48,131,o),
(48,120,cs),
(48,109,o),
(57,97,o),
(75,97,cs),
(279,97,ls)
);
},
{
closed = 1;
nodes = (
(302,248,l),
(96,248,ls),
(74,248,o),
(66,239,o),
(64,227,cs),
(63,216,o),
(68,202,o),
(90,202,cs),
(303,202,l)
);
}
);
width = 370;
},
{
layerId = m002;
shapes = (
{
closed = 1;
nodes = (
(302,197,o),
(329,200,o),
(342,219,cs),
(357,241,o),
(355,261,o),
(330,279,c),
(152,393,ls),
(124,411,o),
(96,403,o),
(84,386,cs),
(68,364,o),
(75,344,o),
(100,325,c),
(279,212,ls)
);
},
{
closed = 1;
nodes = (
(305,57,o),
(325,75,o),
(325,99,cs),
(325,123,o),
(305,142,o),
(274,142,cs),
(78,142,ls),
(48,142,o),
(27,122,o),
(27,98,cs),
(27,75,o),
(48,57,o),
(78,57,cs),
(274,57,ls)
);
},
{
closed = 1;
nodes = (
(308,287,l),
(109,287,ls),
(75,287,o),
(56,271,o),
(53,247,cs),
(51,223,o),
(68,202,o),
(103,202,cs),
(310,202,l)
);
}
);
width = 379;
}
);
metricLeft = n;
metricRight = n;
unicode = 8805;
},
{
glyphname = lessequal;
lastChange = "2022-02-26 19:36:14 +0000";
layers = (
{
layerId = m01;
shapes = (
{
closed = 1;
nodes = (
(346,332,o),
(348,348,o),
(340,359,cs),
(332,369,o),
(320,369,o),
(303,360,cs),
(77,243,ls),
(62,235,o),
(62,223,o),
(70,212,cs),
(77,202,o),
(88,199,o),
(103,207,cs),
(330,324,ls)
);
},
{
closed = 1;
nodes = (
(296,97,o),
(305,109,o),
(305,120,cs),
(305,131,o),
(296,142,o),
(278,142,cs),
(74,142,ls),
(56,142,o),
(47,131,o),
(47,120,cs),
(47,108,o),
(56,97,o),
(74,97,cs),
(278,97,ls)
);
},
{
closed = 1;
nodes = (
(297,202,ls),
(313,202,o),
(323,213,o),
(323,225,cs),
(324,236,o),
(314,248,o),
(291,248,cs),
(85,248,l),
(84,202,l)
);
}
);
width = 369;
},
{
layerId = m002;
shapes = (
{
closed = 1;
nodes = (
(373,337,o),
(381,362,o),
(364,386,cs),
(352,403,o),
(326,408,o),
(297,393,cs),
(80,281,ls),
(52,266,o),
(48,242,o),
(64,221,cs),
(77,201,o),
(102,197,o),
(127,210,cs),
(345,322,ls)
);
},
{
closed = 1;
nodes = (
(304,57,o),
(325,75,o),
(325,98,cs),
(325,122,o),
(304,142,o),
(274,142,cs),
(78,142,ls),
(48,142,o),
(27,122,o),
(27,98,cs),
(27,74,o),
(48,57,o),
(78,57,cs),
(274,57,ls)
);
},
{
closed = 1;
nodes = (
(302,202,ls),
(330,202,o),
(352,222,o),
(352,245,cs),
(354,272,o),
(328,287,o),
(296,287,cs),
(103,287,l),
(101,202,l)
);
}
);
width = 380;
}
);
metricLeft = n;
metricRight = n;
unicode = 8804;
},
{
glyphname = plusminus;
lastChange = "2022-02-26 19:36:14 +0000";
layers = (
{
layerId = m01;
shapes = (
{
closed = 1;
nodes = (
(238,364,o),
(226,375,o),
(214,375,cs),
(204,375,o),
(194,368,o),
(191,352,cs),
(163,196,ls),
(160,177,o),
(172,166,o),
(184,166,cs),
(194,166,o),
(204,173,o),
(207,189,cs),
(235,345,ls)
);
},
{
closed = 1;
nodes = (
(288,97,o),
(297,108,o),
(297,120,cs),
(297,131,o),
(288,142,o),
(270,142,cs),
(73,142,ls),
(55,142,o),
(46,131,o),
(46,120,cs),
(46,109,o),
(55,97,o),
(73,97,cs),
(270,97,ls)
);
},
{
closed = 1;
nodes = (
(314,248,o),
(323,260,o),
(323,271,cs),
(323,282,o),
(314,293,o),
(296,293,cs),
(99,293,ls),
(81,293,o),
(72,282,o),
(72,271,cs),
(72,260,o),
(81,248,o),
(99,248,cs),
(296,248,ls)
);
}
);
width = 361;
},
{
layerId = m002;
shapes = (
{
closed = 1;
nodes = (
(273,390,o),
(248,411,o),
(222,411,cs),
(201,411,o),
(180,398,o),
(175,371,cs),
(148,222,ls),
(142,188,o),
(167,167,o),
(193,167,cs),
(214,167,o),
(235,181,o),
(240,207,cs),
(267,357,ls)
);
},
{
closed = 1;
nodes = (
(300,57,o),
(321,74,o),
(321,99,cs),
(321,122,o),
(300,142,o),
(270,142,cs),
(80,142,ls),
(50,142,o),
(30,122,o),
(30,99,cs),
(30,75,o),
(50,57,o),
(80,57,cs),
(270,57,ls)
);
},
{
closed = 1;
nodes = (
(331,248,o),
(351,266,o),
(351,290,cs),
(351,313,o),
(331,333,o),
(301,333,cs),
(111,333,ls),
(81,333,o),
(61,313,o),
(61,290,cs),
(61,266,o),
(81,248,o),
(111,248,cs),
(301,248,ls)
);
}
);
width = 374;
}
);
metricLeft = n;
metricRight = n;
unicode = 177;
},
{
glyphname = approxequal;
lastChange = "2022-02-26 10:39:39 +0000";
layers = (
{
layerId = m01;
shapes = (
{
closed = 1;
nodes = (
(286,227,o),
(306,237,o),
(327,246,cs),
(345,254,o),
(353,260,o),
(353,271,cs),
(353,282,o),
(341,302,o),
(324,294,cs),
(305,285,o),
(292,272,o),
(262,272,cs),
(234,272,o),
(191,310,o),
(160,310,cs),
(134,310,o),
(117,301,o),
(99,294,cs),
(81,287,o),
(72,282,o),
(72,271,cs),
(72,259,o),
(82,238,o),
(100,246,cs),
(115,253,o),
(129,265,o),
(152,265,cs),
(183,265,o),
(226,227,o),
(254,227,cs)
);
},
{
closed = 1;
nodes = (
(260,76,o),
(280,86,o),
(301,95,cs),
(319,103,o),
(327,109,o),
(327,120,cs),
(327,131,o),
(315,151,o),
(298,143,cs),
(279,134,o),
(266,121,o),
(236,121,cs),
(208,121,o),
(165,159,o),
(134,159,cs),
(108,159,o),
(91,150,o),
(73,143,cs),
(55,136,o),
(46,131,o),
(46,120,cs),
(46,108,o),
(56,87,o),
(74,95,cs),
(89,102,o),
(103,114,o),
(126,114,cs),
(157,114,o),
(200,76,o),
(228,76,cs)
);
}
);
width = 391;
},
{
layerId = m002;
shapes = (
{
closed = 1;
nodes = (
(298,229,o),
(323,241,o),
(341,249,cs),
(369,262,o),
(381,273,o),
(381,293,cs),
(381,321,o),
(349,351,o),
(317,335,cs),
(293,323,o),
(288,316,o),
(269,316,cs),
(252,316,o),
(210,352,o),
(171,352,cs),
(140,352,o),
(118,342,o),
(102,335,cs),
(75,324,o),
(61,313,o),
(61,293,cs),
(61,261,o),
(93,234,o),
(124,249,cs),
(142,258,o),
(150,265,o),
(163,265,cs),
(183,265,o),
(224,229,o),
(261,229,cs)
);
},
{
closed = 1;
nodes = (
(264,35,o),
(289,47,o),
(307,55,cs),
(335,68,o),
(347,79,o),
(347,99,cs),
(347,127,o),
(315,157,o),
(283,141,cs),
(259,129,o),
(254,122,o),
(235,122,cs),
(218,122,o),
(176,158,o),
(137,158,cs),
(106,158,o),
(84,148,o),
(68,141,cs),
(41,130,o),
(27,119,o),
(27,99,cs),
(27,67,o),
(59,40,o),
(90,55,cs),
(108,64,o),
(116,71,o),
(129,71,cs),
(149,71,o),
(190,35,o),
(227,35,cs)
);
}
);
width = 400;
}
);
metricLeft = n;
metricRight = n;
unicode = 8776;
},
{
glyphname = asciicircum;
lastChange = "2022-02-26 19:33:57 +0000";
layers = (
{
layerId = m01;
shapes = (
{
closed = 1;
nodes = (
(307,619,o),
(305,634,o),
(296,642,cs),
(287,651,o),
(271,654,o),
(257,642,cs),
(124,531,ls),
(112,521,o),
(114,506,o),
(122,497,cs),
(131,488,o),
(146,484,o),
(162,497,cs),
(293,607,ls)
);
},
{
closed = 1;
nodes = (
(258,609,l),
(351,499,ls),
(362,486,o),
(377,488,o),
(386,496,cs),
(396,504,o),
(399,520,o),
(389,532,cs),
(297,641,l)
);
}
);
width = 391;
},
{
layerId = m002;
shapes = (
{
closed = 1;
nodes = (
(361,590,o),
(359,617,o),
(341,635,cs),
(324,653,o),
(290,657,o),
(267,638,cs),
(134,527,ls),
(110,507,o),
(114,481,o),
(127,464,cs),
(145,442,o),
(180,439,o),
(204,459,cs),
(335,569,ls)
);
},
{
closed = 1;
nodes = (
(266,573,l),
(358,464,ls),
(377,441,o),
(412,443,o),
(430,460,cs),
(449,477,o),
(453,502,o),
(434,525,cs),
(341,635,l)
);
}
);
width = 450;
}
);
metricLeft = N;
metricRight = N;
unicode = 94;
},
{
glyphname = infinity;
lastChange = "2022-02-26 19:36:14 +0000";
layers = (
{
layerId = m01;
shapes = (
{
closed = 1;
nodes = (
(323,196,ls),
(356,146,o),
(405,90,o),
(463,80,cs),
(527,69,o),
(623,109,o),
(641,211,cs),
(658,307,o),
(586,349,o),
(529,359,cs),
(477,368,o),
(400,356,o),
(319,279,c),
(312,213,l)
);
},
{
closed = 1;
nodes = (
(263,214,o),
(152,123,o),
(127,127,cs),
(108,130,o),
(108,191,o),
(114,227,cs),
(121,267,o),
(145,322,o),
(201,312,cs),
(242,305,o),
(270,267,o),
(288,241,c),
(321,279,l),
(299,309,o),
(270,352,o),
(215,361,cs),
(129,377,o),
(76,298,o),
(63,226,cs),
(53,168,o),
(65,90,o),
(119,81,cs),
(175,71,o),
(251,140,o),
(320,210,c),
(322,280,l)
);
},
{
closed = 1;
nodes = (
(420,307,o),
(475,319,o),
(514,312,cs),
(562,303,o),
(601,263,o),
(592,214,cs),
(582,158,o),
(515,123,o),
(472,130,cs),
(431,137,o),
(391,186,o),
(363,227,cs),
(353,241,l)
);
}
);
width = 684;
},
{
layerId = m002;
shapes = (
{
closed = 1;
nodes = (
(292,179,ls),
(325,127,o),
(377,71,o),
(438,61,cs),
(507,49,o),
(607,92,o),
(627,205,cs),
(646,314,o),
(569,362,o),
(509,373,cs),
(454,383,o),
(372,369,o),
(287,284,c),
(276,204,l)
);
},
{
closed = 1;
nodes = (
(228,221,o),
(150,151,o),
(135,154,cs),
(120,156,o),
(125,195,o),
(131,227,cs),
(137,261,o),
(159,284,o),
(196,278,cs),
(238,271,o),
(258,220,o),
(275,198,c),
(338,272,l),
(322,296,o),
(290,361,o),
(218,374,cs),
(121,391,o),
(62,301,o),
(48,225,cs),
(37,164,o),
(52,72,o),
(118,60,cs),
(184,49,o),
(260,126,o),
(330,197,c),
(274,272,l)
);
},
{
closed = 1;
nodes = (
(419,277,o),
(457,284,o),
(485,279,cs),
(525,272,o),
(548,247,o),
(542,215,cs),
(535,175,o),
(497,150,o),
(464,156,cs),
(421,163,o),
(384,212,o),
(374,227,cs),
(370,233,l)
);
}
);
width = 657;
}
);
metricLeft = o;
metricRight = o;
unicode = 8734;
},
{
glyphname = percent;
lastChange = "2022-02-26 19:36:14 +0000";
layers = (
{
layerId = m01;
shapes = (
{
closed = 1;
nodes = (
(431,637,o),
(416,650,o),
(401,650,cs),
(390,650,o),
(379,644,o),
(372,627,cs),
(115,31,ls),
(107,12,o),
(121,0,o),
(137,0,cs),
(148,0,o),
(159,6,o),
(165,20,cs),
(422,616,ls)
);
},
{
closed = 1;
nodes = (
(366,-4,o),
(432,95,o),
(432,158,cs),
(432,197,o),
(409,218,o),
(364,218,cs),
(327,218,o),
(301,193,o),
(286,167,cs),
(275,146,o),
(258,106,o),
(258,59,cs),
(258,12,o),
(275,-4,o),
(302,-4,cs)
);
},
{
closed = 1;
nodes = (
(297,35,o),
(297,49,o),
(297,66,cs),
(297,93,o),
(309,122,o),
(323,151,c),
(335,171,o),
(345,178,o),
(362,178,cs),
(384,178,o),
(392,172,o),
(392,151,cs),
(392,113,o),
(340,35,o),
(309,35,cs)
);
},
{
closed = 1;
nodes = (
(223,432,o),
(289,531,o),
(289,594,cs),
(289,633,o),
(266,654,o),
(221,654,cs),
(184,654,o),
(158,629,o),
(143,603,cs),
(132,582,o),
(115,542,o),
(115,495,cs),
(115,448,o),
(132,432,o),
(159,432,cs)
);
},
{
closed = 1;
nodes = (
(154,471,o),
(154,485,o),
(154,502,cs),
(154,529,o),
(166,558,o),
(180,587,c),
(192,607,o),
(202,614,o),
(219,614,cs),
(241,614,o),
(249,608,o),
(249,587,cs),
(249,549,o),
(197,471,o),
(166,471,cs)
);
}
);
width = 492;
},
{
background = {
shapes = (
{
closed = 1;
nodes = (
(519,0,o),
(590,110,o),
(590,179,cs),
(590,227,o),
(558,256,o),
(502,256,cs),
(453,256,o),
(421,223,o),
(405,195,cs),
(393,175,o),
(376,130,o),
(376,80,cs),
(376,12,o),
(412,0,o),
(440,0,cs)
);
},
{
closed = 1;
nodes = (
(452,78,o),
(454,94,o),
(455,106,cs),
(458,126,o),
(466,145,o),
(476,164,cs),
(484,179,o),
(489,182,o),
(499,182,cs),
(510,182,o),
(511,173,o),
(509,157,cs),
(505,130,o),
(472,78,o),
(457,78,cs)
);
},
{
closed = 1;
nodes = (
(260,394,o),
(331,504,o),
(331,573,cs),
(331,621,o),
(299,650,o),
(243,650,cs),
(194,650,o),
(162,617,o),
(146,589,cs),
(134,569,o),
(117,524,o),
(117,474,cs),
(117,406,o),
(153,394,o),
(181,394,cs)
);
},
{
closed = 1;
nodes = (
(193,472,o),
(195,488,o),
(196,500,cs),
(199,520,o),
(207,539,o),
(217,558,cs),
(225,573,o),
(230,576,o),
(240,576,cs),
(251,576,o),
(252,567,o),
(250,551,cs),
(246,524,o),
(213,472,o),
(198,472,cs)
);
}
);
};
layerId = m002;
shapes = (
{
closed = 1;
nodes = (
(533,624,o),
(502,650,o),
(472,650,cs),
(452,650,o),
(430,639,o),
(419,614,cs),
(179,60,ls),
(164,25,o),
(193,0,o),
(225,0,cs),
(244,0,o),
(266,10,o),
(276,32,cs),
(517,588,ls)
);
},
{
closed = 1;
nodes = (
(519,-4,o),
(590,106,o),
(590,175,cs),
(590,223,o),
(558,252,o),
(502,252,cs),
(453,252,o),
(421,219,o),
(405,191,cs),
(393,171,o),
(376,126,o),
(376,76,cs),
(376,8,o),
(412,-4,o),
(440,-4,cs)
);
},
{
closed = 1;
nodes = (
(453,74,o),
(451,90,o),
(452,102,cs),
(455,122,o),
(461,141,o),
(471,160,cs),
(479,175,o),
(489,178,o),
(499,178,cs),
(510,178,o),
(510,169,o),
(509,153,cs),
(507,121,o),
(475,74,o),
(457,74,cs)
);
},
{
closed = 1;
nodes = (
(260,398,o),
(331,508,o),
(331,577,cs),
(331,625,o),
(299,654,o),
(243,654,cs),
(194,654,o),
(162,621,o),
(146,593,cs),
(134,573,o),
(117,528,o),
(117,478,cs),
(117,410,o),
(153,398,o),
(181,398,cs)
);
},
{
closed = 1;
nodes = (
(194,476,o),
(192,492,o),
(193,504,cs),
(196,524,o),
(202,543,o),
(212,562,cs),
(220,577,o),
(230,580,o),
(240,580,cs),
(251,580,o),
(251,571,o),
(250,555,cs),
(248,523,o),
(216,476,o),
(198,476,cs)
);
}
);
width = 651;
}
);
metricLeft = N;
metricRight = N;
unicode = 37;
},
{
glyphname = grave;
lastChange = "2022-02-26 19:36:14 +0000";
layers = (
{
layerId = m01;
shapes = (
{
closed = 1;
nodes = (
(191,696,o),
(178,701,o),
(167,701,cs),
(151,700,o),
(136,686,o),
(149,664,cs),
(203,572,ls),
(212,557,o),
(225,554,o),
(234,559,cs),
(242,563,o),
(245,573,o),
(239,587,cs),
(197,683,ls)
);
}
);
width = 227;
},
{
layerId = m002;
shapes = (
{
closed = 1;
nodes = (
(237,690,o),
(213,700,o),
(193,700,cs),
(160,698,o),
(130,669,o),
(155,630,cs),
(212,542,ls),
(230,515,o),
(255,508,o),
(274,519,cs),
(293,530,o),
(296,547,o),
(285,573,cs),
(246,669,ls)
);
}
);
width = 285;
}
);
metricLeft = N;
metricRight = N;
unicode = 96;
},
{
glyphname = tilde;
lastChange = "2022-02-26 10:39:39 +0000";
layers = (
{
layerId = m01;
shapes = (
{
closed = 1;
nodes = (
(274,158,o),
(294,168,o),
(315,177,cs),
(333,185,o),
(341,191,o),
(341,202,cs),
(341,213,o),
(329,233,o),
(312,225,cs),
(293,216,o),
(280,203,o),
(250,203,cs),
(222,203,o),
(179,241,o),
(148,241,cs),
(122,241,o),
(105,232,o),
(87,225,cs),
(69,218,o),
(60,213,o),
(60,202,cs),
(60,190,o),
(70,169,o),
(88,177,cs),
(103,184,o),
(117,196,o),
(140,196,cs),
(171,196,o),
(214,158,o),
(242,158,cs)
);
}
